<?xml version="1.0" encoding="UTF-8"?>
<!DOCTYPE svg PUBLIC "-//W3C//DTD SVG 1.0//EN" "http://www.w3.org/TR/2001/REC-SVG-20010904/DTD/svg10.dtd">
<!-- Creator: CorelDRAW 2019 (64-Bit) -->
<svg xmlns="http://www.w3.org/2000/svg" xml:space="preserve" width="0.597403in" height="1in" version="1.0" shape-rendering="geometricPrecision" text-rendering="geometricPrecision" image-rendering="optimizeQuality" fill-rule="evenodd" clip-rule="evenodd"
viewBox="0 0 20.43 34.19"
 xmlns:xlink="http://www.w3.org/1999/xlink"
 xmlns:xodm="http://www.corel.com/coreldraw/odm/2003">
 <g id="Capa_x0020_1">
  <metadata id="CorelCorpID_0Corel-Layer"/>
  <g id="_2666938487728">
   <path fill="blue" fill-rule="nonzero" stroke="black" stroke-width="0.16" stroke-miterlimit="4" d="M0.08 33.23c0,0 0,0.89 0.89,0.89l18.49 0c0,0 0.89,0 0.89,-0.89l0 -32.26c0,0 0,-0.89 -0.89,-0.89l-18.49 0c0,0 -0.89,0 -0.89,0.89l0 32.26z"/>
   <g>
    <path fill="none" stroke="black" stroke-width="0.89" stroke-miterlimit="22.9256" d="M13.07 19.16c-0.64,1.23 -1.43,1.93 -2.24,2.26 -2.59,1.07 -4.04,-1.62 -2.94,-3.77 1.12,-2.18 4.21,-3.22 6.17,-1.65 3.66,2.94 0.18,8.51 -5.07,8.04 -1.41,-0.13 -2.9,-1.3 -3.5,-2.57 -2.9,-6.12 4.85,-12.66 7.41,-15.78 2.83,-3.44 -2.91,-5.67 -2.69,-0.43 0,0 1.25,18.19 1.53,26.77"/>
    <path fill="black" stroke="black" stroke-width="0.09" stroke-miterlimit="22.9256" d="M13.41 18.41c0.43,0.74 -0.23,1.91 -1.46,2.62 -1.23,0.71 -2.57,0.69 -3,-0.05 -0.43,-0.74 0.23,-1.91 1.46,-2.62 1.23,-0.71 2.57,-0.69 3,0.05z"/>
   </g>
  </g>
 </g>
</svg>
