<?xml version="1.0" encoding="UTF-8"?>
<!DOCTYPE svg PUBLIC "-//W3C//DTD SVG 1.0//EN" "http://www.w3.org/TR/2001/REC-SVG-20010904/DTD/svg10.dtd">
<!-- Creator: CorelDRAW 2019 (64-Bit) -->
<svg xmlns="http://www.w3.org/2000/svg" xml:space="preserve" width="0.597403in" height="1in" version="1.0" shape-rendering="geometricPrecision" text-rendering="geometricPrecision" image-rendering="optimizeQuality" fill-rule="evenodd" clip-rule="evenodd"
viewBox="0 0 20.43 34.19"
 xmlns:xlink="http://www.w3.org/1999/xlink"
 xmlns:xodm="http://www.corel.com/coreldraw/odm/2003">
 <g id="Capa_x0020_1">
  <metadata id="CorelCorpID_0Corel-Layer"/>
  <g id="_2666946711904">
   <path fill="blue" fill-rule="nonzero" stroke="black" stroke-width="0.16" stroke-miterlimit="4" d="M0.08 33.23c0,0 0,0.89 0.89,0.89l18.49 0c0,0 0.89,0 0.89,-0.89l0 -32.26c0,0 0,-0.89 -0.89,-0.89l-18.49 0c0,0 -0.89,0 -0.89,0.89l0 32.26z"/>
   <path fill="black" fill-rule="nonzero" stroke="black" stroke-width="0.03" stroke-miterlimit="22.9256" d="M10.16 14.73l-1.17 0 0.17 -0.6 1.16 0c0.22,-0.8 0.53,-1.39 0.92,-1.79 0.39,-0.39 0.86,-0.59 1.42,-0.59 0.36,0 0.66,0.09 0.89,0.27 0.23,0.18 0.35,0.42 0.35,0.7 0,0.19 -0.06,0.35 -0.17,0.47 -0.11,0.12 -0.26,0.18 -0.43,0.18 -0.19,0 -0.35,-0.05 -0.46,-0.14 -0.11,-0.09 -0.17,-0.22 -0.17,-0.37 0,-0.11 0.04,-0.22 0.11,-0.34 0.02,-0.03 0.03,-0.05 0.03,-0.06 0,-0.02 -0.02,-0.05 -0.07,-0.07 -0.05,-0.02 -0.11,-0.03 -0.17,-0.03 -0.26,0 -0.49,0.14 -0.68,0.42 -0.19,0.28 -0.35,0.73 -0.5,1.35l1.11 0 -0.14 0.6 -1.1 0 -1.06 4.46c-0.28,1.16 -0.61,1.99 -0.99,2.49 -0.38,0.51 -0.87,0.76 -1.46,0.76 -0.35,0 -0.64,-0.09 -0.87,-0.27 -0.23,-0.18 -0.35,-0.39 -0.35,-0.65 0,-0.22 0.05,-0.39 0.16,-0.52 0.11,-0.13 0.25,-0.19 0.44,-0.19 0.2,0 0.35,0.05 0.47,0.14 0.11,0.09 0.17,0.22 0.17,0.39 0,0.13 -0.05,0.25 -0.15,0.37 -0.02,0.03 -0.03,0.05 -0.03,0.05 0,0.02 0.03,0.03 0.09,0.05 0.06,0.02 0.13,0.02 0.21,0.02 0.26,0 0.48,-0.2 0.67,-0.59 0.19,-0.39 0.41,-1.12 0.65,-2.18l0.96 -4.32z"/>
  </g>
 </g>
</svg>
