<?xml version="1.0" encoding="UTF-8"?>
<!DOCTYPE svg PUBLIC "-//W3C//DTD SVG 1.0//EN" "http://www.w3.org/TR/2001/REC-SVG-20010904/DTD/svg10.dtd">
<!-- Creator: CorelDRAW 2019 (64-Bit) -->
<svg xmlns="http://www.w3.org/2000/svg" xml:space="preserve" width="0.597403in" height="1in" version="1.0" shape-rendering="geometricPrecision" text-rendering="geometricPrecision" image-rendering="optimizeQuality" fill-rule="evenodd" clip-rule="evenodd"
viewBox="0 0 24.09 40.32"
 xmlns:xlink="http://www.w3.org/1999/xlink"
 xmlns:xodm="http://www.corel.com/coreldraw/odm/2003">
 <g id="Capa_x0020_1">
  <metadata id="CorelCorpID_0Corel-Layer"/>
  <g id="_2725754246896">
   <path fill="red" fill-rule="nonzero" stroke="black" stroke-width="0.18" stroke-miterlimit="4" d="M0.09 39.18c0,0 0,1.05 1.05,1.05l21.81 0c0,0 1.05,0 1.05,-1.05l0 -38.04c0,0 0,-1.05 -1.05,-1.05l-21.81 0c0,0 -1.05,0 -1.05,1.05l0 38.04z"/>
   <g>
    <path fill="none" stroke="black" stroke-width="1.05" stroke-miterlimit="22.9256" d="M16.24 14.92c-3.65,4.89 -7.82,1.07 -5.73,-2.53 1.45,-2.5 5.15,-3.54 7.37,-1.56 4.13,3.68 0.67,9.34 -6.46,9.34"/>
    <path fill="none" stroke="black" stroke-width="1.05" stroke-miterlimit="22.9256" d="M16.24 25.4c-3.65,-4.89 -7.82,-1.07 -5.73,2.53 1.45,2.5 5.15,3.54 7.37,1.56 4.13,-3.68 0.67,-9.34 -6.46,-9.34"/>
    <ellipse fill="black" stroke="black" stroke-width="0.1" stroke-miterlimit="22.9256" transform="matrix(0.1125 0.194856 -0.359205 0.207387 7.22083 20.3457)" rx="8.09" ry="7.32"/>
   </g>
  </g>
 </g>
</svg>
