<?xml version="1.0" encoding="UTF-8"?>
<!DOCTYPE svg PUBLIC "-//W3C//DTD SVG 1.0//EN" "http://www.w3.org/TR/2001/REC-SVG-20010904/DTD/svg10.dtd">
<!-- Creator: CorelDRAW 2019 (64-Bit) -->
<svg xmlns="http://www.w3.org/2000/svg" xml:space="preserve" width="0.597403in" height="1in" version="1.0" shape-rendering="geometricPrecision" text-rendering="geometricPrecision" image-rendering="optimizeQuality" fill-rule="evenodd" clip-rule="evenodd"
viewBox="0 0 20.9 34.99"
 xmlns:xlink="http://www.w3.org/1999/xlink"
 xmlns:xodm="http://www.corel.com/coreldraw/odm/2003">
 <g id="Capa_x0020_1">
  <metadata id="CorelCorpID_0Corel-Layer"/>
  <g id="_2726082729856">
   <path fill="lime" fill-rule="nonzero" stroke="black" stroke-width="0.16" stroke-miterlimit="4" d="M0.08 34c0,0 0,0.91 0.91,0.91l18.93 0c0,0 0.91,0 0.91,-0.91l0 -33.01c0,0 0,-0.91 -0.91,-0.91l-18.93 0c0,0 -0.91,0 -0.91,0.91l0 33.01z"/>
   <path fill="black" fill-rule="nonzero" stroke="black" stroke-width="0.03" stroke-miterlimit="22.9256" d="M8.37 15.08l-1.2 0 0.18 -0.61 1.19 0c0.23,-0.82 0.54,-1.43 0.94,-1.83 0.4,-0.4 0.88,-0.61 1.45,-0.61 0.37,0 0.68,0.09 0.91,0.28 0.24,0.19 0.36,0.43 0.36,0.72 0,0.2 -0.06,0.35 -0.17,0.48 -0.12,0.12 -0.26,0.18 -0.44,0.18 -0.2,0 -0.36,-0.05 -0.47,-0.14 -0.11,-0.09 -0.17,-0.22 -0.17,-0.38 0,-0.11 0.04,-0.23 0.11,-0.35 0.02,-0.03 0.03,-0.06 0.03,-0.06 0,-0.02 -0.02,-0.05 -0.08,-0.07 -0.05,-0.02 -0.11,-0.03 -0.18,-0.03 -0.27,0 -0.5,0.14 -0.69,0.43 -0.19,0.29 -0.36,0.75 -0.51,1.38l1.13 0 -0.14 0.61 -1.13 0 -1.09 4.56c-0.28,1.18 -0.62,2.03 -1.01,2.55 -0.39,0.52 -0.89,0.78 -1.49,0.78 -0.36,0 -0.65,-0.09 -0.89,-0.27 -0.24,-0.18 -0.36,-0.4 -0.36,-0.66 0,-0.22 0.05,-0.4 0.16,-0.53 0.11,-0.13 0.26,-0.2 0.45,-0.2 0.2,0 0.36,0.05 0.48,0.14 0.11,0.1 0.17,0.23 0.17,0.4 0,0.13 -0.05,0.26 -0.15,0.38 -0.02,0.03 -0.03,0.05 -0.03,0.05 0,0.02 0.03,0.03 0.09,0.05 0.06,0.02 0.13,0.02 0.22,0.02 0.26,0 0.49,-0.2 0.69,-0.6 0.2,-0.4 0.42,-1.15 0.66,-2.23l0.98 -4.42zm4.05 0l-1.2 0 0.18 -0.61 1.19 0c0.23,-0.82 0.54,-1.43 0.94,-1.83 0.4,-0.4 0.88,-0.61 1.45,-0.61 0.37,0 0.68,0.09 0.91,0.28 0.24,0.19 0.36,0.43 0.36,0.72 0,0.2 -0.06,0.35 -0.17,0.48 -0.12,0.12 -0.26,0.18 -0.44,0.18 -0.2,0 -0.36,-0.05 -0.47,-0.14 -0.11,-0.09 -0.17,-0.22 -0.17,-0.38 0,-0.11 0.04,-0.23 0.11,-0.35 0.02,-0.03 0.03,-0.06 0.03,-0.06 0,-0.02 -0.02,-0.05 -0.08,-0.07 -0.05,-0.02 -0.11,-0.03 -0.18,-0.03 -0.27,0 -0.5,0.14 -0.69,0.43 -0.19,0.29 -0.36,0.75 -0.51,1.38l1.13 0 -0.14 0.61 -1.13 0 -1.09 4.56c-0.28,1.18 -0.62,2.03 -1.01,2.55 -0.39,0.52 -0.89,0.78 -1.49,0.78 -0.36,0 -0.65,-0.09 -0.89,-0.27 -0.24,-0.18 -0.36,-0.4 -0.36,-0.66 0,-0.22 0.05,-0.4 0.16,-0.53 0.11,-0.13 0.26,-0.2 0.45,-0.2 0.2,0 0.36,0.05 0.48,0.14 0.11,0.1 0.17,0.23 0.17,0.4 0,0.13 -0.05,0.26 -0.15,0.38 -0.02,0.03 -0.03,0.05 -0.03,0.05 0,0.02 0.03,0.03 0.09,0.05 0.06,0.02 0.13,0.02 0.22,0.02 0.26,0 0.49,-0.2 0.69,-0.6 0.2,-0.4 0.42,-1.15 0.66,-2.23l0.98 -4.42z"/>
  </g>
 </g>
</svg>
