<?xml version="1.0" encoding="UTF-8"?>
<!DOCTYPE svg PUBLIC "-//W3C//DTD SVG 1.0//EN" "http://www.w3.org/TR/2001/REC-SVG-20010904/DTD/svg10.dtd">
<!-- Creator: CorelDRAW 2019 (64-Bit) -->
<svg xmlns="http://www.w3.org/2000/svg" xml:space="preserve" width="0.597403in" height="1in" version="1.0" shape-rendering="geometricPrecision" text-rendering="geometricPrecision" image-rendering="optimizeQuality" fill-rule="evenodd" clip-rule="evenodd"
viewBox="0 0 22.9 38.34"
 xmlns:xlink="http://www.w3.org/1999/xlink"
 xmlns:xodm="http://www.corel.com/coreldraw/odm/2003">
 <g id="Capa_x0020_1">
  <metadata id="CorelCorpID_0Corel-Layer"/>
  <g id="_2726299204064">
   <path fill="yellow" fill-rule="nonzero" stroke="black" stroke-width="0.18" stroke-miterlimit="4" d="M0.09 37.26c0,0 0,1 1,1l20.74 0c0,0 1,0 1,-1l0 -36.17c0,0 0,-1 -1,-1l-20.74 0c0,0 -1,0 -1,1l0 36.17z"/>
   <path fill="black" fill-rule="nonzero" stroke="black" stroke-width="0.04" stroke-miterlimit="22.9256" d="M3.07 22.76l0.95 -3.1c0.26,-0.86 0.43,-1.45 0.51,-1.76 0.07,-0.31 0.11,-0.54 0.11,-0.69 0,-0.13 -0.02,-0.23 -0.07,-0.31 -0.04,-0.07 -0.11,-0.11 -0.19,-0.11 -0.21,0 -0.42,0.09 -0.63,0.29 -0.21,0.19 -0.44,0.5 -0.7,0.91l-0.69 0c0.35,-0.7 0.74,-1.24 1.17,-1.63 0.43,-0.39 0.84,-0.58 1.23,-0.58 0.31,0 0.55,0.1 0.71,0.3 0.17,0.2 0.25,0.49 0.25,0.88 0,0.08 -0.01,0.18 -0.02,0.28 -0.01,0.11 -0.03,0.22 -0.05,0.35 0.4,-0.63 0.79,-1.09 1.16,-1.38 0.37,-0.29 0.76,-0.44 1.16,-0.44 0.4,0 0.7,0.12 0.92,0.36 0.22,0.24 0.32,0.58 0.32,1.01 0,0.07 -0,0.14 -0.01,0.21 -0.01,0.08 -0.01,0.16 -0.03,0.24 0.46,-0.66 0.87,-1.13 1.23,-1.4 0.36,-0.28 0.74,-0.42 1.13,-0.42 0.41,0 0.75,0.12 1,0.37 0.26,0.25 0.39,0.57 0.39,0.97 0,0.23 -0.04,0.5 -0.12,0.81 -0.08,0.31 -0.24,0.77 -0.47,1.4 -0.29,0.77 -0.48,1.3 -0.56,1.59 -0.09,0.29 -0.13,0.5 -0.13,0.63 0,0.13 0.03,0.24 0.1,0.32 0.07,0.08 0.16,0.12 0.28,0.12 0.19,0 0.39,-0.12 0.61,-0.36 0.22,-0.24 0.44,-0.6 0.66,-1.06l0.71 0c-0.4,0.84 -0.8,1.45 -1.2,1.84 -0.4,0.39 -0.83,0.58 -1.3,0.58 -0.33,0 -0.59,-0.1 -0.78,-0.31 -0.18,-0.2 -0.27,-0.49 -0.27,-0.86 0,-0.26 0.05,-0.57 0.14,-0.93 0.09,-0.36 0.27,-0.9 0.53,-1.61 0.22,-0.58 0.38,-1.03 0.47,-1.36 0.09,-0.32 0.14,-0.57 0.14,-0.73 0,-0.2 -0.05,-0.35 -0.16,-0.45 -0.1,-0.1 -0.25,-0.15 -0.45,-0.15 -0.63,0 -1.24,0.54 -1.83,1.63 -0.6,1.09 -1.1,2.61 -1.52,4.55l-1.25 0 0.93 -3.1c0.07,-0.24 0.18,-0.57 0.32,-0.99 0.26,-0.77 0.38,-1.27 0.38,-1.5 0,-0.2 -0.05,-0.35 -0.15,-0.45 -0.1,-0.1 -0.24,-0.15 -0.45,-0.15 -0.59,0 -1.17,0.54 -1.73,1.62 -0.57,1.08 -1.07,2.6 -1.51,4.57l-1.26 0zm13.28 -6.24l-1.32 0 0.19 -0.67 1.3 0c0.25,-0.89 0.59,-1.56 1.03,-2 0.44,-0.44 0.97,-0.66 1.59,-0.66 0.41,0 0.74,0.1 1,0.31 0.26,0.21 0.39,0.47 0.39,0.79 0,0.22 -0.06,0.39 -0.19,0.52 -0.13,0.13 -0.29,0.2 -0.49,0.2 -0.22,0 -0.39,-0.05 -0.52,-0.15 -0.12,-0.1 -0.19,-0.24 -0.19,-0.42 0,-0.12 0.04,-0.25 0.12,-0.38 0.02,-0.04 0.04,-0.06 0.04,-0.07 0,-0.03 -0.03,-0.05 -0.08,-0.08 -0.06,-0.03 -0.12,-0.04 -0.2,-0.04 -0.3,0 -0.55,0.16 -0.76,0.47 -0.21,0.32 -0.39,0.82 -0.56,1.51l1.24 0 -0.15 0.67 -1.24 0 -1.19 5c-0.31,1.3 -0.68,2.23 -1.11,2.79 -0.43,0.57 -0.98,0.85 -1.63,0.85 -0.39,0 -0.72,-0.1 -0.98,-0.3 -0.26,-0.2 -0.39,-0.44 -0.39,-0.73 0,-0.24 0.06,-0.44 0.18,-0.58 0.12,-0.15 0.28,-0.22 0.49,-0.22 0.22,0 0.4,0.05 0.52,0.16 0.12,0.11 0.19,0.25 0.19,0.43 0,0.14 -0.05,0.28 -0.17,0.41 -0.03,0.03 -0.04,0.05 -0.04,0.05 0,0.02 0.03,0.03 0.1,0.05 0.07,0.02 0.15,0.03 0.24,0.03 0.29,0 0.54,-0.22 0.76,-0.66 0.22,-0.44 0.46,-1.26 0.73,-2.45l1.08 -4.85z"/>
  </g>
 </g>
</svg>
