<?xml version="1.0" encoding="UTF-8"?>
<!DOCTYPE svg PUBLIC "-//W3C//DTD SVG 1.0//EN" "http://www.w3.org/TR/2001/REC-SVG-20010904/DTD/svg10.dtd">
<!-- Creator: CorelDRAW 2019 (64-Bit) -->
<svg xmlns="http://www.w3.org/2000/svg" xml:space="preserve" width="0.597403in" height="1in" version="1.0" shape-rendering="geometricPrecision" text-rendering="geometricPrecision" image-rendering="optimizeQuality" fill-rule="evenodd" clip-rule="evenodd"
viewBox="0 0 25.33 42.4"
 xmlns:xlink="http://www.w3.org/1999/xlink"
 xmlns:xodm="http://www.corel.com/coreldraw/odm/2003">
 <g id="Capa_x0020_1">
  <metadata id="CorelCorpID_0Corel-Layer"/>
  <g id="_2726087112848">
   <path fill="blue" fill-rule="nonzero" stroke="black" stroke-width="0.19" stroke-miterlimit="4" d="M0.1 41.2c0,0 0,1.1 1.1,1.1l22.93 0c0,0 1.1,0 1.1,-1.1l0 -40c0,0 0,-1.1 -1.1,-1.1l-22.93 0c0,0 -1.1,0 -1.1,1.1l0 40z"/>
   <path fill="black" fill-rule="nonzero" stroke="black" stroke-width="0.04" stroke-miterlimit="22.9256" d="M2.55 23.81l1.05 -3.43c0.29,-0.95 0.48,-1.6 0.56,-1.95 0.08,-0.34 0.12,-0.6 0.12,-0.76 0,-0.14 -0.03,-0.26 -0.08,-0.34 -0.05,-0.08 -0.12,-0.12 -0.21,-0.12 -0.23,0 -0.46,0.1 -0.7,0.32 -0.23,0.21 -0.49,0.55 -0.77,1.01l-0.76 0c0.39,-0.77 0.82,-1.37 1.29,-1.8 0.47,-0.43 0.93,-0.65 1.36,-0.65 0.35,0 0.61,0.11 0.79,0.33 0.18,0.22 0.28,0.55 0.28,0.97 0,0.09 -0.01,0.2 -0.02,0.31 -0.01,0.12 -0.03,0.24 -0.05,0.38 0.45,-0.69 0.87,-1.21 1.28,-1.53 0.41,-0.32 0.84,-0.48 1.29,-0.48 0.44,0 0.77,0.13 1.01,0.4 0.24,0.26 0.36,0.64 0.36,1.12 0,0.07 -0,0.15 -0.01,0.24 -0.01,0.09 -0.02,0.17 -0.03,0.26 0.51,-0.73 0.96,-1.24 1.36,-1.55 0.4,-0.31 0.82,-0.46 1.25,-0.46 0.45,0 0.83,0.14 1.11,0.41 0.28,0.28 0.43,0.63 0.43,1.07 0,0.25 -0.04,0.55 -0.13,0.89 -0.09,0.34 -0.26,0.86 -0.52,1.55 -0.32,0.86 -0.53,1.44 -0.62,1.76 -0.1,0.32 -0.15,0.55 -0.15,0.7 0,0.15 0.04,0.27 0.11,0.36 0.08,0.09 0.18,0.13 0.31,0.13 0.21,0 0.43,-0.14 0.68,-0.4 0.24,-0.27 0.48,-0.66 0.73,-1.18l0.79 0c-0.44,0.93 -0.88,1.61 -1.33,2.03 -0.44,0.43 -0.92,0.64 -1.44,0.64 -0.37,0 -0.66,-0.11 -0.86,-0.34 -0.2,-0.23 -0.3,-0.54 -0.3,-0.95 0,-0.29 0.05,-0.63 0.15,-1.03 0.1,-0.4 0.3,-0.99 0.59,-1.78 0.24,-0.64 0.42,-1.14 0.52,-1.5 0.1,-0.36 0.15,-0.63 0.15,-0.81 0,-0.22 -0.06,-0.38 -0.17,-0.5 -0.11,-0.11 -0.28,-0.17 -0.5,-0.17 -0.69,0 -1.37,0.6 -2.02,1.81 -0.66,1.21 -1.22,2.88 -1.68,5.03l-1.38 0 1.03 -3.43c0.08,-0.27 0.2,-0.63 0.35,-1.09 0.28,-0.85 0.42,-1.41 0.42,-1.66 0,-0.22 -0.05,-0.39 -0.16,-0.49 -0.11,-0.11 -0.27,-0.16 -0.49,-0.16 -0.65,0 -1.29,0.6 -1.92,1.79 -0.63,1.19 -1.18,2.88 -1.66,5.05l-1.4 0zm12.55 -5.32c0.31,-0.74 0.69,-1.33 1.15,-1.77 0.47,-0.44 0.93,-0.66 1.4,-0.66 0.35,0 0.62,0.11 0.8,0.33 0.18,0.22 0.29,0.56 0.32,1.01 0.37,-0.48 0.75,-0.83 1.15,-1.06 0.4,-0.23 0.82,-0.34 1.26,-0.34 0.71,0 1.28,0.28 1.72,0.83 0.44,0.55 0.66,1.28 0.66,2.19 0,0.46 -0.05,0.92 -0.16,1.36 -0.1,0.44 -0.26,0.87 -0.47,1.28 -0.4,0.76 -0.87,1.34 -1.43,1.74 -0.56,0.4 -1.18,0.6 -1.86,0.6 -0.54,0 -0.98,-0.15 -1.33,-0.44 -0.34,-0.29 -0.57,-0.72 -0.69,-1.28l-0.53 2.05c-0.04,0.16 -0.07,0.29 -0.09,0.39 -0.02,0.1 -0.03,0.19 -0.03,0.25 0,0.25 0.09,0.42 0.28,0.52 0.19,0.1 0.51,0.15 0.98,0.15l-0.19 0.74 -3.81 0 0.21 -0.77c0.41,-0.01 0.7,-0.07 0.87,-0.18 0.17,-0.11 0.29,-0.3 0.36,-0.58l1.58 -5.99c0.1,-0.38 0.16,-0.65 0.21,-0.84 0.04,-0.19 0.06,-0.32 0.06,-0.4 0,-0.14 -0.03,-0.26 -0.1,-0.34 -0.06,-0.08 -0.15,-0.12 -0.27,-0.12 -0.21,0 -0.42,0.11 -0.64,0.32 -0.22,0.22 -0.45,0.55 -0.69,1l-0.74 0zm4.43 4.58c0.36,0 0.69,-0.1 0.98,-0.31 0.29,-0.21 0.56,-0.53 0.81,-0.96 0.24,-0.42 0.43,-0.88 0.56,-1.37 0.13,-0.49 0.2,-0.99 0.2,-1.49 0,-0.64 -0.12,-1.12 -0.35,-1.45 -0.23,-0.33 -0.57,-0.49 -1.02,-0.49 -0.29,0 -0.58,0.09 -0.87,0.26 -0.28,0.17 -0.55,0.43 -0.8,0.77 -0.31,0.41 -0.55,0.89 -0.72,1.44 -0.17,0.54 -0.25,1.1 -0.25,1.66 0,0.63 0.13,1.11 0.38,1.44 0.25,0.33 0.62,0.5 1.09,0.5z"/>
  </g>
 </g>
</svg>
