<?xml version="1.0" encoding="UTF-8"?>
<!DOCTYPE svg PUBLIC "-//W3C//DTD SVG 1.0//EN" "http://www.w3.org/TR/2001/REC-SVG-20010904/DTD/svg10.dtd">
<!-- Creator: CorelDRAW 2019 (64-Bit) -->
<svg xmlns="http://www.w3.org/2000/svg" xml:space="preserve" width="0.597403in" height="1in" version="1.0" shape-rendering="geometricPrecision" text-rendering="geometricPrecision" image-rendering="optimizeQuality" fill-rule="evenodd" clip-rule="evenodd"
viewBox="0 0 28.33 47.42"
 xmlns:xlink="http://www.w3.org/1999/xlink"
 xmlns:xodm="http://www.corel.com/coreldraw/odm/2003">
 <g id="Capa_x0020_1">
  <metadata id="CorelCorpID_0Corel-Layer"/>
  <g id="_2727248125456">
   <path fill="yellow" fill-rule="nonzero" stroke="black" stroke-width="0.22" stroke-miterlimit="4" d="M0.11 46.08c0,0 0,1.23 1.23,1.23l25.65 0c0,0 1.23,0 1.23,-1.23l0 -44.74c0,0 0,-1.23 -1.23,-1.23l-25.65 0c0,0 -1.23,0 -1.23,1.23l0 44.74z"/>
   <path fill="black" fill-rule="nonzero" stroke="black" stroke-width="0.05" stroke-miterlimit="22.9256" d="M4.63 20.67c0.34,-0.83 0.77,-1.49 1.29,-1.98 0.52,-0.49 1.04,-0.73 1.57,-0.73 0.39,0 0.69,0.12 0.9,0.37 0.21,0.25 0.32,0.62 0.35,1.13 0.41,-0.53 0.84,-0.92 1.28,-1.18 0.44,-0.26 0.91,-0.39 1.41,-0.39 0.79,0 1.43,0.31 1.92,0.93 0.49,0.62 0.74,1.44 0.74,2.45 0,0.52 -0.06,1.03 -0.17,1.52 -0.12,0.49 -0.29,0.97 -0.53,1.43 -0.44,0.85 -0.98,1.5 -1.6,1.94 -0.63,0.45 -1.32,0.67 -2.08,0.67 -0.61,0 -1.1,-0.16 -1.49,-0.49 -0.38,-0.33 -0.64,-0.81 -0.77,-1.43l-0.59 2.29c-0.04,0.18 -0.08,0.32 -0.1,0.44 -0.02,0.11 -0.03,0.21 -0.03,0.28 0,0.28 0.1,0.47 0.32,0.58 0.21,0.11 0.57,0.17 1.09,0.17l-0.21 0.83 -4.26 0 0.24 -0.86c0.46,-0.02 0.78,-0.08 0.97,-0.21 0.19,-0.12 0.33,-0.34 0.41,-0.65l1.77 -6.69c0.11,-0.42 0.18,-0.73 0.23,-0.94 0.04,-0.21 0.07,-0.36 0.07,-0.45 0,-0.16 -0.04,-0.29 -0.11,-0.38 -0.07,-0.09 -0.17,-0.14 -0.3,-0.14 -0.23,0 -0.47,0.12 -0.72,0.36 -0.25,0.24 -0.5,0.61 -0.77,1.11l-0.83 0zm4.96 5.13c0.4,0 0.77,-0.11 1.09,-0.35 0.33,-0.23 0.63,-0.59 0.9,-1.07 0.27,-0.47 0.48,-0.98 0.63,-1.53 0.15,-0.55 0.22,-1.11 0.22,-1.66 0,-0.71 -0.13,-1.25 -0.39,-1.62 -0.26,-0.37 -0.64,-0.55 -1.14,-0.55 -0.33,0 -0.65,0.1 -0.97,0.29 -0.32,0.2 -0.62,0.48 -0.89,0.86 -0.35,0.46 -0.61,1 -0.81,1.61 -0.19,0.6 -0.28,1.23 -0.28,1.86 0,0.7 0.14,1.24 0.42,1.61 0.28,0.37 0.69,0.56 1.22,0.56zm5.6 -5.13c0.34,-0.83 0.77,-1.49 1.29,-1.98 0.52,-0.49 1.04,-0.73 1.57,-0.73 0.39,0 0.69,0.12 0.9,0.37 0.21,0.25 0.32,0.62 0.35,1.13 0.41,-0.53 0.84,-0.92 1.28,-1.18 0.44,-0.26 0.91,-0.39 1.41,-0.39 0.79,0 1.43,0.31 1.92,0.93 0.49,0.62 0.74,1.44 0.74,2.45 0,0.52 -0.06,1.03 -0.17,1.52 -0.12,0.49 -0.29,0.97 -0.53,1.43 -0.44,0.85 -0.98,1.5 -1.6,1.94 -0.63,0.45 -1.32,0.67 -2.08,0.67 -0.61,0 -1.1,-0.16 -1.49,-0.49 -0.38,-0.33 -0.64,-0.81 -0.77,-1.43l-0.59 2.29c-0.04,0.18 -0.08,0.32 -0.1,0.44 -0.02,0.11 -0.03,0.21 -0.03,0.28 0,0.28 0.1,0.47 0.32,0.58 0.21,0.11 0.57,0.17 1.09,0.17l-0.21 0.83 -4.26 0 0.24 -0.86c0.46,-0.02 0.78,-0.08 0.97,-0.21 0.19,-0.12 0.33,-0.34 0.41,-0.65l1.77 -6.69c0.11,-0.42 0.18,-0.73 0.23,-0.94 0.04,-0.21 0.07,-0.36 0.07,-0.45 0,-0.16 -0.04,-0.29 -0.11,-0.38 -0.07,-0.09 -0.17,-0.14 -0.3,-0.14 -0.23,0 -0.47,0.12 -0.72,0.36 -0.25,0.24 -0.5,0.61 -0.77,1.11l-0.83 0zm4.96 5.13c0.4,0 0.77,-0.11 1.09,-0.35 0.33,-0.23 0.63,-0.59 0.9,-1.07 0.27,-0.47 0.48,-0.98 0.63,-1.53 0.15,-0.55 0.22,-1.11 0.22,-1.66 0,-0.71 -0.13,-1.25 -0.39,-1.62 -0.26,-0.37 -0.64,-0.55 -1.14,-0.55 -0.33,0 -0.65,0.1 -0.97,0.29 -0.32,0.2 -0.62,0.48 -0.89,0.86 -0.35,0.46 -0.61,1 -0.81,1.61 -0.19,0.6 -0.28,1.23 -0.28,1.86 0,0.7 0.14,1.24 0.42,1.61 0.28,0.37 0.69,0.56 1.22,0.56z"/>
  </g>
 </g>
</svg>
