<?xml version="1.0" encoding="UTF-8"?>
<!DOCTYPE svg PUBLIC "-//W3C//DTD SVG 1.0//EN" "http://www.w3.org/TR/2001/REC-SVG-20010904/DTD/svg10.dtd">
<!-- Creator: CorelDRAW 2019 (64-Bit) -->
<svg xmlns="http://www.w3.org/2000/svg" xml:space="preserve" width="0.597403in" height="1in" version="1.0" shape-rendering="geometricPrecision" text-rendering="geometricPrecision" image-rendering="optimizeQuality" fill-rule="evenodd" clip-rule="evenodd"
viewBox="0 0 37.12 62.13"
 xmlns:xlink="http://www.w3.org/1999/xlink"
 xmlns:xodm="http://www.corel.com/coreldraw/odm/2003">
 <g id="Capa_x0020_1">
  <metadata id="CorelCorpID_0Corel-Layer"/>
  <g id="_2726079994368">
   <path fill="yellow" fill-rule="nonzero" stroke="black" stroke-width="0.28" stroke-miterlimit="4" d="M0.14 60.37c0,0 0,1.61 1.61,1.61l33.6 0c0,0 1.61,0 1.61,-1.61l0 -58.62c0,0 0,-1.61 -1.61,-1.61l-33.6 0c0,0 -1.61,0 -1.61,1.61l0 58.62z"/>
   <g>
    <ellipse fill="black" stroke="black" stroke-width="0.16" stroke-miterlimit="22.9256" transform="matrix(0.15 0.259807 -0.478939 0.276516 12.4108 45.285)" rx="12.47" ry="11.27"/>
    <line fill="none" stroke="black" stroke-width="1.61" stroke-miterlimit="22.9256" x1="17.3" y1="42.75" x2="17.3" y2= "14.85" />
    <g>
     <path fill="black" stroke="black" stroke-width="0.16" stroke-miterlimit="22.9256" d="M16.51 12.35c1.78,3.33 1.49,2.63 4.34,4.68 4.2,3.02 11.16,2.95 9.23,9.73 -0.21,0.72 -0.83,2.28 -1.13,3.29 -0.74,-3.03 -0.63,-5.85 -3.8,-7.3 -6.28,-2.87 -8.91,-3.14 -8.65,-10.39z"/>
    </g>
    <path fill="none" d="M16.51 12.35c0.47,1.86 0.51,2.95 1.48,4.13 0.32,0.39 0.75,0.83 1.34,1.37 0.17,0.16 0.34,0.3 0.51,0.44 3.2,2.58 6.93,2.53 8.55,4.88 0.75,1.09 1.04,2.71 0.61,5.35 -0.02,0.15 -0.01,1.26 -0.04,1.53"/>
    <path fill="black" stroke="black" stroke-width="0.16" stroke-miterlimit="22.9256" d="M16.85 22.21l0.02 -2.42c0.54,0.97 1.14,1.41 2.86,2.72 4.14,3.16 10.53,2.59 9.28,9.21 -0.18,0.93 -0.56,2.18 -0.77,3.3 -0.15,-1.12 -0.18,-2.4 -0.31,-3.35 -0.68,-5.1 -4.37,-4.44 -8.09,-6.74 -1.5,-0.92 -2.41,-1.76 -2.99,-2.74z"/>
    <path fill="black" stroke="black" stroke-width="0.16" stroke-miterlimit="22.9256" d="M16.85 26.81l0.02 -2.42c0.54,0.97 1.14,1.41 2.86,2.72 4.14,3.16 10.53,2.59 9.28,9.21 -0.18,0.93 -0.56,2.18 -0.77,3.3 -0.15,-1.12 -0.18,-2.4 -0.31,-3.35 -0.68,-5.1 -4.37,-4.44 -8.09,-6.74 -1.5,-0.92 -2.41,-1.76 -2.99,-2.74z"/>
    <path fill="black" stroke="black" stroke-width="0.16" stroke-miterlimit="22.9256" d="M16.85 31.57l0.02 -2.42c0.54,0.97 1.14,1.41 2.86,2.72 4.14,3.16 10.53,2.59 9.28,9.21 -0.18,0.93 -0.56,2.18 -0.77,3.3 -0.15,-1.12 -0.18,-2.4 -0.31,-3.35 -0.68,-5.1 -4.37,-4.44 -8.09,-6.74 -1.5,-0.92 -2.41,-1.76 -2.99,-2.74z"/>
   </g>
  </g>
 </g>
</svg>
