<?xml version="1.0" encoding="UTF-8"?>
<!DOCTYPE svg PUBLIC "-//W3C//DTD SVG 1.0//EN" "http://www.w3.org/TR/2001/REC-SVG-20010904/DTD/svg10.dtd">
<!-- Creator: CorelDRAW 2019 (64-Bit) -->
<svg xmlns="http://www.w3.org/2000/svg" xml:space="preserve" width="0.597403in" height="1in" version="1.0" shape-rendering="geometricPrecision" text-rendering="geometricPrecision" image-rendering="optimizeQuality" fill-rule="evenodd" clip-rule="evenodd"
viewBox="0 0 20.9 34.99"
 xmlns:xlink="http://www.w3.org/1999/xlink"
 xmlns:xodm="http://www.corel.com/coreldraw/odm/2003">
 <g id="Capa_x0020_1">
  <metadata id="CorelCorpID_0Corel-Layer"/>
  <g id="_2726087131696">
   <path fill="lime" fill-rule="nonzero" stroke="black" stroke-width="0.16" stroke-miterlimit="4" d="M0.08 34c0,0 0,0.91 0.91,0.91l18.93 0c0,0 0.91,0 0.91,-0.91l0 -33.01c0,0 0,-0.91 -0.91,-0.91l-18.93 0c0,0 -0.91,0 -0.91,0.91l0 33.01z"/>
   <path fill="black" fill-rule="nonzero" stroke="black" stroke-width="0.03" stroke-miterlimit="22.9256" d="M8.34 6.51c0.37,0.09 0.77,0.14 1.2,0.14l3.51 0 0 0.26c-0.52,0.9 -0.9,1.67 -1.16,2.29 -0.26,0.63 -0.45,1.22 -0.58,1.79 -0.13,0.57 -0.22,1.23 -0.26,1.99 -0.04,0.63 -0.07,1.02 -0.11,1.16 -0.03,0.15 -0.1,0.26 -0.21,0.34 -0.1,0.08 -0.24,0.12 -0.4,0.12 -0.19,0 -0.33,-0.06 -0.44,-0.19 -0.11,-0.13 -0.16,-0.33 -0.16,-0.6 0,-0.24 0.04,-0.55 0.13,-0.91 0.09,-0.37 0.28,-0.91 0.59,-1.64 0.41,-0.97 0.77,-1.74 1.07,-2.3l0.78 -1.43 -3.06 0c-0.23,0 -0.39,0.08 -0.51,0.24 -0.11,0.16 -0.24,0.63 -0.4,1.41l-0.4 0 0.4 -2.68zm3.09 17.4c0.6,0.22 1.04,0.5 1.3,0.85 0.27,0.35 0.4,0.78 0.4,1.27 0,0.6 -0.19,1.13 -0.58,1.58 -0.5,0.58 -1.21,0.87 -2.14,0.87 -0.82,0 -1.46,-0.2 -1.93,-0.59 -0.47,-0.39 -0.71,-0.88 -0.71,-1.46 0,-0.44 0.14,-0.82 0.41,-1.15 0.27,-0.33 0.74,-0.61 1.41,-0.83 -0.99,-0.42 -1.48,-1.08 -1.48,-1.96 0,-0.57 0.22,-1.07 0.67,-1.48 0.44,-0.41 1.01,-0.62 1.69,-0.62 0.47,0 0.88,0.08 1.22,0.24 0.35,0.16 0.61,0.38 0.79,0.66 0.18,0.28 0.27,0.57 0.27,0.87 0,0.71 -0.44,1.29 -1.34,1.76zm-0.43 -0.15c0.39,-0.23 0.66,-0.45 0.79,-0.67 0.13,-0.22 0.2,-0.51 0.2,-0.86 0,-0.47 -0.13,-0.83 -0.4,-1.08 -0.27,-0.25 -0.65,-0.38 -1.16,-0.38 -0.49,0 -0.87,0.12 -1.15,0.36 -0.27,0.24 -0.41,0.55 -0.41,0.93 0,0.38 0.12,0.68 0.36,0.9 0.24,0.23 0.83,0.49 1.76,0.8zm-0.98 0.84c-0.53,0.23 -0.9,0.48 -1.11,0.76 -0.21,0.28 -0.31,0.63 -0.31,1.04 0,0.53 0.16,0.94 0.47,1.24 0.31,0.29 0.76,0.44 1.35,0.44 0.62,0 1.11,-0.15 1.45,-0.44 0.34,-0.29 0.52,-0.68 0.52,-1.17 0,-0.44 -0.15,-0.77 -0.45,-1 -0.3,-0.23 -0.94,-0.52 -1.93,-0.87z"/>
  </g>
 </g>
</svg>
