<?xml version="1.0" encoding="UTF-8"?>
<!DOCTYPE svg PUBLIC "-//W3C//DTD SVG 1.0//EN" "http://www.w3.org/TR/2001/REC-SVG-20010904/DTD/svg10.dtd">
<!-- Creator: CorelDRAW 2019 (64-Bit) -->
<svg xmlns="http://www.w3.org/2000/svg" xml:space="preserve" width="0.597403in" height="1in" version="1.0" shape-rendering="geometricPrecision" text-rendering="geometricPrecision" image-rendering="optimizeQuality" fill-rule="evenodd" clip-rule="evenodd"
viewBox="0 0 22.97 38.45"
 xmlns:xlink="http://www.w3.org/1999/xlink"
 xmlns:xodm="http://www.corel.com/coreldraw/odm/2003">
 <g id="Capa_x0020_1">
  <metadata id="CorelCorpID_0Corel-Layer"/>
  <g id="_2727248133968">
   <path fill="blue" fill-rule="nonzero" stroke="black" stroke-width="0.18" stroke-miterlimit="4" d="M0.09 37.36c0,0 0,1 1,1l20.8 0c0,0 1,0 1,-1l0 -36.28c0,0 0,-1 -1,-1l-20.8 0c0,0 -1,0 -1,1l0 36.28z"/>
   <path fill="black" fill-rule="nonzero" stroke="black" stroke-width="0.04" stroke-miterlimit="22.9256" d="M12.42 11.73c0.59,0.14 1.05,0.38 1.38,0.72 0.42,0.42 0.63,0.95 0.63,1.57 0,0.71 -0.25,1.28 -0.76,1.7 -0.57,0.49 -1.32,0.74 -2.24,0.74 -0.55,0 -1.03,-0.09 -1.43,-0.27 -0.4,-0.18 -0.7,-0.43 -0.89,-0.74 -0.2,-0.31 -0.3,-0.66 -0.3,-1.05 0,-0.31 0.08,-0.56 0.23,-0.74 0.15,-0.18 0.34,-0.27 0.57,-0.27 0.21,0 0.38,0.07 0.51,0.21 0.13,0.14 0.19,0.33 0.19,0.56 0,0.15 -0.03,0.28 -0.1,0.39 -0.06,0.11 -0.18,0.2 -0.34,0.29 -0.17,0.1 -0.26,0.19 -0.26,0.27 0,0.12 0.06,0.26 0.19,0.42 0.13,0.15 0.31,0.28 0.56,0.37 0.25,0.09 0.56,0.14 0.93,0.14 0.65,0 1.12,-0.16 1.44,-0.48 0.31,-0.32 0.47,-0.83 0.47,-1.53 0,-0.74 -0.13,-1.26 -0.4,-1.57 -0.27,-0.31 -0.66,-0.47 -1.19,-0.47 -0.14,0 -0.32,0.02 -0.53,0.05 -0.17,0.03 -0.29,0.04 -0.37,0.04 -0.12,0 -0.22,-0.03 -0.29,-0.08 -0.07,-0.05 -0.1,-0.12 -0.1,-0.19 0,-0.09 0.03,-0.15 0.1,-0.2 0.06,-0.05 0.17,-0.07 0.31,-0.07l0.34 0.01 0.3 0.01c0.53,0 0.93,-0.13 1.19,-0.4 0.27,-0.27 0.4,-0.68 0.4,-1.24 0,-0.68 -0.13,-1.17 -0.38,-1.46 -0.25,-0.29 -0.63,-0.44 -1.13,-0.44 -0.46,0 -0.83,0.08 -1.1,0.25 -0.27,0.16 -0.41,0.31 -0.41,0.45 0,0.09 0.08,0.21 0.23,0.36 0.22,0.21 0.33,0.42 0.33,0.64 0,0.17 -0.06,0.31 -0.19,0.42 -0.12,0.11 -0.28,0.17 -0.47,0.17 -0.21,0 -0.37,-0.08 -0.5,-0.23 -0.13,-0.16 -0.19,-0.37 -0.19,-0.65 0,-0.44 0.16,-0.82 0.47,-1.16 0.45,-0.48 1.09,-0.72 1.92,-0.72 0.78,0 1.4,0.21 1.86,0.62 0.46,0.42 0.7,0.93 0.7,1.55 0,0.44 -0.12,0.82 -0.37,1.14 -0.25,0.32 -0.68,0.61 -1.29,0.85zm0.33 14.95c0.66,0.24 1.14,0.55 1.43,0.93 0.29,0.39 0.44,0.85 0.44,1.4 0,0.66 -0.21,1.24 -0.64,1.74 -0.55,0.64 -1.33,0.96 -2.35,0.96 -0.9,0 -1.6,-0.22 -2.12,-0.65 -0.52,-0.43 -0.78,-0.97 -0.78,-1.61 0,-0.48 0.15,-0.9 0.45,-1.26 0.3,-0.36 0.81,-0.67 1.55,-0.92 -1.08,-0.47 -1.63,-1.18 -1.63,-2.16 0,-0.63 0.25,-1.17 0.73,-1.63 0.49,-0.45 1.11,-0.68 1.86,-0.68 0.51,0 0.96,0.09 1.34,0.27 0.38,0.18 0.67,0.42 0.87,0.72 0.2,0.31 0.3,0.63 0.3,0.96 0,0.78 -0.49,1.42 -1.47,1.93zm-0.48 -0.16c0.43,-0.25 0.72,-0.49 0.87,-0.73 0.15,-0.24 0.22,-0.56 0.22,-0.95 0,-0.51 -0.15,-0.91 -0.44,-1.19 -0.29,-0.28 -0.72,-0.42 -1.27,-0.42 -0.54,0 -0.96,0.13 -1.26,0.39 -0.3,0.26 -0.45,0.6 -0.45,1.02 0,0.41 0.13,0.74 0.39,0.99 0.26,0.25 0.91,0.54 1.94,0.88zm-1.08 0.92c-0.59,0.25 -0.99,0.52 -1.22,0.83 -0.23,0.31 -0.34,0.69 -0.34,1.14 0,0.58 0.17,1.04 0.52,1.36 0.34,0.32 0.84,0.49 1.49,0.49 0.68,0 1.22,-0.16 1.6,-0.49 0.38,-0.32 0.57,-0.75 0.57,-1.28 0,-0.48 -0.16,-0.85 -0.49,-1.09 -0.33,-0.25 -1.04,-0.57 -2.12,-0.96z"/>
  </g>
 </g>
</svg>
