<?xml version="1.0" encoding="UTF-8"?>
<!DOCTYPE svg PUBLIC "-//W3C//DTD SVG 1.0//EN" "http://www.w3.org/TR/2001/REC-SVG-20010904/DTD/svg10.dtd">
<!-- Creator: CorelDRAW 2019 (64-Bit) -->
<svg xmlns="http://www.w3.org/2000/svg" xml:space="preserve" width="0.597403in" height="1in" version="1.0" shape-rendering="geometricPrecision" text-rendering="geometricPrecision" image-rendering="optimizeQuality" fill-rule="evenodd" clip-rule="evenodd"
viewBox="0 0 52.03 87.09"
 xmlns:xlink="http://www.w3.org/1999/xlink"
 xmlns:xodm="http://www.corel.com/coreldraw/odm/2003">
 <g id="Capa_x0020_1">
  <metadata id="CorelCorpID_0Corel-Layer"/>
  <g id="_2726382972832">
   <path fill="lime" fill-rule="nonzero" stroke="black" stroke-width="0.4" stroke-miterlimit="4" d="M0.2 84.63c0,0 0,2.26 2.26,2.26l47.1 0c0,0 2.26,0 2.26,-2.26l0 -82.16c0,0 0,-2.26 -2.26,-2.26l-47.1 0c0,0 -2.26,0 -2.26,2.26l0 82.16z"/>
   <g>
    <path fill="black" stroke="black" stroke-width="0.23" stroke-miterlimit="22.9256" d="M36 37.86l-0.02 3.39c-0.76,-1.36 -1.59,-1.97 -4.01,-3.81 -5.8,-4.43 -14.76,-3.63 -13.01,-12.92 0.25,-1.31 0.79,-3.05 1.08,-4.63 0.22,1.58 0.25,3.37 0.43,4.69 0.95,7.15 6.12,6.22 11.34,9.44 2.1,1.29 3.38,2.47 4.19,3.84z"/>
    <line fill="none" stroke="black" stroke-width="3.39" stroke-miterlimit="22.9256" x1="39.62" y1="27.19" x2="25.06" y2= "67.2" />
    <path fill="black" stroke="black" stroke-width="0.23" stroke-miterlimit="22.9256" d="M33.96 43.85l-0.02 3.39c-0.76,-1.36 -1.59,-1.97 -4.01,-3.81 -5.8,-4.43 -14.76,-3.63 -13.01,-12.92 0.25,-1.31 0.79,-3.05 1.08,-4.63 0.22,1.58 0.25,3.37 0.43,4.69 0.95,7.15 6.12,6.22 11.34,9.44 2.1,1.29 3.38,2.47 4.19,3.84z"/>
    <path fill="black" stroke="black" stroke-width="0.23" stroke-miterlimit="22.9256" d="M31.81 49.4l-0.02 3.39c-0.76,-1.36 -1.59,-1.97 -4.01,-3.81 -5.8,-4.43 -14.76,-3.63 -13.01,-12.92 0.25,-1.31 0.79,-3.05 1.08,-4.63 0.22,1.58 0.25,3.37 0.43,4.69 0.95,7.15 6.12,6.22 11.34,9.44 2.1,1.29 3.38,2.47 4.19,3.84z"/>
    <path fill="black" stroke="black" stroke-width="0.23" stroke-miterlimit="22.9256" d="M29.67 55.5l-0.02 3.39c-0.76,-1.36 -1.59,-1.97 -4.01,-3.81 -5.8,-4.43 -14.76,-3.63 -13.01,-12.92 0.25,-1.31 0.79,-3.05 1.08,-4.63 0.22,1.58 0.25,3.37 0.43,4.69 0.95,7.15 6.12,6.22 11.34,9.44 2.1,1.29 3.38,2.47 4.19,3.84z"/>
   </g>
  </g>
 </g>
</svg>
