<?xml version="1.0" encoding="UTF-8"?>
<!DOCTYPE svg PUBLIC "-//W3C//DTD SVG 1.0//EN" "http://www.w3.org/TR/2001/REC-SVG-20010904/DTD/svg10.dtd">
<!-- Creator: CorelDRAW 2019 (64-Bit) -->
<svg xmlns="http://www.w3.org/2000/svg" xml:space="preserve" width="0.597403in" height="1in" version="1.0" shape-rendering="geometricPrecision" text-rendering="geometricPrecision" image-rendering="optimizeQuality" fill-rule="evenodd" clip-rule="evenodd"
viewBox="0 0 22.73 38.06"
 xmlns:xlink="http://www.w3.org/1999/xlink"
 xmlns:xodm="http://www.corel.com/coreldraw/odm/2003">
 <g id="Capa_x0020_1">
  <metadata id="CorelCorpID_0Corel-Layer"/>
  <g id="_2725888948704">
   <path fill="yellow" fill-rule="nonzero" stroke="black" stroke-width="0.17" stroke-miterlimit="4" d="M0.09 36.98c0,0 0,0.99 0.99,0.99l20.58 0c0,0 0.99,0 0.99,-0.99l0 -35.9c0,0 0,-0.99 -0.99,-0.99l-20.58 0c0,0 -0.99,0 -0.99,0.99l0 35.9z"/>
   <g>
    <rect fill="black" stroke="black" stroke-width="0.1" stroke-miterlimit="22.9256" transform="matrix(-3.00642 -3.00642 0.289263 -0.289263 6.17294 25.2705)" width="0.35" height="39.54"/>
    <g>
     <ellipse fill="black" stroke="black" stroke-width="0.1" stroke-miterlimit="22.9256" transform="matrix(-0.10983 0.10983 -0.121478 -0.121478 8.70854 16.3691)" rx="7.64" ry="6.9"/>
     <ellipse fill="black" stroke="black" stroke-width="0.1" stroke-miterlimit="22.9256" transform="matrix(-0.10983 0.10983 -0.121478 -0.121478 14.0259 21.6865)" rx="7.64" ry="6.9"/>
    </g>
   </g>
  </g>
 </g>
</svg>
