<?xml version="1.0" encoding="UTF-8"?>
<!DOCTYPE svg PUBLIC "-//W3C//DTD SVG 1.0//EN" "http://www.w3.org/TR/2001/REC-SVG-20010904/DTD/svg10.dtd">
<!-- Creator: CorelDRAW 2019 (64-Bit) -->
<svg xmlns="http://www.w3.org/2000/svg" xml:space="preserve" width="0.597403in" height="1in" version="1.0" shape-rendering="geometricPrecision" text-rendering="geometricPrecision" image-rendering="optimizeQuality" fill-rule="evenodd" clip-rule="evenodd"
viewBox="0 0 24.92 41.71"
 xmlns:xlink="http://www.w3.org/1999/xlink"
 xmlns:xodm="http://www.corel.com/coreldraw/odm/2003">
 <g id="Capa_x0020_1">
  <metadata id="CorelCorpID_0Corel-Layer"/>
  <g id="_2726392775856">
   <path fill="lime" fill-rule="nonzero" stroke="black" stroke-width="0.19" stroke-miterlimit="4" d="M0.1 40.53c0,0 0,1.08 1.08,1.08l22.56 0c0,0 1.08,0 1.08,-1.08l0 -39.35c0,0 0,-1.08 -1.08,-1.08l-22.56 0c0,0 -1.08,0 -1.08,1.08l0 39.35z"/>
   <g>
    <path fill="#030303" d="M11.3 21.34l-4.97 8.87c1.7,0.03 1.54,-0.01 2.23,-1.25l3.98 -6.73c7.83,4.35 2.77,9.14 1.31,6.63 -0.89,-1.53 0.57,-0.3 0.54,-2.34 -0.03,-1.98 -3.6,-2.35 -2.56,1.17 1,3.39 6.02,3.44 6.83,-0.32 0.88,-4.08 -2.84,-5.66 -4.88,-7.14l4.94 -8.66c-2.13,-0.1 -1.47,0.15 -3.52,3.53 -0.69,1.13 -2.02,3.71 -2.75,4.36 -5.96,-2.8 -4.86,-9.08 -1.01,-6.47 -0.14,1.67 -1.41,1.06 -0.39,3.52 5.46,0.9 0.88,-7.93 -3.5,-4.03 -3.82,3.41 1.17,7.98 3.77,8.85z"/>
    <ellipse fill="black" stroke="black" stroke-width="0.11" stroke-miterlimit="22.9256" transform="matrix(0.00747735 0.0796491 -0.0880968 0.00827041 8.98563 22.026)" rx="8.37" ry="7.57"/>
    <ellipse fill="black" stroke="black" stroke-width="0.11" stroke-miterlimit="22.9256" transform="matrix(0.00747735 0.0796491 -0.0880968 0.00827041 16.0316 19.5898)" rx="8.37" ry="7.57"/>
   </g>
  </g>
 </g>
</svg>
