<?xml version="1.0" encoding="UTF-8"?>
<!DOCTYPE svg PUBLIC "-//W3C//DTD SVG 1.0//EN" "http://www.w3.org/TR/2001/REC-SVG-20010904/DTD/svg10.dtd">
<!-- Creator: CorelDRAW 2019 (64-Bit) -->
<svg xmlns="http://www.w3.org/2000/svg" xml:space="preserve" width="0.597403in" height="1in" version="1.0" shape-rendering="geometricPrecision" text-rendering="geometricPrecision" image-rendering="optimizeQuality" fill-rule="evenodd" clip-rule="evenodd"
viewBox="0 0 27.56 46.13"
 xmlns:xlink="http://www.w3.org/1999/xlink"
 xmlns:xodm="http://www.corel.com/coreldraw/odm/2003">
 <g id="Capa_x0020_1">
  <metadata id="CorelCorpID_0Corel-Layer"/>
  <g id="_2726392794384">
   <path fill="red" fill-rule="nonzero" stroke="black" stroke-width="0.21" stroke-miterlimit="4" d="M0.11 44.83c0,0 0,1.2 1.2,1.2l24.95 0c0,0 1.2,0 1.2,-1.2l0 -43.53c0,0 0,-1.2 -1.2,-1.2l-24.95 0c0,0 -1.2,0 -1.2,1.2l0 43.53z"/>
   <path fill="#030303" d="M14.22 23.56l2.25 0.03c-0.05,2.58 -0.06,5.23 -2.23,5.73l-0.02 -5.75zm-0.95 5.79c-2.09,-0.77 -2.11,-2.99 -2.17,-5.78l2.27 -0.01 -0.1 5.79zm0.95 -6.86c0,-1.74 -0.3,-4.22 0.23,-5.62 1.99,0.78 1.97,3.19 2.02,5.67l-2.25 -0.05zm-3.12 0.15c0.05,-2.57 -0.04,-5.19 2.26,-5.81l0 5.77 -2.26 0.04zm2.22 -6.84c-3.2,0.79 -4.1,3.11 -4.35,6.84 -1.43,0 -2.28,-0.4 -2.89,0.58 0.97,0.47 1.66,0.29 2.88,0.29 0.46,6.84 4.11,6.19 4.39,7.38 0,1.3 -0.23,1.49 0.4,2.37 0.8,-0.94 0.32,-0.64 0.54,-2.88 3.2,-1.09 4.05,-3.16 4.31,-6.87 1.27,0 1.87,0.17 2.88,-0.29 -0.65,-0.98 -1.41,-0.58 -2.88,-0.58 -0.23,-3.58 -1.15,-5.91 -4.35,-6.89 -0.05,-1.36 0.25,-2.02 -0.5,-2.87 -0.65,0.86 -0.39,1.67 -0.44,2.92z"/>
  </g>
 </g>
</svg>
