<?xml version="1.0" encoding="UTF-8"?>
<!DOCTYPE svg PUBLIC "-//W3C//DTD SVG 1.0//EN" "http://www.w3.org/TR/2001/REC-SVG-20010904/DTD/svg10.dtd">
<!-- Creator: CorelDRAW 2019 (64-Bit) -->
<svg xmlns="http://www.w3.org/2000/svg" xml:space="preserve" width="0.597403in" height="1in" version="1.0" shape-rendering="geometricPrecision" text-rendering="geometricPrecision" image-rendering="optimizeQuality" fill-rule="evenodd" clip-rule="evenodd"
viewBox="0 0 22.78 38.13"
 xmlns:xlink="http://www.w3.org/1999/xlink"
 xmlns:xodm="http://www.corel.com/coreldraw/odm/2003">
 <g id="Capa_x0020_1">
  <metadata id="CorelCorpID_0Corel-Layer"/>
  <g id="_2726411891376">
   <path fill="lime" fill-rule="nonzero" stroke="black" stroke-width="0.17" stroke-miterlimit="4" d="M0.09 37.05c0,0 0,0.99 0.99,0.99l20.62 0c0,0 0.99,0 0.99,-0.99l0 -35.97c0,0 0,-0.99 -0.99,-0.99l-20.62 0c0,0 -0.99,0 -0.99,0.99l0 35.97z"/>
   <g>
    <path fill="black" d="M10.8 25.76c0.24,-0 0.24,0.23 0.1,0.32 -0.12,0.08 -0.3,-0.09 -0.1,-0.32zm0.07 -0.13l0.01 -0.2c0.19,-0 0.24,0.01 0.24,0.2l-0.26 0.01zm-0.26 0.19c0.1,0.16 -0.11,0.39 -0.24,0.21 -0.1,-0.15 0.13,-0.38 0.24,-0.21zm-0.11 -0.18l0.02 -0.19c0.08,-0.03 0.2,-0.03 0.29,-0.02l-0.01 0.19 -0.3 0.02zm-0.38 0.11c0.28,0.09 0.12,0.35 -0.02,0.34 -0.08,-0.01 -0.12,-0.09 -0.12,-0.15 0,-0.12 0.06,-0.14 0.13,-0.19zm0.03 -0.1l0.01 -0.2 0.29 -0.01 -0.02 0.21 -0.28 -0.01zm-0.42 0.45c-0.19,-0.06 -0.08,-0.39 0.1,-0.32 0.18,0.07 0.06,0.37 -0.1,0.32zm0.04 -0.44l0.02 -0.18 0.3 -0.02 -0.01 0.2 -0.31 0.01zm-0.23 0.16c0.13,0.14 -0.07,0.39 -0.21,0.25 -0.13,-0.14 0.08,-0.4 0.21,-0.25zm1.3 -0.62l-0.29 -0 0.25 -2.98c0.1,-0.05 0.17,-0.05 0.27,-0.13 0.03,0.09 -0.03,0.68 -0.04,0.78 -0.03,0.4 -0.15,2.1 -0.19,2.33zm-1.44 0.46l0.03 -0.19 0.29 -0.01 -0.02 0.18 -0.3 0.02zm-0.2 0.17c0.1,0.15 -0.09,0.39 -0.23,0.22 -0.1,-0.13 0.11,-0.4 0.23,-0.22zm1.28 -0.62l-0.3 -0 0.29 -2.91 0.26 -0.04 -0.26 2.96zm-1.44 0.46l0.03 -0.19 0.28 0 -0.03 0.19 -0.28 -0zm-0.26 -0.15c0.02,-0.01 0.01,-0.01 0.04,-0.02l0.16 -0c0.01,0.07 0.01,0.13 -0.04,0.18 -0.09,-0.01 -0.11,-0.08 -0.16,-0.16zm1.35 -0.32c-0.09,0.01 -0.21,0.02 -0.31,0.01l0.31 -2.93c0.11,0.03 0.18,0.02 0.27,0.03l-0.28 2.89zm-0.38 0.01l-0.28 0.02 0.03 -0.36c0.01,-0.12 0.03,-0.26 0.05,-0.38 0.03,-0.26 0.06,-0.51 0.09,-0.77 0.03,-0.25 0.06,-0.51 0.09,-0.75 0.03,-0.25 0.05,-0.53 0.1,-0.78l0.26 0.1 -0.33 2.93zm1.79 -6.94c-0.02,0.12 -0,0.06 -0.05,0.08 -0.02,-0.01 -0.08,-0.01 -0.03,-0.07 0.02,-0.02 0.05,-0.01 0.08,-0.01zm-0.43 0.71c-0.02,-0.07 -0,-0.2 0.01,-0.28l0.24 0.04 -0.02 0.3 -0.23 -0.06zm0.38 -1.04c0,-0.09 -0.02,-0.06 0.05,-0.1 0.06,0.04 0.03,0 0.03,0.07l-0.08 0.03zm-0.35 0.43c0.04,-0.09 0.02,-0.07 0.12,-0.08 0.08,-0.01 0.09,-0.02 0.14,0.02 -0.02,0.07 -0.02,0.05 -0.11,0.06 -0.07,0.01 -0.08,0.01 -0.15,0.01zm-1.76 6.87l-0.28 0 0.43 -3.26c0.27,0.18 0.23,0.18 0.22,0.31 -0.07,0.49 -0.31,2.74 -0.36,2.96zm2.13 -7.73c0.02,-0.09 0.02,-0.09 0.11,-0.07 -0.04,0.1 -0.03,0.07 -0.11,0.07zm-0.72 1.46l0.03 -0.28 0.24 0 -0.03 0.29 -0.24 -0zm0.39 -1l0 -0.06 0.25 -0.04 -0.01 0.05c-0.05,0.06 -0.17,0.05 -0.24,0.05zm0.37 -0.88c0,-0.08 0.05,-0.11 0.1,-0.07 0,0.09 -0.02,0.07 -0.1,0.07zm-0.69 1.29c0,-0.04 -0.02,-0.07 0.16,-0.07l0.07 0.02c-0.02,0.07 -0.02,0.05 -0.11,0.06l-0.09 0.01c-0,-0 -0.02,-0.02 -0.03,-0.02zm0.36 -0.84c0.01,-0.07 0.01,-0.07 0.08,-0.08 0.05,-0.01 0.11,-0.01 0.17,-0 -0.03,0.07 -0.02,0.09 -0.25,0.08zm0.36 -0.92c0.02,-0.09 0.03,-0.1 0.12,-0.06 -0.03,0.09 -0.03,0.07 -0.12,0.06zm-1.06 2.1c0.05,-0.02 0.18,-0.04 0.26,-0.03l-0.04 0.29c-0.1,0 -0.16,0.03 -0.24,0.06 -0.02,-0.08 0,-0.24 0.02,-0.31zm0.61 -0.83c-0.01,0.07 -0.01,0.07 -0.08,0.08 -0.04,0.01 -0.12,0.02 -0.14,-0 -0.08,-0.08 0.2,-0.08 0.23,-0.08zm0.12 -0.79c0.04,-0.08 0.02,-0.06 0.11,-0.08 0.06,-0.01 0.09,-0.01 0.15,-0.01 -0.01,0.08 -0.01,0.07 -0.08,0.08 -0.05,0.01 -0.11,0.02 -0.17,0zm0.37 -0.98c0.03,-0.09 0.05,-0.1 0.14,-0.07 -0.04,0.1 -0.04,0.07 -0.14,0.07zm-0.68 1.42c0.03,-0.07 0.04,-0.07 0.23,-0.07l-0.01 0.06c-0.06,0.02 -0.17,0.04 -0.23,0.01zm-0.38 0.86c0.01,-0.07 0.11,-0.07 0.18,-0.07 0.14,0 0.04,-0.01 0.06,0.04 0.01,0.05 -0.21,0.05 -0.21,0.05 -0,-0 -0.03,-0.02 -0.03,-0.02zm0.74 -1.76c0.02,-0.09 0,-0.07 0.24,-0.09l0 0.06c-0.07,0.03 -0.15,0.04 -0.24,0.03zm-1.12 2.52l0.04 -0.34c0.09,-0.05 0.17,-0.08 0.25,-0.1 0.02,0.08 -0,0.23 -0.03,0.33 -0.1,0.03 -0.16,0.07 -0.26,0.11zm1.48 -3.56c0.03,-0.08 0.05,-0.1 0.14,-0.06 -0.03,0.09 -0.03,0.09 -0.14,0.06zm-0.68 1.52c0.03,-0.07 0.06,-0.09 0.24,-0.08 -0.02,0.08 -0.02,0.07 -0.09,0.08 -0.06,0.01 -0.09,0.02 -0.14,-0zm-0.12 0.79c-0.02,0.07 -0.01,0.07 -0.09,0.08 -0.03,0 -0.14,0.02 -0.16,-0 -0.07,-0.08 0.22,-0.08 0.25,-0.07zm0.48 -1.76c0.04,-0.11 -0.01,-0.07 0.11,-0.08 0.06,-0.01 0.09,-0.02 0.14,-0 -0.04,0.11 -0.15,0.09 -0.25,0.09zm-1.08 2.28c0.06,-0.09 0.17,-0.08 0.27,-0.07 -0.04,0.08 -0.03,0.07 -0.12,0.07 -0.05,0 -0.1,0.01 -0.16,-0zm-0.1 0.41c-0.01,0.07 -0.03,0.29 -0.05,0.34 -0.02,0.04 -0.19,0.17 -0.24,0.2 0.01,-0.31 0.02,-0.45 0.29,-0.54zm1.09 -2.26c-0.01,0.06 0.02,0.09 -0.15,0.09 -0.11,0 -0.16,-0.06 0.15,-0.09zm0.46 -1.49c0,-0.09 0.05,-0.08 0.13,-0.07 -0.03,0.08 0.01,0.04 -0.05,0.07 -0.04,0.02 -0.08,-0.01 -0.08,-0.01zm-0.9 1.84c-0,-0.06 0.02,-0.12 0.07,-0.16 0.06,0.03 0.09,0.04 0.05,0.12 -0.03,0.07 -0.06,0.06 -0.12,0.04zm0.57 -1.3c0.03,-0.06 0.02,-0.05 0.1,-0.06 0.05,-0.01 0.09,-0.01 0.14,-0.01 -0.02,0.09 -0.02,0.07 -0.1,0.08 -0.05,0.01 -0.13,0.03 -0.14,-0.01zm-0.71 1.54c0.03,-0.07 0.03,-0.09 0.26,-0.09 -0.02,0.09 -0.06,0.08 -0.26,0.09zm-0.35 0.84c0,-0.07 0.05,-0.06 0.24,-0.07 -0.01,0.07 -0,0.09 -0.19,0.09 -0.01,0 -0.01,0 -0.03,-0 -0,-0 -0.02,-0.02 -0.02,-0.02zm0.75 -1.82c0.01,-0.08 0.01,-0.07 0.08,-0.08 0.05,-0.01 0.09,-0.02 0.14,-0 -0.02,0.07 0.03,0.08 -0.23,0.08zm-1.09 2.27c0.04,-0.08 0.12,-0.08 0.24,-0.07 -0.03,0.06 -0.03,0.09 -0.24,0.07zm1.77 -3.93l0.01 -0.07 0.1 -0.01c-0.03,0.1 -0.02,0.09 -0.12,0.09zm-1.02 2.16c0.04,-0.07 0.02,-0.06 0.11,-0.07 0.06,-0.01 0.09,-0.01 0.15,-0.01 -0.01,0.07 -0.01,0.07 -0.09,0.08 -0.05,0.01 -0.11,0.01 -0.17,0zm-0.36 0.92c0.02,-0.08 0.02,-0.09 0.24,-0.08 0.05,0 0.03,-0.01 0.12,-0.03 0.07,-0.01 0.1,-0.01 0.16,-0.01 -0.02,0.07 -0.02,0.07 -0.09,0.08 -0.06,0.01 -0.1,0 -0.15,0.01 -0.14,0 0.11,-0.02 -0.03,0 -0.01,0 -0.02,0.01 -0.03,0.01 -0,0 -0.01,0 -0.02,0l-0.22 0.02zm1.07 -2.47l0.01 -0.07c0.05,-0.02 0.17,-0.04 0.22,-0.04l-0 0.06 -0.23 0.04zm-0.31 0.54c0.03,-0.1 -0.01,-0.06 0.1,-0.08 0.04,-0.01 0.08,-0.01 0.12,-0.01 -0.02,0.11 -0.14,0.1 -0.23,0.09zm-0.85 2.3c-0.02,0.05 -0.04,0.1 -0.18,0.08 -0.07,-0.01 -0.03,0.01 -0.05,-0.02 -0.02,-0.06 0.19,-0.06 0.23,-0.05zm0.14 -0.78c0.03,-0.08 0.02,-0.06 0.11,-0.07 0.08,-0.01 0.09,-0.02 0.14,0.01 -0.03,0.08 -0.14,0.07 -0.25,0.06zm0.5 -1.21c-0.01,-0.12 0.03,-0.16 0.14,-0.13 -0.01,0.1 -0.01,0.1 -0.08,0.16l-0.06 -0.03zm-0.12 0.21c0.03,-0.06 0,-0.04 0.1,-0.05 0.04,-0 0.1,-0.01 0.13,-0.02l0 0.06c-0.04,0.02 -0.07,0.02 -0.1,0.02 -0.14,0.02 -0.11,0.02 -0.13,-0.02zm1 -2.24c0.02,-0.09 0.04,-0.09 0.13,-0.08 -0.04,0.12 -0.01,0.06 -0.13,0.08zm-0.31 0.62c0.01,-0.05 -0.01,-0.08 0.15,-0.09 0.01,-0 0.03,-0 0.03,0 0.08,0.01 0.03,0.01 0.05,0.02 -0.02,0.07 -0.02,0.05 -0.1,0.07 -0.07,0.01 -0.07,0.01 -0.13,0zm-1.39 3.06c0.03,-0.08 0.01,-0.06 0.1,-0.07 0.05,-0 0.08,-0.01 0.12,0.01 -0.04,0.08 -0.16,0.06 -0.23,0.06zm1.3 -2.54c-0.01,0.05 0.01,0.08 -0.15,0.08 -0.07,0 -0.05,0.02 -0.06,-0.02 -0.02,-0.07 0.18,-0.07 0.21,-0.06zm-0.92 1.65c0.03,-0.1 0.01,-0.07 0.25,-0.09 -0.02,0.09 -0.03,0.07 -0.11,0.08 -0.05,0.01 -0.09,0.01 -0.14,0.01zm-0.33 0.5c0.04,-0.07 0.09,-0.09 0.23,-0.08 -0.04,0.1 -0.01,0.06 -0.23,0.08zm1.7 -3.86c0.02,-0.09 0.04,-0.08 0.13,-0.08 -0.02,0.14 -0.01,0.07 -0.13,0.08zm-0.31 0.63c0.02,-0.08 0.02,-0.07 0.09,-0.08 0.06,-0.01 0.08,-0.03 0.14,-0.01 -0.04,0.15 -0.02,0.04 -0.23,0.09zm-1 2.25c0.02,-0.05 0.02,-0.08 0.18,-0.08 0.07,-0 0.05,0.01 0.06,0.02 -0.01,0.07 -0.18,0.06 -0.24,0.06zm0.91 -1.73l-0 0.06c-0.21,0.1 -0.34,-0.05 0,-0.06zm-0.55 0.69l0.03 -0.07c0.16,0.01 0.14,-0.05 0.21,0 -0.02,0.08 0.01,0.04 -0.09,0.06 -0.08,0.01 -0.07,0.02 -0.15,0.01zm-0.67 1.54c0.01,-0.08 0.17,-0.06 0.21,-0.04 -0.06,0.12 -0.21,0.04 -0.21,0.04zm0.37 -1.01c0.03,-0.06 0.03,-0.04 0.1,-0.06 0.12,-0.02 0.11,0.01 0.18,-0.02l0.22 -0.03c-0.05,0.12 -0.15,0.08 -0.26,0.1l-0.1 0.02c-0,0 -0.06,0.01 -0.06,0.01 -0.04,0 -0.06,0.03 -0.07,-0.02zm1.31 -3.01c0.03,-0.1 0.05,-0.09 0.13,-0.08 -0.01,0.11 -0.04,0.09 -0.13,0.08zm-0.62 1.3c0.05,-0.1 0.16,-0.1 0.21,-0.08 -0.03,0.1 0.01,0.05 -0.08,0.07 -0.05,0.01 -0.08,0.02 -0.14,0zm-1.01 2.25c0.03,-0.07 0.08,-0.08 0.22,-0.07 -0.04,0.11 0.01,0.06 -0.09,0.07 -0.05,0.01 -0.08,0.01 -0.13,-0zm1.32 -2.87c0.01,-0.08 0.01,-0.07 0.08,-0.08 0.06,-0.01 0.08,-0.02 0.14,-0.01 -0.01,0.04 0.03,0.1 -0.23,0.09zm-0.69 1.79c-0.06,0.03 -0.17,0.06 -0.24,0.03 0.04,-0.1 0.12,-0.05 0.22,-0.09 0.02,0.03 0.02,0.02 0.03,0.06zm-0.55 0.6c0.02,-0.1 0.1,-0.07 0.2,-0.09l0 0.06 -0.2 0.03zm1.61 -3.72c0.04,-0.1 0.03,-0.08 0.13,-0.08 -0.02,0.08 -0.04,0.09 -0.13,0.08zm-0.3 0.69c0.01,-0.08 0.1,-0.09 0.22,-0.09 -0.03,0.11 -0.11,0.1 -0.22,0.09zm-0.3 0.66c0.02,-0.07 0.1,-0.08 0.2,-0.06 -0.03,0.08 -0.01,0.06 -0.09,0.08 -0.11,0.03 -0.09,-0.01 -0.11,-0.02zm-0.64 1.27c0.06,-0.13 0.06,-0.06 0.24,-0.09 0,-0 0.01,-0 0.01,-0l0.22 -0.02c-0.01,0.07 0.01,0.04 -0.08,0.06 -0.05,0.01 -0.08,0.01 -0.13,0.02 -0.03,0 -0.08,0.02 -0.13,0.02 -0.06,0.01 -0.09,0 -0.14,0.01zm-0.31 0.59c0.04,-0.08 0.01,-0.06 0.1,-0.08 0.05,-0.01 0.07,-0.01 0.11,-0.01 -0.01,0.1 -0.11,0.08 -0.21,0.08zm1.01 -2.47c0.04,-0.1 0.16,-0.09 0.19,-0.06 -0.02,0.09 -0.16,0.07 -0.19,0.06zm0.29 -0.68c0.02,-0.07 0.01,-0.07 0.08,-0.08 0.04,-0.01 0.1,-0.02 0.14,-0.02 -0.02,0.12 -0.13,0.09 -0.22,0.1zm0.43 -0.82c-0.01,0.05 -0,0.05 -0.03,0.07 -0.01,0.01 -0.05,0.02 -0.07,-0 -0.07,-0.07 0.07,-0.07 0.1,-0.07zm-1.34 2.81c0.03,-0.08 0.01,-0.06 0.1,-0.08l0.36 -0.07 -0 0.06c-0.06,0.02 -0.4,0.08 -0.46,0.08zm-0.3 0.58c0.03,-0.07 0.14,-0.07 0.2,-0.06 -0.03,0.09 0.01,0.05 -0.08,0.07 -0.05,0.01 -0.08,0.02 -0.12,-0.01zm0.79 -2.17c0,-0.07 0.02,-0.12 0.07,-0.16 0.06,0.03 0.07,0.05 0.05,0.12 -0.03,0.08 -0.05,0.06 -0.12,0.04zm0.2 -0.36c0.02,-0.1 -0,-0.06 0.07,-0.08 0.06,-0.02 0.07,-0.02 0.12,-0.01 -0.03,0.1 -0.12,0.09 -0.19,0.09zm-0.62 1.35c0.04,-0.11 0.14,-0.08 0.33,-0.12l0.1 -0c0,0 0.01,0.01 0.01,0.01 -0.02,0.08 0.04,0.04 -0.2,0.08 -0.09,0.01 -0.17,0.04 -0.25,0.04zm-0.31 0.63c0.04,-0.09 -0.01,-0.05 0.08,-0.07 0.05,-0.01 0.07,-0.01 0.12,-0.01 -0.04,0.09 0.03,0.06 -0.2,0.08zm1.22 -2.73c0.01,-0.08 0,-0.05 0.08,-0.07 0.08,-0.02 0.05,-0.03 0.12,-0.01 -0.03,0.11 -0.11,0.09 -0.2,0.08zm0.3 -0.75c0.01,-0.09 0.04,-0.11 0.12,-0.08 -0.03,0.09 -0.05,0.08 -0.12,0.08zm-1.44 2.88c0.02,-0.03 -0.01,-0.09 0.2,-0.07 -0.03,0.07 -0.01,0.05 -0.08,0.07 -0.02,0.01 -0.08,0.01 -0.12,0zm0.31 -0.66c0.03,-0.09 -0.01,-0.04 0.08,-0.07l0.31 -0.06c0.01,0 0.02,0 0.02,0l0.02 0.02c-0.01,0.08 -0.06,0.06 -0.19,0.08 -0.09,0.02 -0.15,0.05 -0.24,0.03zm0.6 -1.41c0.04,-0.09 0.12,-0.11 0.19,-0.08 -0.03,0.09 0.01,0.04 -0.08,0.07 -0.06,0.01 -0.06,0.01 -0.11,0.01zm0.3 -0.75c0,-0.08 0.04,-0.12 0.2,-0.1 -0.04,0.1 0.01,0.05 -0.09,0.08 -0.05,0.02 -0.07,0.01 -0.12,0.02zm0.29 -0.8c0.04,-0.08 0.03,-0.06 0.13,-0.07 -0.02,0.09 -0.04,0.11 -0.13,0.07zm-1.11 2.31c0.01,-0.05 0.01,-0.04 0.07,-0.05 0.04,-0.01 0.07,-0.01 0.13,-0.02 0.07,-0.02 0.16,-0.04 0.23,-0.04 -0.02,0.11 -0.03,0.07 -0.2,0.11 -0.25,0.05 -0.16,0.02 -0.22,0.02zm-0.31 0.71c0.04,-0.1 -0.01,-0.06 0.09,-0.08 0.01,-0 0.03,-0.01 0.05,-0.01l0.05 0.02c-0.01,0.06 -0.08,0.07 -0.18,0.07zm0.78 -1.76c-0.12,-0.04 -0.07,-0.16 0.04,-0.17 0.01,0.02 0.02,0.04 0.01,0.09 -0.02,0.08 -0,0.04 -0.05,0.08zm0.12 -0.4c0,-0.05 -0.03,-0.09 0.18,-0.1 -0.02,0.1 -0,0.06 -0.08,0.08 -0.05,0.02 -0.07,0.02 -0.11,0.02zm0.28 -0.79c0.02,-0.07 0.01,-0.06 0.07,-0.08 0.06,-0.02 0.09,-0.03 0.12,-0 0,0.1 -0.12,0.06 -0.19,0.09zm0.31 -0.78c-0.01,-0.05 -0.03,0.04 -0.01,-0.04 0.01,-0.06 0.11,-0.05 0.15,-0.06 -0.01,0.1 -0.05,0.09 -0.14,0.1zm-1.39 3.08c0.01,-0.06 0.05,-0.08 0.17,-0.06 -0.04,0.11 -0.06,0.07 -0.17,0.06zm0.28 -0.72c0.03,-0.07 0.02,-0.06 0.09,-0.08 0.03,-0.01 0.06,-0.01 0.11,-0.02 0.08,-0.02 0.13,-0.03 0.22,-0.04 -0.03,0.11 -0.31,0.13 -0.42,0.14zm0.59 -1.53c0.03,-0.1 0.1,-0.1 0.19,-0.09 -0.04,0.12 0.01,0.06 -0.07,0.08 -0.02,0.01 -0.09,0.01 -0.11,0.01zm0.4 -0.8c-0.05,0.01 -0.07,0.01 -0.11,0.02 -0.02,-0.11 0.11,-0.1 0.19,-0.11 -0.02,0.08 -0.01,0.07 -0.08,0.08zm-1.03 2.29c-0,0.09 -0.11,0.11 -0.15,0.07 0,-0.04 -0.04,-0.05 0.15,-0.07zm0.13 -0.67c0.01,-0.07 -0.01,-0.03 0.07,-0.06l0.33 -0.07c-0.05,0.1 -0.01,0.06 -0.31,0.13 -0.01,0 -0.04,0.01 -0.05,0.01 -0.04,0 -0.03,-0.02 -0.04,-0.02zm1.22 -2.55c-0.03,0.1 -0.07,0.07 -0.14,0.09 -0.02,-0.04 0.01,-0.07 0.04,-0.08 0.04,-0.02 0.06,-0.02 0.1,-0zm-0.76 1.41c-0.09,-0.05 -0.04,-0.11 0.01,-0.18 0.03,0.04 0.04,0 0.03,0.1 -0.01,0.09 -0,0.04 -0.04,0.08zm0.28 -0.51c-0.03,0.09 -0.09,0.09 -0.18,0.09 0.04,-0.1 0.09,-0.09 0.18,-0.09zm-0.78 1.63c-0.03,0.09 0.01,0.05 -0.08,0.08 -0.07,0.02 -0.01,0.01 -0.08,0.01 0.03,-0.09 0.1,-0.09 0.17,-0.08zm0.12 -0.72c0.05,-0.09 0.29,-0.13 0.4,-0.13 -0.04,0.1 -0.01,0.07 -0.09,0.08l-0.3 0.04zm0.87 -1.68c-0.06,0.02 -0.07,0.01 -0.09,-0.01 0,-0.09 0.12,-0.09 0.18,-0.08 -0.02,0.07 -0.03,0.07 -0.09,0.09zm0.33 -0.95c-0.02,0.09 -0.07,0.09 -0.15,0.09 0.03,-0.1 0.07,-0.1 0.15,-0.09zm-0.46 0.92c-0.02,0.04 -0.02,0.11 -0.17,0.08 0.03,-0.07 0.05,-0.1 0.17,-0.08zm-0.77 1.69c-0.04,0.08 -0.09,0.07 -0.16,0.07 0.03,-0.08 -0,-0.05 0.07,-0.07 0.03,-0.01 0.06,-0.01 0.1,0zm0.49 -0.85c-0.03,0.11 -0.08,0.08 -0.17,0.09 -0.06,0.01 -0.11,0.04 -0.21,0.04 0.05,-0.1 -0.03,-0.05 0.18,-0.1 0.09,-0.02 0.1,-0.04 0.2,-0.04zm0.55 -1.73c0.01,0.09 0.01,0.06 -0.06,0.09 -0.07,0.03 -0.06,0.03 -0.12,0.01 0.03,-0.11 0.08,-0.07 0.18,-0.1zm0.27 -0.89c-0.03,0.1 -0.06,0.09 -0.17,0.1 0.03,-0.11 0.08,-0.09 0.17,-0.1zm-1.23 2.73c-0.01,0.06 -0.08,0.07 -0.15,0.06 0.04,-0.08 0.1,-0.09 0.15,-0.06zm0.76 -1.76c-0.03,0.1 -0.06,0.08 -0.15,0.09 -0.02,-0.1 0.09,-0.1 0.15,-0.09zm-0.27 0.86c-0.03,0.1 -0.1,0.07 -0.17,0.09 -0.08,0.02 -0.1,0.03 -0.19,0.05 0.02,-0.09 0.04,-0.08 0.17,-0.09 0.02,-0 -0,0.01 0.04,-0.02 0.04,-0.02 -0.01,-0.01 0.04,-0.02 0.03,-0.01 0.07,-0.01 0.1,-0zm0.47 -1.67c-0.07,0.02 -0.03,0.02 -0.1,0.01 -0.01,-0.09 0.12,-0.11 0.18,-0.09 -0.03,0.08 0.01,0.04 -0.08,0.07zm-0.39 0.87c-0.04,0.1 -0.05,0.08 -0.16,0.09 0.04,-0.1 0.05,-0.09 0.16,-0.09zm-0.53 0.97c-0.07,0.02 -0.08,-0.02 -0.08,-0.02 0.02,-0.05 0.09,-0.06 0.14,-0.05 -0.02,0.07 0.01,0.05 -0.05,0.07zm1.35 -2.76c-0.22,-0.09 -0.11,-0.03 -0.26,-0.02l0.02 -0.13 0.15 -0.04c0.09,0.08 0.13,0.07 0.09,0.19zm-0.56 0.89c-0.03,0.09 -0.07,0.1 -0.16,0.09 0.04,-0.09 0.06,-0.08 0.16,-0.09zm-0.43 0.94c-0.05,0.1 0,0.06 -0.09,0.08 -0.03,0.01 -0.06,0.01 -0.09,0.01 0.04,-0.1 0.1,-0.09 0.18,-0.09zm1.22 -2.66c-0.07,-0.08 -0.09,-0.17 -0.16,-0.25l0.1 -0.08 0.12 0.27 -0.06 0.07zm-0.68 0.76l0.16 -0.04 -0.02 0.12 -0.15 0.04 0.01 -0.11zm-0.3 1.02c-0.03,0.09 -0.08,0.08 -0.14,0.08 0.02,-0.09 0.07,-0.09 0.14,-0.08zm-0.45 0.95c-0.03,0.07 -0.07,0.07 -0.14,0.08 0.03,-0.09 0.06,-0.09 0.14,-0.08zm1.57 -3.34c-0.04,-0.05 -0.13,-0.2 -0.15,-0.27l0.08 -0.08c0.05,0.06 0.05,0.08 0.09,0.17 0.05,0.11 0.08,0.07 -0.02,0.18zm0.09 -0.96l0.08 -0.09 0.13 0.28 -0.06 0.07 -0.15 -0.26zm-1.07 2.37l0.13 -0.03 -0.03 0.13 -0.11 0.02c-0.02,-0.04 -0.01,-0.07 0.01,-0.12zm-0.37 1.1c-0.04,0.01 -0.05,0.01 -0.08,-0.01 0.01,-0.08 0.07,-0.07 0.16,-0.08 -0.03,0.08 -0.02,0.07 -0.08,0.09zm0.33 -1.07l-0.03 0.12 -0.11 0.02c0.02,-0.12 0.04,-0.12 0.14,-0.14zm-0.44 1.03c-0.04,0.1 -0.04,0.07 -0.13,0.09 0.02,-0.09 0.06,-0.08 0.13,-0.09zm0.27 -0.89c-0.02,0.01 -0.05,0.02 -0.07,0.03 -0.06,0.02 -0.02,0.01 -0.08,0.01 0,-0.08 -0.02,-0.12 0.15,-0.14l-0.01 0.09zm-0.16 -0.03c-0.03,0.12 -0.02,0.09 -0.12,0.13 -0.01,-0.02 -0.03,0.03 -0.01,-0.06 0.02,-0.08 0.1,-0.06 0.12,-0.06zm-0.26 0.11c0.05,-0.08 0.01,-0.04 0.1,-0.07l-0.01 0.11 -0.08 -0.04zm0.15 -0.87l0.1 -0.11 0.17 0.18 -0.07 0.09 -0.19 -0.16zm0.26 -0.72l0.11 -0.11 0.18 0.16 -0.09 0.1 -0.19 -0.16zm0.18 -0.64l0.11 -0.11 0.18 0.16 -0.09 0.1 -0.19 -0.15zm-0.55 2.28l-0.14 1.19c-0.37,2.8 -0.7,5.67 -1.09,8.44l-0.39 3c-0.02,0.15 -0.04,0.47 -0.08,0.61 -0.03,0.11 -0.75,0.73 -0.63,1.73 0.06,0.49 0.26,0.63 0.3,0.74 0.02,0.06 -0.31,2.44 -0.34,2.72 -0.02,0.19 -0.05,0.44 -0.09,0.62 -0.18,0.01 -0.41,0.02 -0.6,0.03 -0.21,0.01 -0.41,0.04 -0.62,0.05 -0.08,0.14 -0.3,0.54 -0.32,0.66 0.2,0.13 0.27,-0.04 0.73,0.12 0.82,0.28 1.45,1 2.48,0.64 0.47,-0.17 1.39,-0.61 1.68,-0.68 0.41,-0.1 0.56,-0.05 0.67,-0.07l-0.15 -0.61c-0.03,-0.13 -0.07,-0.18 -0.24,-0.18l-1.04 -0.01c-0.21,-0 -0.5,0.02 -0.69,-0.01 -0.02,-0.13 0.04,-0.65 0.05,-0.83l0.13 -1.65c0.04,-0.63 -0.02,-0.59 0.21,-0.77 0.86,-0.65 1.27,-2.28 0.08,-2.88l0.02 -0.3 0.15 0.06 0.29 -3.4c0.12,-0.01 0.34,-0.06 0.56,-0.07 0.19,-0.01 0.39,-0.03 0.58,-0.01 0.09,-0.63 -0.89,-0.32 -1.01,-1.05 -0.05,-0.29 0.06,-1.12 0.09,-1.49 0.15,-2 0.35,-3.97 0.5,-5.96 0.06,-0.84 0.02,-0.75 0.63,-1.25 0.1,-0.08 0.18,-0.12 0.23,-0.26 0.04,-0.13 0.08,-0.33 0.17,-0.39 0.2,-0.13 0.16,0.07 0.34,0.02 0.15,-0.04 0.16,-0.12 0.26,-0.31 -0.06,-0.11 -0.06,-0.28 -0.25,-0.2 -0.28,0.11 -0.11,0.23 -0.31,0.26l0.13 -0.4c0.07,-0.02 0.12,-0.03 0.18,-0.06 0.14,0.08 0.14,0.1 0.27,0.04 0.04,-0.02 0.35,-0.29 0.03,-0.51 -0.04,0.02 -0.19,0.07 -0.21,0.09 -0.09,0.09 -0.03,0.18 -0.19,0.2l0.13 -0.37c0.06,-0.02 0.09,-0.02 0.14,-0.05 0.01,0.01 0.22,0.21 0.38,-0.06 0.11,-0.19 0.1,-0.3 -0.07,-0.41 -0.05,0.03 -0.18,0.07 -0.2,0.08 -0.06,0.05 -0.07,0.14 -0.17,0.22 -0,-0.01 -0.01,-0.02 -0.01,-0.02l-0.03 -0.13c-0.04,-0.24 -0.11,-0.26 -0.31,-0.25 -0.32,0.01 -0.33,-0.09 -0.62,0.03 -0.23,0.09 -0.37,0.14 -0.52,0.3 -0.16,0.17 -0.35,0.28 -0.52,0.31 -0.06,0.24 -0.02,0.39 -0.16,0.66 -0.15,0.3 0.01,0.39 -0.23,0.62 -0.11,0.1 -0.06,0.12 -0.09,0.28 -0.08,0.45 -0.57,0.72 -0.09,0.92z"/>
    <path fill="black" d="M12.07 15.53c0.55,-0 1.1,-0.02 1.68,0.07 0.82,0.12 1.11,0.24 1.41,0.88 0.17,0.36 0.25,1.02 0.23,1.55 -0.04,1.53 -0.55,2.53 -0.18,4.16l0.14 0.57c0.02,0.07 0.04,0.11 0.06,0.17l0.14 0.37c0.22,0.47 0.44,0.88 0.67,1.38l0.15 0.35c0.09,0.21 0.08,0.24 0.13,0.37 0.05,0.12 0.1,0.22 0.14,0.35 0.07,0.23 0.17,0.48 0.22,0.73 0.18,0.84 0.32,1.32 0.27,2.35 -0.07,1.63 -0.8,3.84 -2.27,4.84 -1.03,0.7 -1.84,0.58 -3.01,0.68 -0.11,0.01 -1.51,0.08 -1.59,0.12 0.36,0.04 2.22,0.06 2.73,0.07 0.53,0.01 0.36,0.05 0.88,-0.07 0.72,-0.16 0.98,-0.27 1.61,-0.5l0.59 -0.26c0.33,-0.16 0.58,-0.33 0.91,-0.56 1.07,-0.75 1.63,-2.22 1.73,-3.55 0.12,-1.43 -0.32,-2.67 -0.76,-3.75 -0.16,-0.39 -0.53,-1.15 -0.72,-1.53l-0.28 -0.58c-0.03,-0.07 -0.03,-0.13 -0.06,-0.19 -0.25,-0.59 -0.32,-1.44 -0.27,-2.15 0.08,-1.18 0.69,-2.72 0.08,-3.62 -0.1,-0.15 -0.44,-0.49 -0.6,-0.67 -0.2,-0.22 -0.4,-0.44 -0.61,-0.67 -0.57,-0.62 -0.84,-0.88 -1.64,-0.95 -0.39,-0.04 -1.42,-0.05 -1.77,0.05z"/>
    <path fill="black" d="M9.24 34.43l-1.43 -0.3c-1.54,-0.43 -2.83,-1.21 -3.38,-2.64 -0.58,-1.52 -0.16,-3.68 0.71,-5.66 0.76,-1.75 1.45,-2.49 1.7,-4.58 0.06,-0.51 0.05,-0.9 0.03,-1.36 -0.05,-1.05 0.26,-2.62 1.32,-3.24 0.09,-0.05 0.2,-0.11 0.28,-0.14 0.11,-0.05 0.21,-0.05 0.31,-0.1 0.23,-0.1 0.97,-0.32 1.19,-0.42 -0.2,0.03 -0.42,0.1 -0.62,0.15 -0.22,0.05 -0.44,0.1 -0.64,0.16 -0.35,0.1 -0.8,0.29 -1.14,0.64 -0.37,0.38 -0.61,0.88 -0.74,1.42 -0.1,0.42 -0.2,1.06 -0.18,1.45 0.01,0.22 0.03,0.43 0.03,0.67 -0,0.76 -0.1,1.47 -0.35,2.22 -0.66,2 -2.05,3.25 -2.39,6.26 -0.1,0.86 -0.02,1.7 0.25,2.49 0.17,0.49 0.38,0.88 0.75,1.29 0.73,0.8 1.77,1.24 2.82,1.47 0.25,0.05 0.5,0.1 0.75,0.13 0.14,0.02 0.66,0.06 0.71,0.08z"/>
    <path fill="#FEFEFE" d="M10.6 25.82c-0.1,-0.17 -0.34,0.06 -0.24,0.21 0.12,0.18 0.34,-0.05 0.24,-0.21z"/>
    <path fill="#FEFEFE" d="M9.53 25.82c-0.13,-0.15 -0.34,0.11 -0.21,0.25 0.13,0.14 0.33,-0.1 0.21,-0.25z"/>
    <path fill="#FEFEFE" d="M9.19 25.84c-0.12,-0.18 -0.33,0.09 -0.23,0.22 0.13,0.17 0.33,-0.07 0.23,-0.22z"/>
    <path fill="#FEFEFE" d="M9.73 26.1c0.16,0.05 0.28,-0.25 0.1,-0.32 -0.17,-0.07 -0.28,0.26 -0.1,0.32z"/>
    <path fill="#FEFEFE" d="M10.8 25.76c-0.2,0.23 -0.02,0.39 0.1,0.32 0.14,-0.08 0.14,-0.32 -0.1,-0.32z"/>
    <path fill="#FEFEFE" d="M10.12 25.75c-0.07,0.05 -0.13,0.07 -0.13,0.19 -0,0.06 0.03,0.14 0.12,0.15 0.14,0.01 0.3,-0.25 0.02,-0.34z"/>
    <polygon fill="#FEFEFE" points="10.43,25.65 10.45,25.44 10.16,25.45 10.15,25.64 "/>
    <path fill="#FEFEFE" d="M10.8 25.62l0.01 -0.19c-0.09,-0.01 -0.2,-0.01 -0.29,0.02l-0.02 0.19 0.3 -0.02z"/>
    <polygon fill="#FEFEFE" points="10.07,25.65 10.08,25.46 9.78,25.48 9.76,25.66 "/>
    <polygon fill="#FEFEFE" points="9.69,25.65 9.71,25.47 9.42,25.48 9.39,25.67 "/>
    <polygon fill="#FEFEFE" points="9.32,25.68 9.35,25.49 9.07,25.49 9.04,25.68 "/>
    <path fill="#FEFEFE" d="M11.12 25.62c-0,-0.19 -0.05,-0.2 -0.24,-0.2l-0.01 0.2 0.26 -0.01z"/>
    <polygon fill="#FEFEFE" points="12.03,4.72 12.13,4.62 11.95,4.46 11.85,4.56 "/>
    <path fill="#FEFEFE" d="M12.42 5.91c0.15,-0.01 0.04,-0.06 0.26,0.02 0.04,-0.12 -0.01,-0.11 -0.09,-0.19l-0.15 0.04 -0.02 0.13z"/>
    <polygon fill="#FEFEFE" points="12.23,4.08 12.31,3.98 12.14,3.82 12.03,3.93 "/>
    <path fill="#FEFEFE" d="M13.05 4.49c0.09,-0.11 0.07,-0.07 0.02,-0.18 -0.03,-0.08 -0.04,-0.1 -0.09,-0.17l-0.08 0.08c0.02,0.07 0.1,0.21 0.15,0.27z"/>
    <path fill="#FEFEFE" d="M10.57 17.63c0,-0 0.01,-0 0.02,-0 0.01,-0 0.02,-0.01 0.03,-0.01 0.14,-0.02 -0.11,0 0.03,-0 0.05,-0 0.09,0 0.15,-0.01 0.07,-0.01 0.07,-0.01 0.09,-0.08 -0.07,-0 -0.09,0 -0.16,0.01 -0.09,0.01 -0.07,0.03 -0.12,0.03 -0.22,-0.01 -0.22,0 -0.24,0.08l0.22 -0.02z"/>
    <polygon fill="#FEFEFE" points="11.78,5.44 11.86,5.35 11.69,5.17 11.59,5.29 "/>
    <path fill="#FEFEFE" d="M12.91 5.1l0.06 -0.07 -0.12 -0.27 -0.1 0.08c0.06,0.09 0.09,0.17 0.16,0.25z"/>
    <polygon fill="#FEFEFE" points="13.29,3.8 13.35,3.72 13.22,3.45 13.14,3.53 "/>
    <path fill="#FEFEFE" d="M10.76 14.18c0.06,0 0.4,-0.06 0.46,-0.08l0 -0.06 -0.36 0.07c-0.08,0.02 -0.07,-0 -0.1,0.08z"/>
    <path fill="#FEFEFE" d="M10.67 15.73c-0.07,0.01 -0.07,-0 -0.1,0.06 0.01,0.05 0.03,0.02 0.07,0.02 0,0 0.06,-0.01 0.06,-0.01l0.1 -0.02c0.12,-0.02 0.22,0.02 0.26,-0.1l-0.22 0.03c-0.06,0.02 -0.06,-0 -0.18,0.02z"/>
    <path fill="#FEFEFE" d="M10.9 12.96c0.1,0.01 0.15,-0.01 0.24,-0.03 0.13,-0.02 0.18,0 0.19,-0.08l-0.02 -0.02c-0,-0 -0.02,-0 -0.02,-0l-0.31 0.06c-0.09,0.02 -0.05,-0.02 -0.08,0.07z"/>
    <path fill="#FEFEFE" d="M10.83 13.58c0.08,-0 0.16,-0.02 0.25,-0.04 0.24,-0.04 0.18,-0 0.2,-0.08 -0,-0 -0.01,-0.01 -0.01,-0.01l-0.1 0c-0.19,0.04 -0.3,0.01 -0.33,0.12z"/>
    <path fill="#FEFEFE" d="M11.05 12.25c-0.06,0.01 -0.06,0.01 -0.07,0.05 0.05,0.01 -0.03,0.04 0.22,-0.02 0.18,-0.04 0.18,0.01 0.2,-0.11 -0.07,0 -0.15,0.02 -0.23,0.04 -0.06,0.01 -0.08,0.01 -0.13,0.02z"/>
    <path fill="#FEFEFE" d="M11.05 11.64c0.12,-0 0.39,-0.02 0.42,-0.14 -0.09,0.01 -0.14,0.02 -0.22,0.04 -0.05,0.01 -0.07,0.01 -0.11,0.02 -0.07,0.02 -0.06,0.01 -0.09,0.08z"/>
    <path fill="#FEFEFE" d="M10.69 14.74c0.05,-0.01 0.07,-0 0.14,-0.01 0.05,-0.01 0.09,-0.02 0.13,-0.02 0.05,-0.01 0.07,-0.01 0.13,-0.02 0.09,-0.02 0.07,0.02 0.08,-0.06l-0.22 0.02c-0,0 -0.01,0 -0.01,0 -0.18,0.02 -0.18,-0.04 -0.24,0.09z"/>
    <path fill="#FEFEFE" d="M8.77 25.53c0.04,0.08 0.07,0.15 0.16,0.16 0.05,-0.05 0.06,-0.11 0.04,-0.18l-0.16 0c-0.04,0.01 -0.03,0.01 -0.04,0.02z"/>
    <path fill="#FEFEFE" d="M11.22 10.87c-0.08,0.02 -0.06,-0.01 -0.07,0.06 0.01,0 0.01,0.02 0.04,0.02 0,-0 0.04,-0.01 0.05,-0.01 0.3,-0.07 0.26,-0.02 0.31,-0.13l-0.33 0.07z"/>
    <path fill="#FEFEFE" d="M11.69 9.32c-0.1,-0 -0.11,0.02 -0.2,0.04 -0.21,0.05 -0.14,-0 -0.18,0.1 0.1,0.01 0.15,-0.03 0.21,-0.04 0.09,-0.02 0.14,0.01 0.17,-0.09z"/>
    <path fill="#FEFEFE" d="M11.62 10.06c-0.11,0 -0.34,0.04 -0.4,0.13l0.3 -0.04c0.08,-0.02 0.06,0.01 0.09,-0.08z"/>
    <path fill="#FEFEFE" d="M11.77 8.52c-0.03,-0.01 -0.06,-0.01 -0.1,0 -0.05,0.02 -0.01,0 -0.04,0.02 -0.05,0.02 -0.02,0.01 -0.04,0.02 -0.13,0.01 -0.15,-0 -0.17,0.09 0.08,-0.01 0.11,-0.03 0.19,-0.05 0.07,-0.02 0.14,0.01 0.17,-0.09z"/>
    <path fill="#FEFEFE" d="M11.29 17.48c-0.07,0.01 -0.08,0.01 -0.08,0.08 0.23,0.01 0.22,-0.01 0.25,-0.08 -0.06,-0.01 -0.12,-0.01 -0.17,0z"/>
    <path fill="#FEFEFE" d="M11.35 17.05c-0.09,0.01 -0.07,-0 -0.11,0.08 0.06,0.01 0.13,0 0.17,-0 0.07,-0.01 0.07,-0.01 0.08,-0.08 -0.05,-0 -0.09,0 -0.15,0.01z"/>
    <path fill="#FEFEFE" d="M11.13 18.38c0.07,0 0.08,-0 0.15,-0.01 0.09,-0.01 0.09,0.01 0.11,-0.06 -0.04,-0.04 -0.06,-0.03 -0.14,-0.02 -0.11,0.01 -0.09,-0.01 -0.12,0.08z"/>
    <path fill="#FEFEFE" d="M10.95 16.07c0.07,-0.06 0.07,-0.07 0.08,-0.16 -0.11,-0.03 -0.15,0.01 -0.14,0.13l0.06 0.03z"/>
    <polygon fill="#FEFEFE" points="12.22,5.97 12.38,5.93 12.39,5.81 12.23,5.85 "/>
    <path fill="#FEFEFE" d="M11.32 16.19c0.1,0 0.21,0.02 0.25,-0.09 -0.06,-0.01 -0.09,-0 -0.14,0 -0.11,0.01 -0.07,-0.02 -0.11,0.08z"/>
    <path fill="#FEFEFE" d="M11.43 17.87l-0.25 0.04 -0 0.06c0.07,-0 0.19,0.01 0.24,-0.05l0.01 -0.05z"/>
    <path fill="#FEFEFE" d="M10.73 18.36c-0.07,-0 -0.17,0 -0.18,0.07 0.01,0 0.03,0.02 0.03,0.02 0,0 0.22,0 0.21,-0.05 -0.02,-0.05 0.08,-0.04 -0.06,-0.04z"/>
    <path fill="#FEFEFE" d="M11.65 13.37c-0.07,0.02 -0.07,0 -0.08,0.08 0.25,0.01 0.21,-0.05 0.23,-0.09 -0.06,-0.02 -0.08,-0.01 -0.14,0.01z"/>
    <path fill="#FEFEFE" d="M11.28 16.67c0.09,0.01 0.17,0 0.24,-0.03l-0 -0.06c-0.24,0.02 -0.21,0.01 -0.24,0.09z"/>
    <path fill="#FEFEFE" d="M10.87 16.8c-0.05,0.05 -0.07,0.1 -0.07,0.16 0.06,0.02 0.09,0.03 0.12,-0.04 0.04,-0.08 0.01,-0.09 -0.05,-0.12z"/>
    <path fill="#FEFEFE" d="M10.75 18.03c0.08,-0.01 0.07,-0.01 0.09,-0.08 -0.03,-0 -0.32,-0 -0.25,0.07 0.02,0.02 0.12,0.01 0.16,0z"/>
    <path fill="#FEFEFE" d="M10.55 17.98c-0.19,0.01 -0.24,0 -0.24,0.07 0.01,0 0.02,0.02 0.02,0.02 0.02,0 0.01,0 0.03,0 0.18,-0 0.18,-0.02 0.19,-0.09z"/>
    <path fill="#FEFEFE" d="M10.66 17.21c0.2,-0 0.24,-0 0.26,-0.09 -0.23,-0 -0.22,0.02 -0.26,0.09z"/>
    <path fill="#FEFEFE" d="M11.46 14.61c0.06,0.01 0.06,0.01 0.13,-0 0.08,-0.01 0.07,0 0.1,-0.07 -0.02,-0.01 0.04,-0.01 -0.05,-0.02 -0.01,-0 -0.03,-0 -0.03,-0 -0.16,0.01 -0.14,0.04 -0.15,0.09z"/>
    <path fill="#FEFEFE" d="M11.04 18c0.07,-0.01 0.07,-0.01 0.08,-0.08 -0.03,-0 -0.3,-0 -0.23,0.08 0.02,0.02 0.11,0.01 0.14,0z"/>
    <path fill="#FEFEFE" d="M10.52 18.4c-0.11,-0.01 -0.22,-0.02 -0.27,0.07 0.06,0.01 0.11,0.01 0.16,0 0.09,-0.01 0.07,0 0.12,-0.07z"/>
    <path fill="#FEFEFE" d="M10.82 16.67c-0.08,0.01 -0.07,-0 -0.11,0.07 0.06,0.01 0.11,0.01 0.17,-0 0.08,-0.01 0.07,-0.01 0.09,-0.08 -0.05,-0 -0.09,0 -0.15,0.01z"/>
    <path fill="#FEFEFE" d="M11.47 15.6c-0.08,0.01 -0.07,-0 -0.1,0.06 0.02,0.04 0.1,0.02 0.14,0.01 0.08,-0.01 0.07,0 0.1,-0.08 -0.05,-0 -0.09,0.01 -0.14,0.01z"/>
    <path fill="#FEFEFE" d="M11.14 16.15c-0.08,0.01 -0.07,-0 -0.08,0.08 0.26,-0 0.2,-0.02 0.23,-0.08 -0.05,-0.01 -0.09,-0.01 -0.14,0z"/>
    <path fill="#FEFEFE" d="M11.32 12.43c-0.05,0.04 -0.07,0.09 -0.07,0.16 0.07,0.02 0.09,0.04 0.12,-0.04 0.03,-0.07 0.01,-0.09 -0.05,-0.12z"/>
    <path fill="#FEFEFE" d="M11.01 18.33c-0.18,0 -0.16,0.03 -0.16,0.07 0.01,0 0.02,0.02 0.03,0.02l0.09 -0.01c0.09,-0.01 0.09,0.01 0.11,-0.06l-0.07 -0.02z"/>
    <path fill="#FEFEFE" d="M10.39 17.24c0.12,0.01 0.22,0.01 0.25,-0.06 -0.05,-0.03 -0.06,-0.02 -0.14,-0.01 -0.09,0.01 -0.08,-0.01 -0.11,0.07z"/>
    <path fill="#FEFEFE" d="M11.16 17.5c-0.2,0.01 -0.21,-0 -0.23,0.07 0.06,0.03 0.17,0.01 0.23,-0.01l0.01 -0.06z"/>
    <path fill="#FEFEFE" d="M11.2 17.08c-0.18,-0.01 -0.21,0.01 -0.24,0.08 0.06,0.02 0.09,0.01 0.14,0 0.08,-0.01 0.07,0.01 0.09,-0.08z"/>
    <path fill="#FEFEFE" d="M10.87 16.19c-0.1,0.01 -0.07,-0.01 -0.1,0.05 0.01,0.04 -0.02,0.04 0.13,0.02 0.04,-0.01 0.06,-0.01 0.1,-0.02l-0 -0.06c-0.03,0.01 -0.09,0.01 -0.13,0.02z"/>
    <path fill="#FEFEFE" d="M10.87 15.25c0.08,0.02 0.07,0.01 0.15,-0.01 0.1,-0.02 0.07,0.02 0.09,-0.06 -0.07,-0.05 -0.05,0.01 -0.21,-0l-0.03 0.07z"/>
    <path fill="#FEFEFE" d="M10.45 16.78c0.05,-0 0.09,-0.01 0.14,-0.01 0.08,-0.01 0.09,0.01 0.11,-0.08 -0.24,0.02 -0.22,-0.01 -0.25,0.09z"/>
    <path fill="#FEFEFE" d="M10.5 16.3c0.06,0.01 0.23,0.02 0.24,-0.06 -0.01,-0.01 0.01,-0.02 -0.06,-0.02 -0.16,0 -0.16,0.03 -0.18,0.08z"/>
    <path fill="#FEFEFE" d="M11.6 13.96c-0.07,0.02 -0.07,0 -0.09,0.08 0.21,-0.05 0.19,0.05 0.23,-0.09 -0.06,-0.01 -0.08,-0 -0.14,0.01z"/>
    <path fill="#FEFEFE" d="M11.42 15.12l-0.01 0.07 0.23 -0.04 0 -0.06c-0.05,-0 -0.17,0.02 -0.22,0.04z"/>
    <path fill="#FEFEFE" d="M11.08 16.71c0.17,-0 0.14,-0.03 0.15,-0.09 -0.31,0.03 -0.26,0.09 -0.15,0.09z"/>
    <path fill="#FEFEFE" d="M11.1 15.72c0.09,0.01 0.21,0.02 0.23,-0.09 -0.04,0 -0.08,0.01 -0.12,0.01 -0.11,0.02 -0.07,-0.02 -0.1,0.08z"/>
    <path fill="#FEFEFE" d="M11.84 12.73c-0.12,-0 -0.21,0 -0.22,0.09 0.11,0.02 0.19,0.02 0.22,-0.09z"/>
    <path fill="#FEFEFE" d="M11.22 15.22c0.16,-0 0.14,-0.04 0.15,-0.08 -0.03,-0.01 -0.23,-0.01 -0.21,0.06 0.01,0.04 -0.01,0.02 0.06,0.02z"/>
    <path fill="#FEFEFE" d="M12.01 10.7c-0.17,-0.02 -0.2,0.02 -0.2,0.1 0.04,-0 0.06,-0 0.12,-0.02 0.1,-0.03 0.05,0.02 0.09,-0.08z"/>
    <path fill="#FEFEFE" d="M10.87 15.25c-0.01,-0.04 -0.01,-0.02 -0.03,-0.06 -0.1,0.05 -0.17,-0.01 -0.22,0.09 0.08,0.02 0.19,-0 0.24,-0.03z"/>
    <path fill="#FEFEFE" d="M12.06 6.02l0.11 -0.02 0.03 -0.13 -0.13 0.03c-0.01,0.06 -0.03,0.09 -0.01,0.12z"/>
    <path fill="#FEFEFE" d="M11.72 6.12c0.06,-0.01 0.02,0.01 0.08,-0.01 0.02,-0.01 0.05,-0.02 0.07,-0.03l0.01 -0.09c-0.17,0.02 -0.15,0.05 -0.15,0.14z"/>
    <path fill="#FEFEFE" d="M11.42 14.56c-0.35,0.02 -0.22,0.16 -0,0.06l0 -0.06z"/>
    <path fill="#FEFEFE" d="M11.75 12.1c-0.07,0.02 -0.06,0.02 -0.08,0.08 0.09,-0.02 0.2,0.02 0.22,-0.1 -0.04,0 -0.11,0.01 -0.14,0.02z"/>
    <path fill="#FEFEFE" d="M10.07 18.1c0.14,0.02 0.16,-0.03 0.18,-0.08 -0.04,-0 -0.25,-0.01 -0.23,0.05 0.01,0.04 -0.02,0.02 0.05,0.02z"/>
    <path fill="#FEFEFE" d="M11.46 11.24c0.05,-0.05 0.03,0 0.05,-0.08 0.01,-0.04 -0,-0.07 -0.01,-0.09 -0.11,0.01 -0.16,0.13 -0.04,0.17z"/>
    <path fill="#FEFEFE" d="M11.82 11.41c-0.08,0.02 -0.07,-0.01 -0.08,0.07 0.09,0.01 0.17,0.04 0.2,-0.08 -0.07,-0.02 -0.04,-0.01 -0.12,0.01z"/>
    <path fill="#FEFEFE" d="M11.47 14.01c-0.06,-0.02 -0.16,-0.02 -0.21,0.08 0.05,0.01 0.09,0.01 0.14,-0 0.09,-0.02 0.05,0.02 0.08,-0.07z"/>
    <path fill="#FEFEFE" d="M9.96 18.5c0.21,0.02 0.21,-0.01 0.24,-0.07 -0.12,-0.02 -0.2,-0.01 -0.24,0.07z"/>
    <path fill="#FEFEFE" d="M11.53 13.41c-0.1,-0.01 -0.19,-0.01 -0.2,0.06 0.02,0 -0,0.04 0.11,0.02 0.08,-0.02 0.06,0 0.09,-0.08z"/>
    <path fill="#FEFEFE" d="M10.46 16.26c-0.14,-0.01 -0.18,0.01 -0.22,0.07 0.05,0.01 0.08,0.01 0.13,0 0.1,-0.01 0.05,0.03 0.09,-0.07z"/>
    <path fill="#FEFEFE" d="M10.12 17.28c0.22,-0.02 0.19,0.02 0.23,-0.08 -0.14,-0.01 -0.19,0 -0.23,0.08z"/>
    <path fill="#FEFEFE" d="M11.94 9.33c0.04,-0.01 0.06,-0.01 0.11,-0.02 0.06,-0.02 0.06,-0.01 0.08,-0.08 -0.08,0 -0.21,-0 -0.19,0.11z"/>
    <path fill="#FEFEFE" d="M10.07 17.68c0.07,0 0.18,0.03 0.23,-0.06 -0.05,-0.02 -0.08,-0.02 -0.12,-0.01 -0.09,0.01 -0.07,-0.01 -0.1,0.07z"/>
    <path fill="#FEFEFE" d="M11.45 12.23c0.07,0 0.16,0 0.19,-0.09 -0.05,-0.01 -0.06,-0.01 -0.12,0.01 -0.07,0.02 -0.05,-0.02 -0.07,0.08z"/>
    <path fill="#FEFEFE" d="M11.93 9.97c-0.06,0.02 -0.06,0.01 -0.07,0.08 0.07,-0.03 0.19,0.02 0.19,-0.09 -0.03,-0.02 -0.05,-0.02 -0.12,0z"/>
    <path fill="#FEFEFE" d="M11.76 10.74c-0.21,0.01 -0.18,0.05 -0.18,0.1 0.04,-0 0.05,-0 0.11,-0.02 0.07,-0.02 0.05,0.01 0.08,-0.08z"/>
    <path fill="#FEFEFE" d="M12.24 7.59c-0.1,0.03 -0.14,-0.01 -0.18,0.1 0.06,0.02 0.05,0.01 0.12,-0.01 0.06,-0.03 0.06,0 0.06,-0.09z"/>
    <path fill="#FEFEFE" d="M10.37 15.33c0.1,-0 0.2,0.02 0.21,-0.08 -0.04,-0 -0.06,-0 -0.11,0.01 -0.09,0.02 -0.05,-0 -0.1,0.08z"/>
    <path fill="#FEFEFE" d="M11.58 12.81c-0.03,-0.03 -0.16,-0.05 -0.19,0.06 0.03,0.01 0.17,0.03 0.19,-0.06z"/>
    <path fill="#FEFEFE" d="M12.01 8.5c0.02,0.02 0.02,0.02 0.09,0.01 0.06,-0.02 0.07,-0.02 0.09,-0.09 -0.06,-0 -0.18,-0 -0.18,0.08z"/>
    <path fill="#FEFEFE" d="M11.89 6.07l0.11 -0.02 0.03 -0.12c-0.1,0.02 -0.12,0.02 -0.14,0.14z"/>
    <path fill="#FEFEFE" d="M12.14 6.86c0.07,0 0.03,0.01 0.1,-0.01 0.09,-0.03 0.05,0.01 0.08,-0.07 -0.06,-0.02 -0.19,-0.01 -0.18,0.09z"/>
    <path fill="#FEFEFE" d="M10.4 16.75c-0.04,-0.02 -0.2,-0.03 -0.21,0.04 0,0 0.15,0.07 0.21,-0.04z"/>
    <path fill="#FEFEFE" d="M10.79 13.54c-0.21,-0.02 -0.18,0.04 -0.2,0.07 0.04,0.01 0.1,0 0.12,-0 0.07,-0.02 0.04,-0 0.08,-0.07z"/>
    <path fill="#FEFEFE" d="M11.65 10.11c0.02,0 0.09,-0 0.11,-0.01 0.08,-0.03 0.03,0.03 0.07,-0.08 -0.09,-0.01 -0.15,-0 -0.19,0.09z"/>
    <path fill="#FEFEFE" d="M11.51 11.55c0.05,-0.01 0.05,0 0.11,-0.01 0.09,-0.02 0.05,0.02 0.08,-0.07 -0.07,-0.03 -0.15,-0.01 -0.19,0.08z"/>
    <path fill="#FEFEFE" d="M10.51 15.76c-0.09,0.02 -0.18,-0.01 -0.2,0.09l0.2 -0.03 -0 -0.06z"/>
    <path fill="#FEFEFE" d="M10.52 14.22c0.23,-0.02 0.16,0.01 0.2,-0.08 -0.05,0 -0.07,0 -0.12,0.01 -0.09,0.02 -0.05,-0.02 -0.08,0.07z"/>
    <path fill="#FEFEFE" d="M11.58 6.17c0.1,-0.03 0.09,-0 0.12,-0.13 -0.03,0 -0.11,-0.01 -0.12,0.06 -0.02,0.1 -0,0.04 0.01,0.06z"/>
    <path fill="#FEFEFE" d="M12.16 9.23c-0.02,0.09 -0,-0.01 0.01,0.04 0.09,-0.01 0.14,-0 0.14,-0.1 -0.05,0 -0.14,0 -0.15,0.06z"/>
    <path fill="#FEFEFE" d="M11.61 9.78c0.04,-0.04 0.03,0.01 0.04,-0.08 0.02,-0.1 0,-0.06 -0.03,-0.1 -0.05,0.07 -0.1,0.13 -0.01,0.18z"/>
    <path fill="#FEFEFE" d="M10.65 14.7c-0.06,-0.01 -0.17,-0.01 -0.2,0.06 0.04,0.03 0.07,0.02 0.12,0.01 0.09,-0.02 0.05,0.02 0.08,-0.07z"/>
    <path fill="#FEFEFE" d="M11.97 8.47c-0.13,-0.02 -0.14,0.01 -0.17,0.08 0.15,0.03 0.15,-0.04 0.17,-0.08z"/>
    <path fill="#FEFEFE" d="M12.51 6.7c-0.09,0.01 -0.14,-0 -0.17,0.1 0.11,-0.01 0.14,0 0.17,-0.1z"/>
    <path fill="#FEFEFE" d="M11.88 7.76c0.1,-0.01 0.12,0.01 0.15,-0.09 -0.06,-0.01 -0.18,-0.01 -0.15,0.09z"/>
    <path fill="#FEFEFE" d="M10.68 13.01c0.1,0 0.16,-0 0.18,-0.07l-0.05 -0.02c-0.01,-0 -0.04,0 -0.05,0.01 -0.1,0.02 -0.05,-0.03 -0.09,0.08z"/>
    <path fill="#FEFEFE" d="M11.69 7.76c-0.08,0 -0.15,-0 -0.18,0.09 0.03,-0 0.06,-0.01 0.09,-0.01 0.1,-0.03 0.05,0.02 0.09,-0.08z"/>
    <path fill="#FEFEFE" d="M10.94 12.29c-0.12,-0.02 -0.16,0 -0.17,0.06 0.11,0.01 0.13,0.04 0.17,-0.06z"/>
    <path fill="#FEFEFE" d="M11.89 9.27c-0.09,0 -0.14,-0.01 -0.18,0.09 0.09,0 0.15,0 0.18,-0.09z"/>
    <path fill="#FEFEFE" d="M12.22 8.46c0.08,-0.02 0.11,0.01 0.14,-0.09 -0.04,-0.02 -0.06,-0.02 -0.1,0 -0.03,0.01 -0.06,0.04 -0.04,0.08z"/>
    <path fill="#FEFEFE" d="M11.62 6.99c0.03,0.01 0.03,0.02 0.08,0.01 0.07,-0.01 0.06,-0.01 0.08,-0.09 -0.09,0.01 -0.15,0 -0.16,0.08z"/>
    <path fill="#FEFEFE" d="M10.87 11.67c0.04,0.04 0.15,0.02 0.15,-0.07 -0.2,0.02 -0.15,0.03 -0.15,0.07z"/>
    <path fill="#FEFEFE" d="M12.12 6.82c-0.11,0.01 -0.12,-0 -0.16,0.09 0.09,0.01 0.14,-0 0.16,-0.09z"/>
    <path fill="#FEFEFE" d="M11.11 10.9c-0.07,-0 -0.14,-0.01 -0.17,0.08 0.07,0 0.01,0.01 0.08,-0.01 0.09,-0.02 0.05,0.01 0.08,-0.08z"/>
    <path fill="#FEFEFE" d="M11.85 7.71c-0.11,-0 -0.12,-0.01 -0.16,0.09 0.11,-0.01 0.12,0.01 0.16,-0.09z"/>
    <path fill="#FEFEFE" d="M12.43 7.55c-0.08,-0.01 -0.12,-0.01 -0.15,0.09 0.08,-0 0.12,-0 0.15,-0.09z"/>
    <path fill="#FEFEFE" d="M11.78 15.57c-0.09,-0.03 -0.1,-0.02 -0.14,0.06 0.11,0.03 0.11,0.03 0.14,-0.06z"/>
    <path fill="#FEFEFE" d="M11.87 12.78c0.09,0 0.12,0.03 0.13,-0.08 -0.08,-0 -0.1,-0.02 -0.13,0.08z"/>
    <path fill="#FEFEFE" d="M11.61 16.15c0.1,0.01 0.11,0.03 0.14,-0.07 -0.1,-0.03 -0.11,-0.02 -0.14,0.07z"/>
    <path fill="#FEFEFE" d="M11.83 15.06c-0.08,-0.01 -0.12,-0.02 -0.13,0.07 0,0 0.03,0.03 0.08,0.01 0.06,-0.03 0.02,0.01 0.05,-0.07z"/>
    <path fill="#FEFEFE" d="M11.95 13.33c-0.09,0 -0.11,-0.01 -0.13,0.08 0.12,-0.02 0.11,0.05 0.13,-0.08z"/>
    <path fill="#FEFEFE" d="M11.2 10.17c-0.03,-0.01 -0.07,-0.01 -0.1,-0 -0.07,0.02 -0.04,-0.01 -0.07,0.07 0.07,0 0.12,0.01 0.16,-0.07z"/>
    <path fill="#FEFEFE" d="M11.69 16.58c-0.09,-0.04 -0.11,-0.03 -0.12,0.06 0.09,0.01 0.09,0.03 0.12,-0.06z"/>
    <path fill="#FEFEFE" d="M12.16 10.66c-0.08,-0.03 -0.11,-0.01 -0.12,0.08 0.07,0 0.1,0.02 0.12,-0.08z"/>
    <path fill="#FEFEFE" d="M12.05 12.05c-0.11,-0 -0.09,-0.02 -0.13,0.08 0.09,0.01 0.11,0 0.13,-0.08z"/>
    <path fill="#FEFEFE" d="M11.28 9.43c-0.05,-0.04 -0.11,-0.03 -0.15,0.06 0.07,0.01 0.14,0 0.15,-0.06z"/>
    <path fill="#FEFEFE" d="M11.91 13.92c-0.09,-0.01 -0.11,-0.01 -0.13,0.08 0.12,-0.01 0.09,0.05 0.13,-0.08z"/>
    <path fill="#FEFEFE" d="M11.24 8.66c0,0 0.01,0.04 0.08,0.02 0.06,-0.02 0.04,0 0.05,-0.07 -0.05,-0.01 -0.12,-0.01 -0.14,0.05z"/>
    <path fill="#FEFEFE" d="M12.22 9.92c-0.1,0.01 -0.09,-0.01 -0.13,0.07 0.09,0.03 0.11,0.01 0.13,-0.07z"/>
    <path fill="#FEFEFE" d="M11.93 6.87c-0.07,-0.01 -0.11,-0.01 -0.14,0.08 0.06,-0 0.11,0.01 0.14,-0.08z"/>
    <path fill="#FEFEFE" d="M12.07 11.44c0.03,-0.02 0.02,-0.03 0.03,-0.07 -0.03,0 -0.17,0 -0.1,0.07 0.02,0.02 0.06,0.01 0.07,0z"/>
    <path fill="#FEFEFE" d="M11.85 14.49l-0.1 0.01 -0.01 0.07c0.09,0 0.09,0.01 0.12,-0.09z"/>
    <path fill="#FEFEFE" d="M11.64 17.03c-0.05,-0.04 -0.1,-0.02 -0.1,0.07 0.08,0 0.1,0.02 0.1,-0.07z"/>
    <path fill="#FEFEFE" d="M11.48 7.82c-0.08,-0.02 -0.11,-0.02 -0.14,0.08 0.07,-0 0.11,-0 0.14,-0.08z"/>
    <path fill="#FEFEFE" d="M11.5 17.52c0.09,0.01 0.08,0.03 0.11,-0.07 -0.09,-0.02 -0.09,-0.03 -0.11,0.07z"/>
    <path fill="#FEFEFE" d="M11.59 6.97c-0.08,0.01 -0.11,-0 -0.13,0.09 0.09,-0.02 0.09,0.02 0.13,-0.09z"/>
    <path fill="#FEFEFE" d="M11.48 18.36c0.05,-0.03 0.03,0.04 0.05,-0.08 -0.03,0 -0.06,-0.01 -0.08,0.01 -0.06,0.06 0.01,0.06 0.03,0.07z"/>
    <path fill="#FEFEFE" d="M11.53 17.85c-0.07,0.04 -0.05,0.01 -0.05,0.1l0.08 -0.03c0,-0.07 0.03,-0.03 -0.03,-0.07z"/>
    <path fill="#FEFEFE" d="M11.52 6.19l0.01 -0.11c-0.08,0.03 -0.05,-0.01 -0.1,0.07l0.08 0.04z"/>
   </g>
  </g>
 </g>
</svg>
