<?xml version="1.0" encoding="UTF-8"?>
<!DOCTYPE svg PUBLIC "-//W3C//DTD SVG 1.0//EN" "http://www.w3.org/TR/2001/REC-SVG-20010904/DTD/svg10.dtd">
<!-- Creator: CorelDRAW 2019 (64-Bit) -->
<svg xmlns="http://www.w3.org/2000/svg" xml:space="preserve" width="0.597403in" height="1in" version="1.0" shape-rendering="geometricPrecision" text-rendering="geometricPrecision" image-rendering="optimizeQuality" fill-rule="evenodd" clip-rule="evenodd"
viewBox="0 0 27.6 46.2"
 xmlns:xlink="http://www.w3.org/1999/xlink"
 xmlns:xodm="http://www.corel.com/coreldraw/odm/2003">
 <g id="Capa_x0020_1">
  <metadata id="CorelCorpID_0Corel-Layer"/>
  <g id="_2726392770576">
   <path fill="blue" fill-rule="nonzero" stroke="black" stroke-width="0.21" stroke-miterlimit="4" d="M0.11 44.89c0,0 0,1.2 1.2,1.2l24.99 0c0,0 1.2,0 1.2,-1.2l0 -43.59c0,0 0,-1.2 -1.2,-1.2l-24.99 0c0,0 -1.2,0 -1.2,1.2l0 43.59z"/>
   <path fill="black" d="M15.96 25.84c-1.71,0.33 -3.28,3.07 -2.43,4.74 0.09,0.18 0.19,0.26 0.3,0.39 -0.21,0.36 -0.33,0.78 -0.4,1.19 -0.18,0.98 -0.34,1.43 -1.04,2.21 -0.84,0.93 -2.29,0.87 -3.35,0.57 -0.48,-0.14 -0.85,-0.28 -1.28,-0.51 -0.15,-0.08 -0.26,-0.15 -0.42,-0.22 0.1,-0.25 1.6,-2.4 1.71,-2.53 0.39,-0.45 0.5,-0.66 1.05,-1.15 0.51,-0.45 0.61,-0.47 0.95,-0.75 0.22,-0.18 0.12,-0.15 0.04,-0.3l3.32 -5.09c0.07,-0.11 0.11,-0.16 0.18,-0.28l0.74 -1.13c0.08,-0.12 0.1,-0.19 0.18,-0.31 0.23,-0.35 0.57,-0.77 0.74,-1.12 0.09,-0.18 0.64,-1.01 0.77,-1.14 0.1,0.1 0.18,0.17 0.28,0.27 0.71,0.78 1.18,1.87 0.91,2.91 -0.11,0.43 -0.31,0.69 -0.62,0.97 -0.4,0.37 -0.69,0.38 -1.19,1.12 -0.15,0.23 -0.13,0.09 -0.42,0.15zm-5.1 3.53l-0.17 -0.09c0.11,-0.26 4.21,-6.37 4.52,-6.83l1.31 -2c0.05,-0.08 0.13,-0.26 0.22,-0.25 0.11,0.02 -0.03,0.17 -0.09,0.24l-1.31 2.01c-0.22,0.44 -0.55,0.78 -0.82,1.27l-2.36 3.62c-0.22,0.4 -0.49,0.77 -0.75,1.15 -0.09,0.13 -0.1,0.19 -0.18,0.31 -0.1,0.16 -0.28,0.45 -0.4,0.56zm-0.4 -0.24l-0.18 -0.13c0.08,-0.19 3.85,-5.64 4.64,-6.81 0.26,-0.39 0.48,-0.77 0.79,-1.13 0.15,-0.18 0.71,-1.12 0.78,-1.07 0.07,0.05 -0.87,1.35 -0.98,1.54 -0,0.01 -0.01,0.02 -0.01,0.02 -0.39,0.71 -1.74,2.49 -1.99,3 -0.31,0.61 -1.6,2.29 -2.07,3.15l-0.98 1.43zm-0.41 -0.28l-0.2 -0.15c0.33,-0.33 0.74,-1.08 0.98,-1.37 0.33,-0.4 0.5,-0.72 0.79,-1.13l2.16 -3.06c0.14,-0.2 0.25,-0.37 0.38,-0.57l0.41 -0.55c0.14,-0.2 0.25,-0.37 0.38,-0.57l1.08 -1.53c0.11,-0.12 0,-0.07 0.17,-0.12 -0.01,0.17 -0.74,1.19 -0.9,1.41 -0.02,0.03 -0.02,0.03 -0.05,0.07 -0.01,0.01 -0.01,0.02 -0.02,0.02l-0.15 0.19c-0.41,0.58 -1.67,2.55 -1.93,2.85 -0.37,0.42 -1.51,2.27 -2.13,3.08 -0.25,0.33 -0.72,1.17 -0.98,1.43zm-0.33 -0.29c-0.3,-0.02 -0.16,-0.13 -0.35,0.53 -0.28,0.99 -0.48,1.34 -0.92,2.17 -0.24,0.46 -0.55,0.86 -0.84,1.29l-0.87 1.27c-0.06,-0.12 -0.2,-0.19 -0.3,-0.29 -0.37,-0.34 -0.56,-0.53 -0.89,-0.95 -1.09,-1.4 -1.34,-2.91 -0.07,-4.29 0.69,-0.76 1.03,-0.69 1.74,-1.38 0.08,-0.08 0.15,-0.17 0.23,-0.24 0.34,0.1 0.59,0.2 1.05,0.11 1.5,-0.29 3.23,-2.35 2.9,-4.01 -0.07,-0.37 -0.19,-0.2 0.03,-0.51 0.17,-0.23 0.34,-0.68 0.41,-0.95 0.06,-0.22 0.06,-0.32 0.14,-0.53 0.73,-2 3.48,-1.44 3.89,-1.06l-5.42 7.73c-0.13,0.16 -0.68,0.96 -0.74,1.12zm9.84 -17.61c0.05,0.28 0.22,0.4 0.41,0.47l0.31 -0.26 1 0.69 -0.78 1.18c-0.15,-0.15 -0.33,-0.24 -0.51,-0.36l-0.44 -0.28c-0.07,-0.05 -0.02,-0.01 -0.07,-0.05 0.31,-0.74 -0.47,-0.58 -0.55,-0.54 -0.39,0.18 -0.48,0.66 -0.2,0.96 0.21,0.23 0.36,0.07 0.53,-0.1l1.01 0.66c-0.09,0.2 -0.34,0.53 -0.47,0.73l-2.27 3.18c-0.19,0.29 -1.09,1.59 -1.27,1.76 -0.43,-0.03 -1.15,-0.65 -2.76,-0.33 -1.32,0.26 -2.05,1.12 -2.32,2.18 -0.03,0.12 -0.03,0.2 -0.07,0.32 -0.12,0.38 -0.3,0.92 -0.73,1.03 -0.18,0.05 -0.18,-0.05 -0.19,0.21 0.51,0.21 0.58,0.59 0.48,1.12 -0.09,0.49 -0.34,0.88 -0.62,1.28 -0.44,0.62 -0.98,1.07 -1.85,1.24 -0.48,0.09 -0.58,-0.23 -0.77,-0.48 -0.12,0.09 -0.09,0.03 -0.21,0.09 -0.23,0.12 -0.07,0.47 -0.88,1.03 -0.11,0.08 -0.23,0.16 -0.35,0.23 -0.47,0.28 -0.9,0.62 -1.24,1.06 -0.32,0.42 -0.55,0.87 -0.75,1.35 -0.22,0.54 -0.13,1.19 -0.02,1.78 0.29,1.46 1.56,2.79 2.68,3.55 1.11,0.75 2.89,1.47 4.3,1.19l0.46 -0.09c1.39,-0.27 2.34,-1.75 2.63,-2.9 0.16,-0.64 0.18,-1.38 0.67,-1.87 0.19,-0.18 0.07,-0.19 0.12,-0.41 -0.32,-0.08 -0.77,-0.03 -0.81,-0.88 -0.02,-0.51 0.09,-0.94 0.26,-1.32 0.24,-0.58 0.59,-1.07 1.08,-1.46 0.46,-0.36 0.93,-0.51 1.36,-0.08 0.2,-0.15 0.17,0.01 0.12,-0.23 -0.14,-0.71 1.03,-1.28 1.41,-1.69 1.33,-1.45 0.69,-3.6 -0.58,-4.87 -0.09,-0.09 -0.18,-0.15 -0.23,-0.25l3.08 -4.89c0.08,-0.13 0.16,-0.21 0.22,-0.35l1.03 0.68c-0.04,0.09 -0.11,0.22 -0.08,0.36 0.06,0.33 1.14,0.38 0.96,-0.54 -0.04,-0.19 -0.22,-0.31 -0.35,-0.37 -0.13,0.06 -0.22,0.14 -0.31,0.22l-1.01 -0.66 0.76 -1.16 1.02 0.67c-0.04,0.13 -0.09,0.25 -0.09,0.38 0.41,0.42 1.12,0.08 1,-0.55 -0.03,-0.16 -0.25,-0.39 -0.39,-0.36 -0.14,0.03 -0.24,0.14 -0.31,0.22l-1.02 -0.7c0.19,-0.19 0.29,-0.43 0.45,-0.65 0.15,-0.21 0.08,0.01 0.33,-0.17 0.13,-0.09 0.23,-0.18 0.33,-0.28l-0.24 -0.18c0.07,-0.21 0.28,-0.62 0.29,-0.78 -0.12,-0.05 -0.18,-0.07 -0.3,-0.15 -0.11,-0.07 -0.17,-0.16 -0.29,-0.21 -0.22,0.11 -0.4,0.38 -0.57,0.55 -0.14,-0.06 -0.15,-0.13 -0.3,-0.14 -0.01,0.17 -0.09,0.26 -0.12,0.42 -0.04,0.28 0.14,0.15 -0.08,0.37l-1.01 -0.66c0.04,-0.08 0.12,-0.26 0.1,-0.35 -0.06,-0.32 -0.73,-0.27 -0.92,0.01 -0.05,0.08 -0.13,0.31 -0.1,0.43z"/>
  </g>
 </g>
</svg>
