<?xml version="1.0" encoding="UTF-8"?>
<!DOCTYPE svg PUBLIC "-//W3C//DTD SVG 1.0//EN" "http://www.w3.org/TR/2001/REC-SVG-20010904/DTD/svg10.dtd">
<!-- Creator: CorelDRAW 2019 (64-Bit) -->
<svg xmlns="http://www.w3.org/2000/svg" xml:space="preserve" width="0.597403in" height="1in" version="1.0" shape-rendering="geometricPrecision" text-rendering="geometricPrecision" image-rendering="optimizeQuality" fill-rule="evenodd" clip-rule="evenodd"
viewBox="0 0 20.43 34.19"
 xmlns:xlink="http://www.w3.org/1999/xlink"
 xmlns:xodm="http://www.corel.com/coreldraw/odm/2003">
 <g id="Capa_x0020_1">
  <metadata id="CorelCorpID_0Corel-Layer"/>
  <g id="_2666938432496">
   <path fill="lime" fill-rule="nonzero" stroke="black" stroke-width="0.16" stroke-miterlimit="4" d="M0.08 33.23c0,0 0,0.89 0.89,0.89l18.49 0c0,0 0.89,0 0.89,-0.89l0 -32.26c0,0 0,-0.89 -0.89,-0.89l-18.49 0c0,0 -0.89,0 -0.89,0.89l0 32.26z"/>
   <path fill="black" fill-rule="nonzero" stroke="black" stroke-width="0.03" stroke-miterlimit="22.9256" d="M8.77 13c-0.17,0.22 0.66,0.33 2.49,0.33 0.27,0 0.47,-0.07 0.58,-0.22 0.12,-0.14 0.25,-0.54 0.4,-1.19l0.38 0 -0.18 2.29 -4.92 0 0 -0.3 1.6 -1.82c0.89,-0.97 1.42,-1.58 1.6,-1.83 0.26,-0.36 0.44,-0.7 0.56,-1.03 0.12,-0.33 0.17,-0.63 0.17,-0.91 0,-0.45 -0.12,-0.8 -0.37,-1.06 -0.25,-0.26 -0.59,-0.39 -1.04,-0.39 -0.5,0 -0.9,0.12 -1.22,0.36 -0.31,0.24 -0.47,0.49 -0.47,0.76 0,0.09 0.02,0.16 0.07,0.21 0.05,0.05 0.14,0.09 0.29,0.13 0.37,0.09 0.56,0.3 0.56,0.65 0,0.19 -0.06,0.34 -0.19,0.46 -0.12,0.12 -0.28,0.18 -0.48,0.18 -0.22,0 -0.42,-0.1 -0.59,-0.31 -0.17,-0.21 -0.25,-0.48 -0.25,-0.81 0,-0.37 0.1,-0.71 0.29,-1.02 0.19,-0.31 0.48,-0.56 0.87,-0.75 0.39,-0.2 0.81,-0.3 1.25,-0.3 0.44,0 0.86,0.1 1.24,0.29 0.38,0.19 0.66,0.44 0.86,0.75 0.19,0.31 0.29,0.65 0.29,1.01 0,0.25 -0.05,0.51 -0.14,0.77 -0.1,0.26 -0.24,0.5 -0.42,0.73 -0.32,0.39 -0.64,0.73 -0.97,1.01l-1.45 1.22c-0.37,0.31 -0.63,0.57 -0.8,0.79zm2.52 7.12l0.36 0 0 5.2 1.26 0 0 0.47 -1.26 0 0 1.17c0,0.1 0.04,0.19 0.12,0.25 0.12,0.08 0.25,0.13 0.41,0.13l0.47 0 0 0.42 -3.06 0 0 -0.42 0.57 0c0.19,0 0.33,-0.04 0.42,-0.12 0.09,-0.08 0.14,-0.2 0.14,-0.35l0 -1.07 -3.11 0 0 -0.53 3.69 -5.14zm-0.58 1.5l-2.66 3.7 2.66 0 0 -3.7z"/>
  </g>
 </g>
</svg>
