<?xml version="1.0" encoding="UTF-8"?>
<!DOCTYPE svg PUBLIC "-//W3C//DTD SVG 1.0//EN" "http://www.w3.org/TR/2001/REC-SVG-20010904/DTD/svg10.dtd">
<!-- Creator: CorelDRAW 2019 (64-Bit) -->
<svg xmlns="http://www.w3.org/2000/svg" xml:space="preserve" width="0.597403in" height="1in" version="1.0" shape-rendering="geometricPrecision" text-rendering="geometricPrecision" image-rendering="optimizeQuality" fill-rule="evenodd" clip-rule="evenodd"
viewBox="0 0 24.09 40.32"
 xmlns:xlink="http://www.w3.org/1999/xlink"
 xmlns:xodm="http://www.corel.com/coreldraw/odm/2003">
 <g id="Capa_x0020_1">
  <metadata id="CorelCorpID_0Corel-Layer"/>
  <g id="_2667092634208">
   <path fill="yellow" fill-rule="nonzero" stroke="black" stroke-width="0.18" stroke-miterlimit="4" d="M0.09 39.18c0,0 0,1.05 1.05,1.05l21.81 0c0,0 1.05,0 1.05,-1.05l0 -38.04c0,0 0,-1.05 -1.05,-1.05l-21.81 0c0,0 -1.05,0 -1.05,1.05l0 38.04z"/>
   <path fill="black" fill-rule="nonzero" stroke="black" stroke-width="0.04" stroke-miterlimit="22.9256" d="M13.26 7.67l0.42 0 0 6.13 1.49 0 0 0.56 -1.49 0 0 1.38c0,0.12 0.05,0.22 0.14,0.29 0.14,0.1 0.3,0.15 0.48,0.15l0.55 0 0 0.49 -3.6 0 0 -0.49 0.67 0c0.23,0 0.39,-0.05 0.5,-0.14 0.11,-0.1 0.16,-0.24 0.16,-0.42l0 -1.26 -3.67 0 0 -0.63 4.35 -6.06zm-0.68 1.77l-3.13 4.36 3.13 0 0 -4.36zm0.68 14.22l0.42 0 0 6.13 1.49 0 0 0.56 -1.49 0 0 1.38c0,0.12 0.05,0.22 0.14,0.29 0.14,0.1 0.3,0.15 0.48,0.15l0.55 0 0 0.49 -3.6 0 0 -0.49 0.67 0c0.23,0 0.39,-0.05 0.5,-0.14 0.11,-0.1 0.16,-0.24 0.16,-0.42l0 -1.26 -3.67 0 0 -0.63 4.35 -6.06zm-0.68 1.77l-3.13 4.36 3.13 0 0 -4.36z"/>
  </g>
 </g>
</svg>
