<?xml version="1.0" encoding="UTF-8"?>
<!DOCTYPE svg PUBLIC "-//W3C//DTD SVG 1.0//EN" "http://www.w3.org/TR/2001/REC-SVG-20010904/DTD/svg10.dtd">
<!-- Creator: CorelDRAW 2019 (64-Bit) -->
<svg xmlns="http://www.w3.org/2000/svg" xml:space="preserve" width="0.597403in" height="1in" version="1.0" shape-rendering="geometricPrecision" text-rendering="geometricPrecision" image-rendering="optimizeQuality" fill-rule="evenodd" clip-rule="evenodd"
viewBox="0 0 26.47 44.32"
 xmlns:xlink="http://www.w3.org/1999/xlink"
 xmlns:xodm="http://www.corel.com/coreldraw/odm/2003">
 <g id="Capa_x0020_1">
  <metadata id="CorelCorpID_0Corel-Layer"/>
  <g id="_2667009478176">
   <path fill="red" fill-rule="nonzero" stroke="black" stroke-width="0.2" stroke-miterlimit="4" d="M0.1 43.06c0,0 0,1.15 1.15,1.15l23.97 0c0,0 1.15,0 1.15,-1.15l0 -41.81c0,0 0,-1.15 -1.15,-1.15l-23.97 0c0,0 -1.15,0 -1.15,1.15l0 41.81z"/>
   <path fill="black" fill-rule="nonzero" stroke="black" stroke-width="0.04" stroke-miterlimit="22.9256" d="M14.5 30.28c0.76,0.28 1.31,0.63 1.65,1.08 0.34,0.45 0.51,0.98 0.51,1.61 0,0.77 -0.24,1.43 -0.73,2 -0.63,0.74 -1.53,1.1 -2.7,1.1 -1.03,0 -1.85,-0.25 -2.45,-0.75 -0.6,-0.49 -0.9,-1.11 -0.9,-1.85 0,-0.56 0.17,-1.04 0.52,-1.46 0.34,-0.42 0.94,-0.77 1.78,-1.06 -1.25,-0.54 -1.88,-1.36 -1.88,-2.49 0,-0.73 0.28,-1.35 0.85,-1.88 0.56,-0.52 1.28,-0.79 2.14,-0.79 0.59,0 1.11,0.1 1.55,0.31 0.44,0.2 0.77,0.48 1.01,0.83 0.23,0.35 0.35,0.72 0.35,1.1 0,0.89 -0.56,1.63 -1.69,2.23zm-0.55 -0.19c0.5,-0.29 0.83,-0.57 1,-0.84 0.17,-0.28 0.26,-0.64 0.26,-1.09 0,-0.59 -0.17,-1.05 -0.51,-1.37 -0.34,-0.32 -0.83,-0.48 -1.47,-0.48 -0.62,0 -1.11,0.15 -1.45,0.45 -0.35,0.3 -0.52,0.69 -0.52,1.18 0,0.48 0.15,0.86 0.45,1.14 0.3,0.29 1.05,0.62 2.23,1.02zm-1.24 1.06c-0.67,0.29 -1.14,0.6 -1.4,0.96 -0.26,0.36 -0.39,0.79 -0.39,1.31 0,0.67 0.2,1.2 0.6,1.57 0.4,0.37 0.97,0.56 1.72,0.56 0.79,0 1.4,-0.19 1.84,-0.56 0.44,-0.37 0.66,-0.86 0.66,-1.48 0,-0.56 -0.19,-0.98 -0.57,-1.26 -0.38,-0.29 -1.19,-0.65 -2.45,-1.1zm-1.4 -17.52c0.37,-0.5 0.76,-0.85 1.17,-1.06 0.41,-0.21 0.86,-0.32 1.35,-0.32 0.79,0 1.45,0.27 1.99,0.8 0.53,0.53 0.8,1.21 0.8,2.03 0,0.98 -0.32,1.8 -0.95,2.45 -0.63,0.65 -1.42,0.98 -2.35,0.98 -0.66,0 -1.24,-0.18 -1.75,-0.52 -0.51,-0.35 -0.93,-0.89 -1.26,-1.63 -0.33,-0.74 -0.49,-1.6 -0.49,-2.59 0,-1.07 0.2,-2.04 0.6,-2.9 0.4,-0.87 0.91,-1.52 1.53,-1.96 0.62,-0.43 1.27,-0.65 1.95,-0.65 0.7,0 1.29,0.19 1.77,0.57 0.4,0.31 0.61,0.68 0.61,1.11 0,0.29 -0.09,0.53 -0.27,0.71 -0.18,0.19 -0.39,0.28 -0.65,0.28 -0.24,0 -0.44,-0.08 -0.61,-0.23 -0.17,-0.16 -0.25,-0.34 -0.25,-0.55 0,-0.14 0.06,-0.3 0.17,-0.48 0.1,-0.17 0.15,-0.29 0.15,-0.39 0,-0.13 -0.06,-0.24 -0.19,-0.33 -0.17,-0.11 -0.41,-0.16 -0.71,-0.16 -0.46,0 -0.88,0.14 -1.26,0.43 -0.38,0.29 -0.7,0.79 -0.97,1.49 -0.27,0.7 -0.4,1.5 -0.4,2.38 0,0.13 0.01,0.32 0.02,0.58zm2.13 -0.68c-0.59,0 -1.08,0.21 -1.46,0.64 -0.38,0.43 -0.57,1.03 -0.57,1.81 0,0.85 0.18,1.49 0.55,1.94 0.37,0.45 0.83,0.67 1.4,0.67 0.56,0 1.01,-0.21 1.35,-0.63 0.34,-0.42 0.51,-1.05 0.51,-1.89 0,-0.89 -0.16,-1.53 -0.48,-1.93 -0.31,-0.4 -0.75,-0.6 -1.32,-0.6z"/>
  </g>
 </g>
</svg>
