<?xml version="1.0" encoding="UTF-8"?>
<!DOCTYPE svg PUBLIC "-//W3C//DTD SVG 1.0//EN" "http://www.w3.org/TR/2001/REC-SVG-20010904/DTD/svg10.dtd">
<!-- Creator: CorelDRAW 2019 (64-Bit) -->
<svg xmlns="http://www.w3.org/2000/svg" xml:space="preserve" width="0.58685in" height="0.474031in" version="1.0" shape-rendering="geometricPrecision" text-rendering="geometricPrecision" image-rendering="optimizeQuality" fill-rule="evenodd" clip-rule="evenodd"
viewBox="0 0 5.33 4.31"
 xmlns:xlink="http://www.w3.org/1999/xlink"
 xmlns:xodm="http://www.corel.com/coreldraw/odm/2003">
 <g id="Capa_x0020_1">
  <metadata id="CorelCorpID_0Corel-Layer"/>
  <g id="_2119292953920">
   <path fill="yellow" fill-rule="nonzero" fill-opacity="0.949020" d="M2.67 0c0.59,0 1.13,0.24 1.52,0.63 0.39,0.39 0.63,0.93 0.63,1.52 0,0.59 -0.24,1.13 -0.63,1.52 -0.39,0.39 -0.93,0.63 -1.52,0.63 -0.59,0 -1.13,-0.24 -1.52,-0.63 -0.39,-0.39 -0.63,-0.93 -0.63,-1.52 0,-0.59 0.24,-1.13 0.63,-1.52 0.39,-0.39 0.93,-0.63 1.52,-0.63zm1.39 0.76c-0.36,-0.36 -0.85,-0.58 -1.39,-0.58 -0.54,0 -1.03,0.22 -1.39,0.58 -0.36,0.36 -0.58,0.85 -0.58,1.39 0,0.54 0.22,1.03 0.58,1.39 0.36,0.36 0.85,0.58 1.39,0.58 0.54,0 1.03,-0.22 1.39,-0.58 0.36,-0.36 0.58,-0.85 0.58,-1.39 0,-0.54 -0.22,-1.03 -0.58,-1.39z"/>
   <path fill="yellow" fill-rule="nonzero" fill-opacity="0.949020" d="M4.84 2.01c0.02,-0.01 0.03,-0.03 0.04,-0.05 0.01,-0.02 0.01,-0.04 0.01,-0.07 0,-0.02 -0.01,-0.05 -0.01,-0.07 -0.01,-0.02 -0.02,-0.04 -0.04,-0.05l0.08 -0.09c0.03,0.03 0.05,0.06 0.07,0.09 0.02,0.04 0.03,0.07 0.03,0.11 0,0.04 -0.01,0.08 -0.03,0.11 -0.02,0.04 -0.04,0.07 -0.07,0.09l-0.08 -0.09z"/>
   <path fill="yellow" fill-rule="nonzero" fill-opacity="0.949020" d="M4.93 2.13c0.04,-0.03 0.06,-0.07 0.08,-0.11 0.02,-0.04 0.03,-0.09 0.03,-0.13 0,-0.05 -0.01,-0.09 -0.03,-0.13 -0.02,-0.04 -0.05,-0.08 -0.08,-0.11l0.08 -0.09c0.05,0.04 0.09,0.09 0.11,0.15 0.03,0.06 0.04,0.12 0.04,0.18 0,0.06 -0.01,0.13 -0.04,0.18 -0.03,0.06 -0.07,0.11 -0.11,0.15l-0.08 -0.09z"/>
   <path fill="yellow" fill-rule="nonzero" fill-opacity="0.949020" d="M5.04 2.25c0.05,-0.04 0.1,-0.1 0.13,-0.16 0.03,-0.06 0.04,-0.13 0.04,-0.2 0,-0.07 -0.02,-0.14 -0.04,-0.2 -0.03,-0.06 -0.07,-0.12 -0.13,-0.16l0.08 -0.09c0.07,0.06 0.12,0.13 0.16,0.2 0.04,0.08 0.06,0.16 0.06,0.25 0,0.09 -0.02,0.17 -0.06,0.25 -0.04,0.08 -0.09,0.15 -0.16,0.2l-0.08 -0.09z"/>
   <path fill="yellow" fill-rule="nonzero" fill-opacity="0.949020" d="M0.42 2.1c-0.03,-0.03 -0.05,-0.06 -0.07,-0.09 -0.02,-0.03 -0.03,-0.07 -0.03,-0.11 0,-0.04 0.01,-0.08 0.03,-0.11 0.02,-0.04 0.04,-0.07 0.07,-0.09l0.08 0.09c-0.02,0.01 -0.03,0.03 -0.04,0.05 -0.01,0.02 -0.01,0.04 -0.01,0.07 0,0.02 0.01,0.05 0.01,0.07 0.01,0.02 0.02,0.04 0.04,0.05l-0.08 0.09z"/>
   <path fill="yellow" fill-rule="nonzero" fill-opacity="0.949020" d="M0.32 2.22c-0.05,-0.04 -0.09,-0.09 -0.11,-0.15 -0.03,-0.06 -0.04,-0.12 -0.04,-0.18 0,-0.06 0.01,-0.13 0.04,-0.18 0.03,-0.06 0.07,-0.11 0.11,-0.15l0.08 0.09c-0.04,0.03 -0.06,0.07 -0.08,0.11 -0.02,0.04 -0.03,0.09 -0.03,0.13 0,0.05 0.01,0.09 0.03,0.13 0.02,0.04 0.05,0.08 0.08,0.11l-0.08 0.09z"/>
   <path fill="yellow" fill-rule="nonzero" fill-opacity="0.949020" d="M0.21 2.34c-0.07,-0.06 -0.12,-0.13 -0.16,-0.2 -0.04,-0.08 -0.06,-0.16 -0.06,-0.25 0,-0.09 0.02,-0.17 0.06,-0.25 0.04,-0.08 0.09,-0.15 0.16,-0.2l0.08 0.09c-0.05,0.04 -0.1,0.1 -0.13,0.16 -0.03,0.06 -0.04,0.13 -0.04,0.2 0,0.07 0.02,0.14 0.04,0.2 0.03,0.06 0.07,0.12 0.13,0.16l-0.08 0.09z"/>
   <path fill="yellow" fill-opacity="0.949020" stroke="yellow" stroke-width="0.03" stroke-miterlimit="22.9256" stroke-opacity="0.949020" d="M2.95 1.49c-0.02,-0.18 0.17,-0.39 0.46,-0.49 0.31,-0.11 0.62,-0.05 0.69,0.13 0.07,0.19 -0.13,0.43 -0.44,0.55 -0.26,0.09 -0.51,0.07 -0.63,-0.05l-0.32 1.89c0.07,-0.11 0.2,-0.2 0.37,-0.29 0.39,-0.19 0.75,-0.09 0.85,-0.59 0.02,-0.09 0.03,-0.21 0.05,-0.32 0.01,0.11 0.03,0.23 0.03,0.33 0.04,0.64 -0.55,0.52 -0.98,0.79 -0.15,0.09 -0.22,0.14 -0.27,0.21l-0 0.01 -0.07 0.11 -0.02 0.04 -0.02 -0.04c-0.02,-0.04 -0.04,-0.08 -0.07,-0.11l-0 -0.01c-0.05,-0.07 -0.12,-0.12 -0.27,-0.21 -0.43,-0.27 -1.02,-0.15 -0.98,-0.79 0.01,-0.1 0.03,-0.21 0.03,-0.33 0.02,0.11 0.03,0.23 0.05,0.32 0.1,0.5 0.46,0.4 0.85,0.59 0.18,0.09 0.31,0.17 0.37,0.28l-0.32 -1.9c-0.12,0.12 -0.38,0.14 -0.63,0.05 -0.31,-0.11 -0.51,-0.36 -0.44,-0.55 0.07,-0.19 0.38,-0.25 0.69,-0.13 0.28,0.1 0.47,0.31 0.46,0.49l0.29 1.63 0.29 -1.63z"/>
  </g>
 </g>
</svg>
