<?xml version="1.0" encoding="UTF-8"?>
<!DOCTYPE svg PUBLIC "-//W3C//DTD SVG 1.0//EN" "http://www.w3.org/TR/2001/REC-SVG-20010904/DTD/svg10.dtd">
<!-- Creator: CorelDRAW 2019 (64-Bit) -->
<svg xmlns="http://www.w3.org/2000/svg" xml:space="preserve" width="0.597403in" height="1in" version="1.0" shape-rendering="geometricPrecision" text-rendering="geometricPrecision" image-rendering="optimizeQuality" fill-rule="evenodd" clip-rule="evenodd"
viewBox="0 0 22.11 37.02"
 xmlns:xlink="http://www.w3.org/1999/xlink"
 xmlns:xodm="http://www.corel.com/coreldraw/odm/2003">
 <g id="Capa_x0020_1">
  <metadata id="CorelCorpID_0Corel-Layer"/>
  <g id="_2726162142960">
   <path fill="lime" fill-rule="nonzero" stroke="black" stroke-width="0.17" stroke-miterlimit="4" d="M0.08 35.97c0,0 0,0.96 0.96,0.96l20.02 0c0,0 0.96,0 0.96,-0.96l0 -34.92c0,0 0,-0.96 -0.96,-0.96l-20.02 0c0,0 -0.96,0 -0.96,0.96l0 34.92z"/>
   <g>
    <path fill="none" stroke="black" stroke-width="0.96" stroke-miterlimit="22.9256" d="M7.64 13.05c0.69,-1.33 1.55,-2.09 2.42,-2.45 2.8,-1.16 4.37,1.75 3.18,4.08 -1.21,2.36 -4.56,3.49 -6.68,1.79 -3.96,-3.18 -0.19,-9.22 5.49,-8.71 1.52,0.14 3.28,1.22 4.17,2.44 3.64,4.97 -4.07,15.86 -5.69,17.95"/>
    <ellipse fill="black" stroke="black" stroke-width="0.1" stroke-miterlimit="22.9256" transform="matrix(-0.1125 -0.194857 0.359204 -0.207388 9.78267 12.1334)" rx="7.43" ry="6.72"/>
    <ellipse fill="black" stroke="black" stroke-width="0.1" stroke-miterlimit="22.9256" transform="matrix(-0.0574999 -0.0995934 0.183593 -0.105998 9.80754 28.2534)" rx="7.43" ry="6.72"/>
   </g>
  </g>
 </g>
</svg>
