<?xml version="1.0" encoding="UTF-8"?>
<!DOCTYPE svg PUBLIC "-//W3C//DTD SVG 1.0//EN" "http://www.w3.org/TR/2001/REC-SVG-20010904/DTD/svg10.dtd">
<!-- Creator: CorelDRAW 2019 (64-Bit) -->
<svg xmlns="http://www.w3.org/2000/svg" xml:space="preserve" width="0.597403in" height="1in" version="1.0" shape-rendering="geometricPrecision" text-rendering="geometricPrecision" image-rendering="optimizeQuality" fill-rule="evenodd" clip-rule="evenodd"
viewBox="0 0 29.36 49.14"
 xmlns:xlink="http://www.w3.org/1999/xlink"
 xmlns:xodm="http://www.corel.com/coreldraw/odm/2003">
 <g id="Capa_x0020_1">
  <metadata id="CorelCorpID_0Corel-Layer"/>
  <g id="_2667100948528">
   <path fill="yellow" fill-rule="nonzero" stroke="black" stroke-width="0.23" stroke-miterlimit="4" d="M0.11 47.75c0,0 0,1.28 1.28,1.28l26.58 0c0,0 1.28,0 1.28,-1.28l0 -46.36c0,0 0,-1.28 -1.28,-1.28l-26.58 0c0,0 -1.28,0 -1.28,1.28l0 46.36z"/>
   <path fill="black" fill-rule="nonzero" stroke="black" stroke-width="0.05" stroke-miterlimit="22.9256" d="M16.76 14.63c-0.34,0.52 -0.74,0.91 -1.2,1.17 -0.46,0.26 -0.97,0.39 -1.54,0.39 -0.79,0 -1.51,-0.28 -2.15,-0.83 -0.65,-0.55 -0.97,-1.37 -0.97,-2.44 0,-1.05 0.36,-1.94 1.07,-2.68 0.72,-0.73 1.57,-1.1 2.56,-1.1 1.09,0 2,0.45 2.73,1.36 0.73,0.9 1.09,2.17 1.09,3.81 0,1.36 -0.2,2.5 -0.61,3.44 -0.4,0.93 -0.94,1.63 -1.6,2.09 -0.66,0.46 -1.42,0.68 -2.25,0.68 -0.81,0 -1.44,-0.18 -1.9,-0.53 -0.46,-0.35 -0.68,-0.78 -0.68,-1.27 0,-0.33 0.09,-0.59 0.28,-0.79 0.19,-0.2 0.42,-0.3 0.71,-0.3 0.26,0 0.48,0.09 0.66,0.26 0.18,0.17 0.27,0.38 0.27,0.62 0,0.17 -0.08,0.36 -0.24,0.57 -0.1,0.13 -0.15,0.24 -0.15,0.34 0,0.15 0.09,0.27 0.26,0.38 0.18,0.11 0.45,0.16 0.84,0.16 0.55,0 1.03,-0.15 1.45,-0.45 0.41,-0.3 0.75,-0.8 1.01,-1.49 0.26,-0.69 0.39,-1.59 0.39,-2.68l-0.02 -0.7zm-2.21 -4.92c-0.59,0 -1.07,0.25 -1.45,0.74 -0.38,0.49 -0.57,1.23 -0.57,2.23 0,0.9 0.19,1.58 0.57,2.03 0.38,0.45 0.88,0.67 1.48,0.67 0.61,0 1.12,-0.24 1.53,-0.72 0.41,-0.48 0.62,-1.15 0.62,-2.02 0,-0.89 -0.21,-1.61 -0.64,-2.13 -0.43,-0.53 -0.94,-0.79 -1.53,-0.79zm1.52 23.87c0.85,0.31 1.46,0.7 1.83,1.19 0.38,0.49 0.56,1.09 0.56,1.78 0,0.85 -0.27,1.59 -0.81,2.22 -0.7,0.82 -1.7,1.22 -3,1.22 -1.15,0 -2.05,-0.28 -2.71,-0.83 -0.66,-0.55 -1,-1.23 -1,-2.06 0,-0.62 0.19,-1.15 0.57,-1.62 0.38,-0.46 1.04,-0.85 1.98,-1.17 -1.39,-0.59 -2.08,-1.51 -2.08,-2.76 0,-0.81 0.31,-1.5 0.94,-2.08 0.62,-0.58 1.42,-0.87 2.38,-0.87 0.66,0 1.23,0.11 1.72,0.34 0.49,0.22 0.86,0.53 1.12,0.92 0.26,0.39 0.38,0.8 0.38,1.22 0,0.99 -0.62,1.81 -1.87,2.47zm-0.61 -0.21c0.55,-0.32 0.92,-0.63 1.11,-0.93 0.19,-0.31 0.28,-0.71 0.28,-1.21 0,-0.66 -0.19,-1.16 -0.56,-1.52 -0.37,-0.36 -0.92,-0.53 -1.63,-0.53 -0.69,0 -1.23,0.17 -1.61,0.5 -0.38,0.33 -0.58,0.77 -0.58,1.3 0,0.53 0.17,0.95 0.5,1.27 0.33,0.32 1.16,0.69 2.48,1.13zm-1.38 1.18c-0.75,0.32 -1.27,0.67 -1.56,1.07 -0.29,0.39 -0.43,0.88 -0.43,1.45 0,0.75 0.22,1.33 0.66,1.74 0.44,0.41 1.07,0.62 1.9,0.62 0.88,0 1.56,-0.21 2.04,-0.62 0.48,-0.41 0.73,-0.96 0.73,-1.64 0,-0.62 -0.21,-1.08 -0.63,-1.4 -0.42,-0.32 -1.32,-0.72 -2.71,-1.22z"/>
  </g>
 </g>
</svg>
