<?xml version="1.0" encoding="UTF-8"?>
<!DOCTYPE svg PUBLIC "-//W3C//DTD SVG 1.0//EN" "http://www.w3.org/TR/2001/REC-SVG-20010904/DTD/svg10.dtd">
<!-- Creator: CorelDRAW 2019 (64-Bit) -->
<svg xmlns="http://www.w3.org/2000/svg" xml:space="preserve" width="0.597403in" height="1in" version="1.0" shape-rendering="geometricPrecision" text-rendering="geometricPrecision" image-rendering="optimizeQuality" fill-rule="evenodd" clip-rule="evenodd"
viewBox="0 0 22.11 37"
 xmlns:xlink="http://www.w3.org/1999/xlink"
 xmlns:xodm="http://www.corel.com/coreldraw/odm/2003">
 <g id="Capa_x0020_1">
  <metadata id="CorelCorpID_0Corel-Layer"/>
  <g id="_2666946791712">
   <path fill="lime" fill-rule="nonzero" stroke="black" stroke-width="0.17" stroke-miterlimit="4" d="M0.08 35.96c0,0 0,0.96 0.96,0.96l20.01 0c0,0 0.96,0 0.96,-0.96l0 -34.91c0,0 0,-0.96 -0.96,-0.96l-20.01 0c0,0 -0.96,0 -0.96,0.96l0 34.91z"/>
   <path fill="black" fill-rule="nonzero" stroke="black" stroke-width="0.04" stroke-miterlimit="22.9256" d="M7.73 16.13c0.27,-0.65 0.6,-1.16 1.01,-1.54 0.41,-0.38 0.81,-0.57 1.22,-0.57 0.31,0 0.54,0.1 0.7,0.29 0.16,0.19 0.25,0.49 0.28,0.88 0.32,-0.42 0.66,-0.72 1,-0.92 0.35,-0.2 0.71,-0.3 1.1,-0.3 0.62,0 1.11,0.24 1.5,0.72 0.38,0.48 0.57,1.12 0.57,1.91 0,0.4 -0.04,0.8 -0.14,1.19 -0.09,0.38 -0.23,0.76 -0.41,1.12 -0.35,0.67 -0.76,1.17 -1.25,1.52 -0.49,0.35 -1.03,0.52 -1.62,0.52 -0.47,0 -0.86,-0.13 -1.16,-0.38 -0.3,-0.26 -0.5,-0.63 -0.6,-1.11l-0.46 1.79c-0.03,0.14 -0.06,0.25 -0.08,0.34 -0.02,0.09 -0.02,0.16 -0.02,0.22 0,0.22 0.08,0.37 0.25,0.45 0.16,0.09 0.45,0.13 0.85,0.13l-0.17 0.65 -3.32 0 0.19 -0.67c0.36,-0.01 0.61,-0.07 0.76,-0.16 0.15,-0.1 0.25,-0.26 0.32,-0.51l1.38 -5.22c0.08,-0.33 0.14,-0.57 0.18,-0.74 0.03,-0.16 0.05,-0.28 0.05,-0.35 0,-0.13 -0.03,-0.23 -0.08,-0.3 -0.05,-0.07 -0.13,-0.11 -0.23,-0.11 -0.18,0 -0.37,0.09 -0.56,0.28 -0.19,0.19 -0.39,0.48 -0.6,0.87l-0.64 0zm3.87 4c0.31,0 0.6,-0.09 0.85,-0.27 0.25,-0.18 0.49,-0.46 0.7,-0.84 0.21,-0.37 0.37,-0.76 0.49,-1.2 0.12,-0.43 0.17,-0.86 0.17,-1.3 0,-0.56 -0.1,-0.98 -0.3,-1.27 -0.2,-0.29 -0.5,-0.43 -0.89,-0.43 -0.25,0 -0.51,0.08 -0.76,0.23 -0.25,0.15 -0.48,0.38 -0.7,0.67 -0.27,0.36 -0.48,0.78 -0.63,1.25 -0.15,0.47 -0.22,0.96 -0.22,1.45 0,0.55 0.11,0.97 0.33,1.26 0.22,0.29 0.54,0.44 0.95,0.44z"/>
  </g>
 </g>
</svg>
