<?xml version="1.0" encoding="UTF-8"?>
<!DOCTYPE svg PUBLIC "-//W3C//DTD SVG 1.0//EN" "http://www.w3.org/TR/2001/REC-SVG-20010904/DTD/svg10.dtd">
<!-- Creator: CorelDRAW 2019 (64-Bit) -->
<svg xmlns="http://www.w3.org/2000/svg" xml:space="preserve" width="0.597403in" height="1in" version="1.0" shape-rendering="geometricPrecision" text-rendering="geometricPrecision" image-rendering="optimizeQuality" fill-rule="evenodd" clip-rule="evenodd"
viewBox="0 0 24.09 40.32"
 xmlns:xlink="http://www.w3.org/1999/xlink"
 xmlns:xodm="http://www.corel.com/coreldraw/odm/2003">
 <g id="Capa_x0020_1">
  <metadata id="CorelCorpID_0Corel-Layer"/>
  <g id="_2667110686848">
   <path fill="red" fill-rule="nonzero" stroke="black" stroke-width="0.18" stroke-miterlimit="4" d="M0.09 39.18c0,0 0,1.05 1.05,1.05l21.81 0c0,0 1.05,0 1.05,-1.05l0 -38.04c0,0 0,-1.05 -1.05,-1.05l-21.81 0c0,0 -1.05,0 -1.05,1.05l0 38.04z"/>
   <path fill="black" fill-rule="nonzero" stroke="black" stroke-width="0.04" stroke-miterlimit="22.9256" d="M6.66 23.72l1 -3.26c0.28,-0.91 0.45,-1.53 0.53,-1.85 0.08,-0.33 0.12,-0.57 0.12,-0.72 0,-0.14 -0.02,-0.25 -0.07,-0.32 -0.05,-0.08 -0.11,-0.12 -0.2,-0.12 -0.22,0 -0.44,0.1 -0.66,0.3 -0.22,0.2 -0.47,0.52 -0.73,0.96l-0.73 0c0.37,-0.73 0.78,-1.3 1.23,-1.71 0.45,-0.41 0.88,-0.61 1.3,-0.61 0.33,0 0.58,0.1 0.75,0.31 0.18,0.21 0.26,0.52 0.26,0.92 0,0.09 -0.01,0.19 -0.02,0.3 -0.01,0.11 -0.03,0.23 -0.05,0.36 0.42,-0.66 0.83,-1.15 1.22,-1.45 0.39,-0.31 0.8,-0.46 1.22,-0.46 0.42,0 0.74,0.13 0.96,0.38 0.23,0.25 0.34,0.61 0.34,1.06 0,0.07 -0,0.14 -0.01,0.22 -0.01,0.08 -0.02,0.16 -0.03,0.25 0.48,-0.69 0.91,-1.18 1.3,-1.48 0.38,-0.29 0.78,-0.44 1.19,-0.44 0.43,0 0.78,0.13 1.06,0.39 0.27,0.26 0.41,0.6 0.41,1.02 0,0.24 -0.04,0.52 -0.12,0.85 -0.08,0.32 -0.25,0.81 -0.5,1.48 -0.3,0.81 -0.5,1.37 -0.59,1.68 -0.09,0.3 -0.14,0.52 -0.14,0.66 0,0.14 0.04,0.26 0.11,0.34 0.07,0.08 0.17,0.13 0.3,0.13 0.2,0 0.41,-0.13 0.64,-0.38 0.23,-0.26 0.46,-0.63 0.69,-1.12l0.75 0c-0.42,0.88 -0.84,1.53 -1.26,1.93 -0.42,0.41 -0.88,0.61 -1.37,0.61 -0.35,0 -0.62,-0.11 -0.82,-0.32 -0.19,-0.22 -0.29,-0.52 -0.29,-0.91 0,-0.27 0.05,-0.6 0.14,-0.98 0.1,-0.38 0.28,-0.94 0.56,-1.69 0.23,-0.61 0.4,-1.09 0.49,-1.43 0.1,-0.34 0.15,-0.6 0.15,-0.77 0,-0.21 -0.06,-0.37 -0.16,-0.47 -0.11,-0.11 -0.27,-0.16 -0.48,-0.16 -0.66,0 -1.3,0.57 -1.92,1.72 -0.63,1.15 -1.16,2.74 -1.6,4.79l-1.31 0 0.98 -3.26c0.08,-0.25 0.19,-0.6 0.33,-1.04 0.27,-0.81 0.4,-1.34 0.4,-1.58 0,-0.21 -0.05,-0.37 -0.15,-0.47 -0.1,-0.1 -0.26,-0.15 -0.47,-0.15 -0.62,0 -1.23,0.57 -1.82,1.7 -0.6,1.13 -1.12,2.74 -1.58,4.8l-1.33 0z"/>
  </g>
 </g>
</svg>
