<?xml version="1.0" encoding="UTF-8"?>
<!DOCTYPE svg PUBLIC "-//W3C//DTD SVG 1.0//EN" "http://www.w3.org/TR/2001/REC-SVG-20010904/DTD/svg10.dtd">
<!-- Creator: CorelDRAW 2019 (64-Bit) -->
<svg xmlns="http://www.w3.org/2000/svg" xml:space="preserve" width="0.597403in" height="1in" version="1.0" shape-rendering="geometricPrecision" text-rendering="geometricPrecision" image-rendering="optimizeQuality" fill-rule="evenodd" clip-rule="evenodd"
viewBox="0 0 29.36 49.14"
 xmlns:xlink="http://www.w3.org/1999/xlink"
 xmlns:xodm="http://www.corel.com/coreldraw/odm/2003">
 <g id="Capa_x0020_1">
  <metadata id="CorelCorpID_0Corel-Layer"/>
  <g id="_2667113811744">
   <path fill="yellow" fill-rule="nonzero" stroke="black" stroke-width="0.23" stroke-miterlimit="4" d="M0.11 47.75c0,0 0,1.28 1.28,1.28l26.58 0c0,0 1.28,0 1.28,-1.28l0 -46.36c0,0 0,-1.28 -1.28,-1.28l-26.58 0c0,0 -1.28,0 -1.28,1.28l0 46.36z"/>
   <g>
    <polygon fill="white" stroke="black" stroke-width="0.05" stroke-miterlimit="10" points="23.48,16.49 26.98,16.49 26.98,32.65 23.48,32.65 "/>
    <polygon fill="white" stroke="black" stroke-width="0.05" stroke-miterlimit="10" points="19.97,16.49 23.47,16.49 23.47,32.65 19.97,32.65 "/>
    <polygon fill="white" stroke="black" stroke-width="0.05" stroke-miterlimit="10" points="16.45,16.49 19.95,16.49 19.95,32.65 16.45,32.65 "/>
    <polygon fill="white" stroke="black" stroke-width="0.05" stroke-miterlimit="10" points="12.93,16.49 16.43,16.49 16.43,32.65 12.93,32.65 "/>
    <polygon fill="white" stroke="black" stroke-width="0.05" stroke-miterlimit="10" points="9.4,16.49 12.9,16.49 12.9,32.65 9.4,32.65 "/>
    <polygon fill="white" stroke="black" stroke-width="0.05" stroke-miterlimit="10" points="5.84,16.49 9.34,16.49 9.34,32.65 5.84,32.65 "/>
    <polygon fill="white" stroke="black" stroke-width="0.05" stroke-miterlimit="10" points="2.37,16.49 5.88,16.49 5.88,32.65 2.37,32.65 "/>
    <polygon fill="black" stroke="black" stroke-width="0.05" stroke-miterlimit="10" points="4.86,16.49 6.86,16.49 6.86,25.72 4.86,25.72 "/>
    <polygon fill="black" stroke="black" stroke-width="0.05" stroke-miterlimit="10" points="8.42,16.49 10.42,16.49 10.42,25.72 8.42,25.72 "/>
    <polygon fill="black" stroke="black" stroke-width="0.05" stroke-miterlimit="10" points="15.58,16.49 17.58,16.49 17.58,25.72 15.58,25.72 "/>
    <polygon fill="black" stroke="black" stroke-width="0.05" stroke-miterlimit="10" points="18.96,16.49 20.96,16.49 20.96,25.72 18.96,25.72 "/>
    <polygon fill="black" stroke="black" stroke-width="0.05" stroke-miterlimit="10" points="22.48,16.49 24.48,16.49 24.48,25.72 22.48,25.72 "/>
   </g>
  </g>
 </g>
</svg>
