<?xml version="1.0" encoding="UTF-8"?>
<!DOCTYPE svg PUBLIC "-//W3C//DTD SVG 1.0//EN" "http://www.w3.org/TR/2001/REC-SVG-20010904/DTD/svg10.dtd">
<!-- Creator: CorelDRAW 2019 (64-Bit) -->
<svg xmlns="http://www.w3.org/2000/svg" xml:space="preserve" width="0.597403in" height="1in" version="1.0" shape-rendering="geometricPrecision" text-rendering="geometricPrecision" image-rendering="optimizeQuality" fill-rule="evenodd" clip-rule="evenodd"
viewBox="0 0 37.39 62.59"
 xmlns:xlink="http://www.w3.org/1999/xlink"
 xmlns:xodm="http://www.corel.com/coreldraw/odm/2003">
 <g id="Capa_x0020_1">
  <metadata id="CorelCorpID_0Corel-Layer"/>
  <g id="_2667121715152">
   <path fill="blue" fill-rule="nonzero" stroke="black" stroke-width="0.29" stroke-miterlimit="4" d="M0.14 60.82c0,0 0,1.63 1.63,1.63l33.85 0c0,0 1.63,0 1.63,-1.63l0 -59.05c0,0 0,-1.63 -1.63,-1.63l-33.85 0c0,0 -1.63,0 -1.63,1.63l0 59.05z"/>
   <g>
    <line fill="none" stroke="black" stroke-width="0.81" stroke-miterlimit="22.9256" x1="2.44" y1="24.79" x2="34.95" y2= "24.79" />
    <line fill="none" stroke="black" stroke-width="0.81" stroke-miterlimit="22.9256" x1="2.44" y1="28.04" x2="34.95" y2= "28.04" />
    <line fill="none" stroke="black" stroke-width="0.81" stroke-miterlimit="22.9256" x1="2.44" y1="31.3" x2="34.95" y2= "31.3" />
    <line fill="none" stroke="black" stroke-width="0.81" stroke-miterlimit="22.9256" x1="2.44" y1="34.55" x2="34.95" y2= "34.55" />
    <line fill="none" stroke="black" stroke-width="0.81" stroke-miterlimit="22.9256" x1="2.44" y1="37.8" x2="34.95" y2= "37.8" />
    <line fill="none" stroke="black" stroke-width="0.81" stroke-miterlimit="22.9256" x1="18.7" y1="37.8" x2="18.7" y2= "24.79" />
   </g>
  </g>
 </g>
</svg>
