<?xml version="1.0" encoding="UTF-8"?>
<!DOCTYPE svg PUBLIC "-//W3C//DTD SVG 1.0//EN" "http://www.w3.org/TR/2001/REC-SVG-20010904/DTD/svg10.dtd">
<!-- Creator: CorelDRAW 2019 (64-Bit) -->
<svg xmlns="http://www.w3.org/2000/svg" xml:space="preserve" width="0.597403in" height="1in" version="1.0" shape-rendering="geometricPrecision" text-rendering="geometricPrecision" image-rendering="optimizeQuality" fill-rule="evenodd" clip-rule="evenodd"
viewBox="0 0 26.47 44.31"
 xmlns:xlink="http://www.w3.org/1999/xlink"
 xmlns:xodm="http://www.corel.com/coreldraw/odm/2003">
 <g id="Capa_x0020_1">
  <metadata id="CorelCorpID_0Corel-Layer"/>
  <g id="_2667156272976">
   <path fill="blue" fill-rule="nonzero" stroke="black" stroke-width="0.2" stroke-miterlimit="4" d="M0.1 43.06c0,0 0,1.15 1.15,1.15l23.97 0c0,0 1.15,0 1.15,-1.15l0 -41.81c0,0 0,-1.15 -1.15,-1.15l-23.97 0c0,0 -1.15,0 -1.15,1.15l0 41.81z"/>
   <g>
    <ellipse fill="black" stroke="black" stroke-width="0.12" stroke-miterlimit="22.9256" transform="matrix(0.15 0.259807 -0.478939 0.276516 8.88084 30.5445)" rx="8.89" ry="8.04"/>
    <line fill="none" stroke="black" stroke-width="1.15" stroke-miterlimit="22.9256" x1="12.43" y1="29.03" x2="12.43" y2= "12.53" />
    <g>
     <path fill="black" d="M11.81 10.56c1.27,2.38 1.06,1.87 3.1,3.33 3,2.15 7.96,2.1 6.58,6.94 -0.15,0.51 -0.59,1.63 -0.8,2.34 -0.53,-2.16 -0.45,-4.17 -2.71,-5.21 -4.48,-2.05 -6.36,-2.24 -6.17,-7.41z"/>
    </g>
    <path fill="none" d="M11.81 10.56c0.33,1.33 0.36,2.1 1.06,2.94 0.23,0.28 0.53,0.59 0.96,0.98 0.12,0.11 0.24,0.21 0.36,0.31 2.28,1.84 4.94,1.81 6.09,3.48 0.54,0.78 0.74,1.93 0.43,3.82 -0.02,0.1 -0.01,0.9 -0.03,1.09"/>
   </g>
  </g>
 </g>
</svg>
