<?xml version="1.0" encoding="UTF-8"?>
<!DOCTYPE svg PUBLIC "-//W3C//DTD SVG 1.0//EN" "http://www.w3.org/TR/2001/REC-SVG-20010904/DTD/svg10.dtd">
<!-- Creator: CorelDRAW 2019 (64-Bit) -->
<svg xmlns="http://www.w3.org/2000/svg" xml:space="preserve" width="0.597403in" height="1in" version="1.0" shape-rendering="geometricPrecision" text-rendering="geometricPrecision" image-rendering="optimizeQuality" fill-rule="evenodd" clip-rule="evenodd"
viewBox="0 0 29.36 49.14"
 xmlns:xlink="http://www.w3.org/1999/xlink"
 xmlns:xodm="http://www.corel.com/coreldraw/odm/2003">
 <g id="Capa_x0020_1">
  <metadata id="CorelCorpID_0Corel-Layer"/>
  <g id="_2667164109840">
   <path fill="lime" fill-rule="nonzero" stroke="black" stroke-width="0.23" stroke-miterlimit="4" d="M0.11 47.75c0,0 0,1.28 1.28,1.28l26.58 0c0,0 1.28,0 1.28,-1.28l0 -46.36c0,0 0,-1.28 -1.28,-1.28l-26.58 0c0,0 -1.28,0 -1.28,1.28l0 46.36z"/>
   <g>
    <ellipse fill="black" stroke="black" stroke-width="0.13" stroke-miterlimit="22.9256" transform="matrix(0.15 0.259807 -0.478939 0.276516 9.91197 33.8713)" rx="9.86" ry="8.92"/>
    <line fill="none" stroke="black" stroke-width="1.28" stroke-miterlimit="22.9256" x1="13.78" y1="31.86" x2="13.78" y2= "13.89" />
    <g>
     <path fill="black" stroke="black" stroke-width="0.13" stroke-miterlimit="22.9256" d="M13.16 11.71c1.4,2.64 1.18,2.08 3.44,3.7 3.32,2.38 8.83,2.33 7.3,7.7 -0.16,0.57 -0.66,1.81 -0.89,2.6 -0.59,-2.39 -0.5,-4.63 -3,-5.78 -4.96,-2.27 -7.05,-2.48 -6.84,-8.22z"/>
    </g>
    <path fill="none" d="M13.16 11.71c0.37,1.47 0.4,2.33 1.17,3.26 0.25,0.31 0.59,0.65 1.06,1.08 0.14,0.12 0.27,0.24 0.4,0.35 2.53,2.04 5.48,2 6.76,3.86 0.59,0.87 0.83,2.14 0.48,4.23 -0.02,0.12 -0.01,1 -0.03,1.21"/>
    <path fill="black" stroke="black" stroke-width="0.13" stroke-miterlimit="22.9256" d="M13.42 19.51l0.01 -1.91c0.43,0.77 0.9,1.11 2.26,2.15 3.27,2.5 8.33,2.05 7.34,7.29 -0.14,0.74 -0.44,1.72 -0.61,2.61 -0.12,-0.89 -0.14,-1.9 -0.24,-2.65 -0.54,-4.03 -3.45,-3.51 -6.4,-5.33 -1.18,-0.73 -1.91,-1.4 -2.36,-2.17z"/>
    <path fill="none" stroke="black" stroke-width="0.13" stroke-miterlimit="22.9256" d="M13.39 18.47c0.09,0.15 0.2,0.3 0.32,0.45 0.25,0.31 0.59,0.65 1.06,1.08 0.14,0.12 0.27,0.24 0.4,0.35 2.53,2.04 5.48,2 6.76,3.86 0.59,0.87 0.83,2.14 0.48,4.23 -0.02,0.12 -0.01,1 -0.03,1.21"/>
   </g>
  </g>
 </g>
</svg>
