<?xml version="1.0" encoding="UTF-8"?>
<!DOCTYPE svg PUBLIC "-//W3C//DTD SVG 1.0//EN" "http://www.w3.org/TR/2001/REC-SVG-20010904/DTD/svg10.dtd">
<!-- Creator: CorelDRAW 2019 (64-Bit) -->
<svg xmlns="http://www.w3.org/2000/svg" xml:space="preserve" width="0.597403in" height="1in" version="1.0" shape-rendering="geometricPrecision" text-rendering="geometricPrecision" image-rendering="optimizeQuality" fill-rule="evenodd" clip-rule="evenodd"
viewBox="0 0 32.94 55.14"
 xmlns:xlink="http://www.w3.org/1999/xlink"
 xmlns:xodm="http://www.corel.com/coreldraw/odm/2003">
 <g id="Capa_x0020_1">
  <metadata id="CorelCorpID_0Corel-Layer"/>
  <g id="_2667106137408">
   <path fill="red" fill-rule="nonzero" stroke="black" stroke-width="0.25" stroke-miterlimit="4" d="M0.13 53.58c0,0 0,1.43 1.43,1.43l29.82 0c0,0 1.43,0 1.43,-1.43l0 -52.02c0,0 0,-1.43 -1.43,-1.43l-29.82 0c0,0 -1.43,0 -1.43,1.43l0 52.02z"/>
   <path fill="none" stroke="black" stroke-width="1.43" stroke-miterlimit="22.9256" d="M16.38 37.83c1.48,-8.06 12.52,-2.59 7.19,4.32 -3.09,4.02 -11.01,3.51 -14.05,-0.33 -2.82,-3.56 -2.03,-10.2 3.19,-13.19 2.35,-1.35 5.32,-1.95 9,-1.56 0,0 -9.68,-8.59 -9.68,-8.59 0,0 9.66,0 9.66,0 0,0 -9.07,-8.08 -9.31,-8.29"/>
  </g>
 </g>
</svg>
