<?xml version="1.0" encoding="UTF-8"?>
<!DOCTYPE svg PUBLIC "-//W3C//DTD SVG 1.0//EN" "http://www.w3.org/TR/2001/REC-SVG-20010904/DTD/svg10.dtd">
<!-- Creator: CorelDRAW 2019 (64-Bit) -->
<svg xmlns="http://www.w3.org/2000/svg" xml:space="preserve" width="0.597403in" height="1in" version="1.0" shape-rendering="geometricPrecision" text-rendering="geometricPrecision" image-rendering="optimizeQuality" fill-rule="evenodd" clip-rule="evenodd"
viewBox="0 0 37.5 62.77"
 xmlns:xlink="http://www.w3.org/1999/xlink"
 xmlns:xodm="http://www.corel.com/coreldraw/odm/2003">
 <g id="Capa_x0020_1">
  <metadata id="CorelCorpID_0Corel-Layer"/>
  <g id="_2666940886496">
   <path fill="lime" fill-rule="nonzero" stroke="black" stroke-width="0.29" stroke-miterlimit="4" d="M0.14 61c0,0 0,1.63 1.63,1.63l33.95 0c0,0 1.63,0 1.63,-1.63l0 -59.22c0,0 0,-1.63 -1.63,-1.63l-33.95 0c0,0 -1.63,0 -1.63,1.63l0 59.22z"/>
   <g>
    <line fill="none" stroke="black" stroke-width="2.45" stroke-miterlimit="22.9256" x1="26.97" y1="16.97" x2="16.48" y2= "45.8" />
    <g>
     <path fill="black" stroke="black" stroke-width="0.16" stroke-miterlimit="22.9256" d="M10.6 17.85c1.82,3.05 1.31,1.91 3.83,3.72 4.71,3.38 10.26,2.09 7.09,9.96 -0.17,0.43 -0.29,0.77 -0.44,1.22 -0.7,-2.36 -0.83,-4.77 -3.31,-5.9 -5.34,-2.44 -7.71,-2.73 -7.17,-9z"/>
    </g>
    <path fill="none" d="M10.6 17.85c0.39,1.57 0.43,2.48 1.25,3.48 0.27,0.33 0.63,0.7 1.13,1.15 0.14,0.13 0.29,0.25 0.43,0.37 2.7,2.17 5.84,2.13 7.19,4.11 0.63,0.92 0.88,2.28 0.51,4.51 -0.02,0.12 -0.01,1.06 -0.03,1.28"/>
   </g>
  </g>
 </g>
</svg>
