<?xml version="1.0" encoding="UTF-8"?>
<!DOCTYPE svg PUBLIC "-//W3C//DTD SVG 1.0//EN" "http://www.w3.org/TR/2001/REC-SVG-20010904/DTD/svg10.dtd">
<!-- Creator: CorelDRAW 2019 (64-Bit) -->
<svg xmlns="http://www.w3.org/2000/svg" xml:space="preserve" width="0.597403in" height="1in" version="1.0" shape-rendering="geometricPrecision" text-rendering="geometricPrecision" image-rendering="optimizeQuality" fill-rule="evenodd" clip-rule="evenodd"
viewBox="0 0 32.13 53.79"
 xmlns:xlink="http://www.w3.org/1999/xlink"
 xmlns:xodm="http://www.corel.com/coreldraw/odm/2003">
 <g id="Capa_x0020_1">
  <metadata id="CorelCorpID_0Corel-Layer"/>
  <g id="_2726087120304">
   <path fill="red" fill-rule="nonzero" stroke="black" stroke-width="0.25" stroke-miterlimit="4" d="M0.12 52.27c0,0 0,1.4 1.4,1.4l29.09 0c0,0 1.4,0 1.4,-1.4l0 -50.74c0,0 0,-1.4 -1.4,-1.4l-29.09 0c0,0 -1.4,0 -1.4,1.4l0 50.74z"/>
   <g>
    <ellipse fill="black" stroke="black" stroke-width="0.14" stroke-miterlimit="22.9256" transform="matrix(0.15 0.259807 -0.478939 0.276516 10.7444 39.2044)" rx="10.79" ry="9.76"/>
    <line fill="none" stroke="black" stroke-width="1.4" stroke-miterlimit="22.9256" x1="14.98" y1="37.01" x2="14.98" y2= "12.85" />
    <g>
     <path fill="black" stroke="black" stroke-width="0.14" stroke-miterlimit="22.9256" d="M14.29 10.69c1.54,2.89 1.29,2.27 3.76,4.05 3.64,2.61 9.67,2.55 7.99,8.43 -0.18,0.62 -0.72,1.98 -0.98,2.85 -0.64,-2.62 -0.54,-5.07 -3.29,-6.32 -5.43,-2.48 -7.72,-2.72 -7.49,-9z"/>
    </g>
    <path fill="none" d="M14.29 10.69c0.41,1.61 0.44,2.55 1.28,3.57 0.28,0.33 0.65,0.72 1.16,1.18 0.15,0.13 0.3,0.26 0.44,0.38 2.77,2.23 6,2.19 7.4,4.23 0.65,0.95 0.9,2.35 0.53,4.63 -0.02,0.13 -0.01,1.09 -0.03,1.32"/>
    <path fill="black" stroke="black" stroke-width="0.14" stroke-miterlimit="22.9256" d="M14.59 19.23l0.01 -2.09c0.47,0.84 0.98,1.22 2.48,2.36 3.58,2.73 9.12,2.24 8.03,7.98 -0.15,0.81 -0.48,1.88 -0.67,2.86 -0.13,-0.97 -0.16,-2.08 -0.27,-2.9 -0.59,-4.41 -3.78,-3.84 -7.01,-5.83 -1.3,-0.8 -2.09,-1.53 -2.59,-2.37z"/>
    <path fill="black" stroke="black" stroke-width="0.14" stroke-miterlimit="22.9256" d="M14.59 23.21l0.01 -2.09c0.47,0.84 0.98,1.22 2.48,2.36 3.58,2.73 9.12,2.24 8.03,7.98 -0.15,0.81 -0.48,1.88 -0.67,2.86 -0.13,-0.97 -0.16,-2.08 -0.27,-2.9 -0.59,-4.41 -3.78,-3.84 -7.01,-5.83 -1.3,-0.8 -2.09,-1.53 -2.59,-2.37z"/>
   </g>
  </g>
 </g>
</svg>
