<?xml version="1.0" encoding="UTF-8"?>
<!DOCTYPE svg PUBLIC "-//W3C//DTD SVG 1.0//EN" "http://www.w3.org/TR/2001/REC-SVG-20010904/DTD/svg10.dtd">
<!-- Creator: CorelDRAW 2019 (64-Bit) -->
<svg xmlns="http://www.w3.org/2000/svg" xml:space="preserve" width="0.597403in" height="1in" version="1.0" shape-rendering="geometricPrecision" text-rendering="geometricPrecision" image-rendering="optimizeQuality" fill-rule="evenodd" clip-rule="evenodd"
viewBox="0 0 25.49 42.67"
 xmlns:xlink="http://www.w3.org/1999/xlink"
 xmlns:xodm="http://www.corel.com/coreldraw/odm/2003">
 <g id="Capa_x0020_1">
  <metadata id="CorelCorpID_0Corel-Layer"/>
  <g id="_2726907477392">
   <path fill="red" fill-rule="nonzero" stroke="black" stroke-width="0.2" stroke-miterlimit="4" d="M0.1 41.46c0,0 0,1.11 1.11,1.11l23.08 0c0,0 1.11,0 1.11,-1.11l0 -40.25c0,0 0,-1.11 -1.11,-1.11l-23.08 0c0,0 -1.11,0 -1.11,1.11l0 40.25z"/>
   <path fill="black" fill-rule="nonzero" stroke="black" stroke-width="0.04" stroke-miterlimit="22.9256" d="M10.52 7.94c1.16,0.26 2.1,0.39 2.84,0.39 0.34,0 0.67,-0.03 0.97,-0.1 0.3,-0.07 0.53,-0.14 0.68,-0.23 0.08,-0.04 0.13,-0.06 0.15,-0.06 0.04,0 0.07,0.04 0.07,0.1 0,0.16 -0.1,0.37 -0.31,0.64 -0.21,0.26 -0.49,0.47 -0.84,0.63 -0.36,0.16 -0.76,0.23 -1.23,0.23 -0.54,0 -1.18,-0.08 -1.92,-0.25l-0.22 2.63c0.35,-0.17 0.68,-0.3 0.99,-0.39 0.32,-0.09 0.62,-0.13 0.9,-0.13 0.9,0 1.65,0.3 2.27,0.89 0.61,0.59 0.92,1.33 0.92,2.2 0,0.97 -0.33,1.76 -0.98,2.39 -0.65,0.63 -1.49,0.94 -2.53,0.94 -0.79,0 -1.44,-0.23 -1.93,-0.67 -0.5,-0.45 -0.75,-0.99 -0.75,-1.6 0,-0.38 0.08,-0.66 0.24,-0.87 0.16,-0.2 0.36,-0.3 0.6,-0.3 0.24,0 0.44,0.08 0.59,0.24 0.15,0.16 0.23,0.37 0.23,0.63 0,0.2 -0.04,0.35 -0.11,0.46 -0.08,0.11 -0.21,0.2 -0.41,0.27 -0.2,0.08 -0.3,0.17 -0.3,0.27 0,0.15 0.07,0.31 0.21,0.48 0.14,0.18 0.34,0.32 0.62,0.43 0.28,0.11 0.59,0.17 0.95,0.17 0.7,0 1.23,-0.22 1.6,-0.65 0.37,-0.43 0.55,-1.14 0.55,-2.12 0,-0.89 -0.19,-1.54 -0.58,-1.95 -0.39,-0.41 -0.89,-0.62 -1.49,-0.62 -0.27,0 -0.55,0.05 -0.82,0.15 -0.28,0.1 -0.55,0.25 -0.83,0.45 -0.03,0.32 -0.09,0.53 -0.17,0.64 -0.08,0.11 -0.19,0.16 -0.32,0.16 -0.09,0 -0.16,-0.03 -0.22,-0.1 -0.05,-0.06 -0.08,-0.15 -0.08,-0.27 0,-0.2 0.09,-0.4 0.28,-0.6 0.05,-0.06 0.09,-0.11 0.12,-0.16l0.16 -2.03c0.06,-0.8 0.1,-1.56 0.1,-2.31zm3.41 21.22c0.73,0.27 1.26,0.61 1.59,1.04 0.33,0.43 0.49,0.95 0.49,1.55 0,0.74 -0.23,1.38 -0.71,1.93 -0.61,0.71 -1.48,1.06 -2.6,1.06 -0.99,0 -1.78,-0.24 -2.36,-0.72 -0.58,-0.48 -0.87,-1.07 -0.87,-1.79 0,-0.53 0.17,-1 0.5,-1.4 0.33,-0.4 0.9,-0.74 1.72,-1.02 -1.2,-0.52 -1.81,-1.31 -1.81,-2.39 0,-0.7 0.27,-1.3 0.81,-1.81 0.54,-0.5 1.23,-0.76 2.06,-0.76 0.57,0 1.07,0.1 1.49,0.3 0.42,0.19 0.75,0.46 0.97,0.8 0.22,0.34 0.33,0.69 0.33,1.06 0,0.86 -0.54,1.57 -1.63,2.15zm-0.53 -0.18c0.48,-0.27 0.8,-0.54 0.97,-0.81 0.16,-0.27 0.25,-0.62 0.25,-1.05 0,-0.57 -0.16,-1.01 -0.49,-1.32 -0.32,-0.31 -0.8,-0.46 -1.41,-0.46 -0.6,0 -1.06,0.15 -1.4,0.43 -0.33,0.29 -0.5,0.67 -0.5,1.13 0,0.46 0.15,0.83 0.44,1.1 0.29,0.27 1.01,0.6 2.15,0.98zm-1.2 1.02c-0.65,0.27 -1.1,0.58 -1.35,0.93 -0.25,0.34 -0.38,0.76 -0.38,1.26 0,0.65 0.19,1.15 0.57,1.51 0.38,0.36 0.93,0.54 1.65,0.54 0.76,0 1.35,-0.18 1.77,-0.54 0.42,-0.36 0.63,-0.83 0.63,-1.42 0,-0.53 -0.18,-0.94 -0.55,-1.22 -0.37,-0.27 -1.15,-0.63 -2.36,-1.06z"/>
  </g>
 </g>
</svg>
