<?xml version="1.0" encoding="UTF-8"?>
<!DOCTYPE svg PUBLIC "-//W3C//DTD SVG 1.0//EN" "http://www.w3.org/TR/2001/REC-SVG-20010904/DTD/svg10.dtd">
<!-- Creator: CorelDRAW 2019 (64-Bit) -->
<svg xmlns="http://www.w3.org/2000/svg" xml:space="preserve" width="0.597403in" height="1in" version="1.0" shape-rendering="geometricPrecision" text-rendering="geometricPrecision" image-rendering="optimizeQuality" fill-rule="evenodd" clip-rule="evenodd"
viewBox="0 0 37.19 62.25"
 xmlns:xlink="http://www.w3.org/1999/xlink"
 xmlns:xodm="http://www.corel.com/coreldraw/odm/2003">
 <g id="Capa_x0020_1">
  <metadata id="CorelCorpID_0Corel-Layer"/>
  <g id="_2725581080160">
   <path fill="blue" fill-rule="nonzero" stroke="black" stroke-width="0.29" stroke-miterlimit="4" d="M0.14 60.49c0,0 0,1.62 1.62,1.62l33.67 0c0,0 1.62,0 1.62,-1.62l0 -58.73c0,0 0,-1.62 -1.62,-1.62l-33.67 0c0,0 -1.62,0 -1.62,1.62l0 58.73z"/>
   <g>
    <path fill="black" stroke="black" stroke-width="0.16" stroke-miterlimit="22.9256" d="M24.32 27.06l-0.02 2.42c-0.54,-0.97 -1.14,-1.41 -2.86,-2.73 -4.15,-3.16 -10.55,-2.6 -9.3,-9.23 0.18,-0.93 0.56,-2.18 0.77,-3.31 0.15,1.13 0.18,2.41 0.31,3.35 0.68,5.11 4.37,4.45 8.11,6.75 1.5,0.92 2.42,1.77 2.99,2.75z"/>
    <line fill="none" stroke="black" stroke-width="2.43" stroke-miterlimit="22.9256" x1="26.83" y1="19.44" x2="16.42" y2= "48.03" />
    <path fill="black" stroke="black" stroke-width="0.16" stroke-miterlimit="22.9256" d="M22.7 31.35l-0.02 2.42c-0.54,-0.97 -1.14,-1.41 -2.86,-2.73 -4.15,-3.16 -10.55,-2.6 -9.3,-9.23 0.18,-0.93 0.56,-2.18 0.77,-3.31 0.15,1.13 0.18,2.41 0.31,3.35 0.68,5.11 4.37,4.45 8.11,6.75 1.5,0.92 2.42,1.77 2.99,2.75z"/>
   </g>
  </g>
 </g>
</svg>
