<?xml version="1.0" encoding="UTF-8"?>
<!DOCTYPE svg PUBLIC "-//W3C//DTD SVG 1.0//EN" "http://www.w3.org/TR/2001/REC-SVG-20010904/DTD/svg10.dtd">
<!-- Creator: CorelDRAW 2019 (64-Bit) -->
<svg xmlns="http://www.w3.org/2000/svg" xml:space="preserve" width="0.597403in" height="1in" version="1.0" shape-rendering="geometricPrecision" text-rendering="geometricPrecision" image-rendering="optimizeQuality" fill-rule="evenodd" clip-rule="evenodd"
viewBox="0 0 43.37 72.6"
 xmlns:xlink="http://www.w3.org/1999/xlink"
 xmlns:xodm="http://www.corel.com/coreldraw/odm/2003">
 <g id="Capa_x0020_1">
  <metadata id="CorelCorpID_0Corel-Layer"/>
  <g id="_2726382948032">
   <path fill="yellow" fill-rule="nonzero" stroke="black" stroke-width="0.33" stroke-miterlimit="4" d="M0.17 70.55c0,0 0,1.89 1.89,1.89l39.27 0c0,0 1.89,0 1.89,-1.89l0 -68.5c0,0 0,-1.89 -1.89,-1.89l-39.27 0c0,0 -1.89,0 -1.89,1.89l0 68.5z"/>
   <g>
    <path fill="black" stroke="black" stroke-width="0.19" stroke-miterlimit="22.9256" d="M29.12 31.56l-0.02 2.82c-0.63,-1.13 -1.33,-1.65 -3.34,-3.18 -4.84,-3.69 -12.31,-3.03 -10.84,-10.77 0.21,-1.09 0.65,-2.54 0.9,-3.86 0.18,1.31 0.21,2.81 0.36,3.91 0.79,5.96 5.1,5.19 9.46,7.87 1.75,1.08 2.82,2.06 3.49,3.2z"/>
    <line fill="none" stroke="black" stroke-width="2.83" stroke-miterlimit="22.9256" x1="32.14" y1="22.67" x2="20" y2= "56.02" />
    <path fill="black" stroke="black" stroke-width="0.19" stroke-miterlimit="22.9256" d="M27.32 36.56l-0.02 2.82c-0.63,-1.13 -1.33,-1.65 -3.34,-3.18 -4.84,-3.69 -12.31,-3.03 -10.84,-10.77 0.21,-1.09 0.65,-2.54 0.9,-3.86 0.18,1.31 0.21,2.81 0.36,3.91 0.79,5.96 5.1,5.19 9.46,7.87 1.75,1.08 2.82,2.06 3.49,3.2z"/>
    <path fill="black" stroke="black" stroke-width="0.19" stroke-miterlimit="22.9256" d="M25.63 41.18l-0.02 2.82c-0.63,-1.13 -1.33,-1.65 -3.34,-3.18 -4.84,-3.69 -12.31,-3.03 -10.84,-10.77 0.21,-1.09 0.65,-2.54 0.9,-3.86 0.18,1.31 0.21,2.81 0.36,3.91 0.79,5.96 5.1,5.19 9.46,7.87 1.75,1.08 2.82,2.06 3.49,3.2z"/>
   </g>
  </g>
 </g>
</svg>
