<?xml version="1.0" encoding="UTF-8"?>
<!DOCTYPE svg PUBLIC "-//W3C//DTD SVG 1.0//EN" "http://www.w3.org/TR/2001/REC-SVG-20010904/DTD/svg10.dtd">
<!-- Creator: CorelDRAW 2019 (64-Bit) -->
<svg xmlns="http://www.w3.org/2000/svg" xml:space="preserve" width="0.597403in" height="1in" version="1.0" shape-rendering="geometricPrecision" text-rendering="geometricPrecision" image-rendering="optimizeQuality" fill-rule="evenodd" clip-rule="evenodd"
viewBox="0 0 30.83 51.61"
 xmlns:xlink="http://www.w3.org/1999/xlink"
 xmlns:xodm="http://www.corel.com/coreldraw/odm/2003">
 <g id="Capa_x0020_1">
  <metadata id="CorelCorpID_0Corel-Layer"/>
  <g id="_2726299227104">
   <path fill="red" fill-rule="nonzero" stroke="black" stroke-width="0.24" stroke-miterlimit="4" d="M0.12 50.15c0,0 0,1.34 1.34,1.34l27.92 0c0,0 1.34,0 1.34,-1.34l0 -48.7c0,0 0,-1.34 -1.34,-1.34l-27.92 0c0,0 -1.34,0 -1.34,1.34l0 48.7z"/>
   <path fill="black" fill-rule="nonzero" stroke="black" stroke-width="0.05" stroke-miterlimit="22.9256" d="M2 30.71l0.22 -0.89 0.12 0c0.31,0 0.53,-0.06 0.69,-0.18 0.15,-0.12 0.26,-0.33 0.34,-0.63l1.56 -5.99c0.03,-0.11 0.05,-0.22 0.06,-0.33 0.01,-0.11 0.02,-0.22 0.02,-0.34 0,-0.21 -0.08,-0.36 -0.25,-0.44 -0.17,-0.09 -0.45,-0.13 -0.84,-0.13l-0.13 0 0.22 -0.89 3.7 0c0.73,0 1.28,0.03 1.66,0.1 0.38,0.07 0.71,0.17 1.01,0.32 0.63,0.32 1.13,0.81 1.5,1.47 0.37,0.66 0.56,1.39 0.56,2.2 0,0.92 -0.19,1.78 -0.56,2.59 -0.37,0.81 -0.89,1.49 -1.57,2.05 -0.44,0.37 -0.93,0.64 -1.49,0.81 -0.56,0.17 -1.22,0.26 -2,0.26l-4.84 0zm4.46 -7.68l-1.43 5.55c-0.05,0.17 -0.07,0.3 -0.09,0.39 -0.02,0.09 -0.02,0.17 -0.02,0.23 0,0.25 0.12,0.43 0.37,0.54 0.25,0.1 0.69,0.16 1.33,0.16 0.54,0 1.02,-0.09 1.46,-0.28 0.44,-0.19 0.82,-0.46 1.15,-0.82 0.46,-0.5 0.83,-1.14 1.1,-1.92 0.27,-0.78 0.41,-1.57 0.41,-2.38 0,-0.86 -0.22,-1.52 -0.67,-2 -0.44,-0.48 -1.07,-0.72 -1.87,-0.72 -0.46,0 -0.84,0.11 -1.15,0.33 -0.3,0.22 -0.51,0.53 -0.61,0.94zm6.5 7.02c0,-0.26 0.09,-0.48 0.27,-0.66 0.18,-0.18 0.4,-0.27 0.66,-0.27 0.26,0 0.47,0.09 0.65,0.27 0.17,0.18 0.26,0.4 0.26,0.66 0,0.26 -0.09,0.48 -0.27,0.66 -0.18,0.18 -0.4,0.27 -0.65,0.27 -0.25,0 -0.47,-0.09 -0.65,-0.27 -0.18,-0.18 -0.27,-0.4 -0.27,-0.65zm12.26 -5.01l0 -0.09c0,-1.09 -0.23,-1.93 -0.69,-2.5 -0.46,-0.58 -1.13,-0.86 -2,-0.86 -0.44,0 -0.86,0.11 -1.28,0.33 -0.41,0.22 -0.78,0.54 -1.09,0.94 -0.38,0.5 -0.68,1.13 -0.9,1.9 -0.22,0.77 -0.34,1.57 -0.34,2.39 0,0.91 0.23,1.63 0.68,2.15 0.46,0.52 1.08,0.78 1.87,0.78 0.58,0 1.11,-0.17 1.6,-0.52 0.49,-0.35 0.95,-0.88 1.38,-1.6l0.87 0.27c-0.41,0.89 -0.96,1.57 -1.65,2.04 -0.68,0.47 -1.47,0.71 -2.35,0.71 -1.26,0 -2.27,-0.38 -3.02,-1.15 -0.75,-0.77 -1.13,-1.79 -1.13,-3.07 0,-0.74 0.13,-1.48 0.4,-2.21 0.27,-0.73 0.65,-1.4 1.15,-2.03 0.48,-0.59 1.05,-1.05 1.7,-1.37 0.65,-0.32 1.32,-0.49 2.02,-0.49 0.26,0 0.52,0.03 0.78,0.08 0.25,0.05 0.58,0.15 0.98,0.3 0.15,0.05 0.33,0.14 0.56,0.26 0.22,0.12 0.37,0.18 0.46,0.18 0.13,0 0.24,-0.06 0.33,-0.19 0.09,-0.13 0.16,-0.33 0.22,-0.59l0.86 0 -0.54 4.35 -0.86 0zm1.78 5.01c0,-0.26 0.09,-0.48 0.27,-0.66 0.18,-0.18 0.4,-0.27 0.66,-0.27 0.26,0 0.47,0.09 0.65,0.27 0.17,0.18 0.26,0.4 0.26,0.66 0,0.26 -0.09,0.48 -0.27,0.66 -0.18,0.18 -0.4,0.27 -0.65,0.27 -0.25,0 -0.47,-0.09 -0.65,-0.27 -0.18,-0.18 -0.27,-0.4 -0.27,-0.65z"/>
  </g>
 </g>
</svg>
