<?xml version="1.0" encoding="UTF-8"?>
<!DOCTYPE svg PUBLIC "-//W3C//DTD SVG 1.0//EN" "http://www.w3.org/TR/2001/REC-SVG-20010904/DTD/svg10.dtd">
<!-- Creator: CorelDRAW 2019 (64-Bit) -->
<svg xmlns="http://www.w3.org/2000/svg" xml:space="preserve" width="0.597403in" height="1in" version="1.0" shape-rendering="geometricPrecision" text-rendering="geometricPrecision" image-rendering="optimizeQuality" fill-rule="evenodd" clip-rule="evenodd"
viewBox="0 0 34.99 58.57"
 xmlns:xlink="http://www.w3.org/1999/xlink"
 xmlns:xodm="http://www.corel.com/coreldraw/odm/2003">
 <g id="Capa_x0020_1">
  <metadata id="CorelCorpID_0Corel-Layer"/>
  <g id="_2726392791408">
   <path fill="lime" fill-rule="nonzero" stroke="black" stroke-width="0.27" stroke-miterlimit="4" d="M0.13 56.91c0,0 0,1.52 1.52,1.52l31.68 0c0,0 1.52,0 1.52,-1.52l0 -55.26c0,0 0,-1.52 -1.52,-1.52l-31.68 0c0,0 -1.52,0 -1.52,1.52l0 55.26z"/>
   <g>
    <ellipse fill="black" stroke="black" stroke-width="0.15" stroke-miterlimit="22.9256" transform="matrix(-0.074589 -0.129192 0.238157 -0.1375 7.03001 25.1589)" rx="11.75" ry="10.63"/>
    <line fill="none" stroke="black" stroke-width="0.76" stroke-miterlimit="22.9256" x1="4.7" y1="26.16" x2="4.7" y2= "38.64" />
   </g>
   <g>
    <ellipse fill="black" stroke="black" stroke-width="0.15" stroke-miterlimit="22.9256" transform="matrix(-0.074589 -0.129192 0.238157 -0.1375 27.9596 25.1589)" rx="11.75" ry="10.63"/>
    <line fill="none" stroke="black" stroke-width="0.76" stroke-miterlimit="22.9256" x1="25.63" y1="26.16" x2="25.63" y2= "38.64" />
   </g>
   <g>
    <ellipse fill="black" stroke="black" stroke-width="0.15" stroke-miterlimit="22.9256" transform="matrix(-0.074589 -0.129192 0.238157 -0.1375 17.4947 25.159)" rx="11.75" ry="10.63"/>
    <line fill="none" stroke="black" stroke-width="0.76" stroke-miterlimit="22.9256" x1="15.16" y1="26.16" x2="15.16" y2= "38.64" />
   </g>
   <ellipse fill="black" stroke="black" stroke-width="0.15" stroke-miterlimit="22.9256" transform="matrix(0.00747735 0.0796491 -0.0880968 0.00827041 27.9595 20.365)" rx="11.75" ry="10.63"/>
   <ellipse fill="black" stroke="black" stroke-width="0.15" stroke-miterlimit="22.9256" transform="matrix(0.00747735 0.0796491 -0.0880968 0.00827041 7.03003 20.365)" rx="11.75" ry="10.63"/>
   <ellipse fill="black" stroke="black" stroke-width="0.15" stroke-miterlimit="22.9256" transform="matrix(0.00747735 0.0796491 -0.0880968 0.00827041 17.4948 20.365)" rx="11.75" ry="10.63"/>
  </g>
 </g>
</svg>
