<?xml version="1.0" encoding="UTF-8"?>
<!DOCTYPE svg PUBLIC "-//W3C//DTD SVG 1.0//EN" "http://www.w3.org/TR/2001/REC-SVG-20010904/DTD/svg10.dtd">
<!-- Creator: CorelDRAW 2019 (64-Bit) -->
<svg xmlns="http://www.w3.org/2000/svg" xml:space="preserve" width="0.597403in" height="1in" version="1.0" shape-rendering="geometricPrecision" text-rendering="geometricPrecision" image-rendering="optimizeQuality" fill-rule="evenodd" clip-rule="evenodd"
viewBox="0 0 40.44 67.69"
 xmlns:xlink="http://www.w3.org/1999/xlink"
 xmlns:xodm="http://www.corel.com/coreldraw/odm/2003">
 <g id="Capa_x0020_1">
  <metadata id="CorelCorpID_0Corel-Layer"/>
  <g id="_2726394898976">
   <path fill="red" fill-rule="nonzero" stroke="black" stroke-width="0.31" stroke-miterlimit="4" d="M0.16 65.78c0,0 0,1.76 1.76,1.76l36.61 0c0,0 1.76,0 1.76,-1.76l0 -63.87c0,0 0,-1.76 -1.76,-1.76l-36.61 0c0,0 -1.76,0 -1.76,1.76l0 63.87z"/>
   <g>
    <ellipse fill="black" stroke="black" stroke-width="0.18" stroke-miterlimit="22.9256" transform="matrix(-0.074589 -0.129192 0.238157 -0.1375 8.12496 29.0775)" rx="13.58" ry="12.28"/>
    <line fill="none" stroke="black" stroke-width="0.88" stroke-miterlimit="22.9256" x1="5.43" y1="30.23" x2="5.43" y2= "44.66" />
   </g>
   <g>
    <ellipse fill="black" stroke="black" stroke-width="0.18" stroke-miterlimit="22.9256" transform="matrix(-0.074589 -0.129192 0.238157 -0.1375 32.3144 29.0775)" rx="13.58" ry="12.28"/>
    <line fill="none" stroke="black" stroke-width="0.88" stroke-miterlimit="22.9256" x1="29.62" y1="30.23" x2="29.62" y2= "44.66" />
   </g>
   <g>
    <ellipse fill="black" stroke="black" stroke-width="0.18" stroke-miterlimit="22.9256" transform="matrix(-0.074589 -0.129192 0.238157 -0.1375 20.2196 29.0776)" rx="13.58" ry="12.28"/>
    <line fill="none" stroke="black" stroke-width="0.88" stroke-miterlimit="22.9256" x1="17.52" y1="30.23" x2="17.52" y2= "44.66" />
   </g>
   <line fill="none" stroke="black" stroke-width="0.88" stroke-miterlimit="22.9256" x1="4.65" y1="23.54" x2="11.6" y2= "23.54" />
   <line fill="none" stroke="black" stroke-width="0.88" stroke-miterlimit="22.9256" x1="16.74" y1="23.54" x2="23.7" y2= "23.54" />
   <line fill="none" stroke="black" stroke-width="0.88" stroke-miterlimit="22.9256" x1="28.83" y1="23.54" x2="35.79" y2= "23.54" />
  </g>
 </g>
</svg>
