<?xml version="1.0" encoding="UTF-8"?>
<!DOCTYPE svg PUBLIC "-//W3C//DTD SVG 1.0//EN" "http://www.w3.org/TR/2001/REC-SVG-20010904/DTD/svg10.dtd">
<!-- Creator: CorelDRAW 2019 (64-Bit) -->
<svg xmlns="http://www.w3.org/2000/svg" xml:space="preserve" width="0.597403in" height="1in" version="1.0" shape-rendering="geometricPrecision" text-rendering="geometricPrecision" image-rendering="optimizeQuality" fill-rule="evenodd" clip-rule="evenodd"
viewBox="0 0 47.9 80.18"
 xmlns:xlink="http://www.w3.org/1999/xlink"
 xmlns:xodm="http://www.corel.com/coreldraw/odm/2003">
 <g id="Capa_x0020_1">
  <metadata id="CorelCorpID_0Corel-Layer"/>
  <g id="_2726388279008">
   <path fill="yellow" fill-rule="nonzero" stroke="black" stroke-width="0.37" stroke-miterlimit="4" d="M0.18 77.91c0,0 0,2.08 2.08,2.08l43.37 0c0,0 2.08,0 2.08,-2.08l0 -75.65c0,0 0,-2.08 -2.08,-2.08l-43.37 0c0,0 -2.08,0 -2.08,2.08l0 75.65z"/>
   <g>
    <g>
     <ellipse fill="black" stroke="black" stroke-width="0.21" stroke-miterlimit="22.9256" transform="matrix(-0.074589 -0.129192 0.238157 -0.1375 9.62391 34.442)" rx="16.09" ry="14.55"/>
     <line fill="none" stroke="black" stroke-width="1.04" stroke-miterlimit="22.9256" x1="6.43" y1="35.81" x2="6.43" y2= "52.9" />
    </g>
    <g>
     <ellipse fill="black" stroke="black" stroke-width="0.21" stroke-miterlimit="22.9256" transform="matrix(-0.074589 -0.129192 0.238157 -0.1375 38.2759 34.442)" rx="16.09" ry="14.55"/>
     <line fill="none" stroke="black" stroke-width="1.04" stroke-miterlimit="22.9256" x1="35.08" y1="35.81" x2="35.08" y2= "52.9" />
    </g>
    <path fill="none" stroke="black" stroke-width="0.52" stroke-miterlimit="22.9256" d="M11.94 30.42c6.58,-4.57 18.8,-3.93 25.48,0.51"/>
    <g>
     <ellipse fill="black" stroke="black" stroke-width="0.21" stroke-miterlimit="22.9256" transform="matrix(-0.074589 -0.129192 0.238157 -0.1375 23.9499 34.4421)" rx="16.09" ry="14.55"/>
     <line fill="none" stroke="black" stroke-width="1.04" stroke-miterlimit="22.9256" x1="20.76" y1="35.81" x2="20.76" y2= "52.9" />
    </g>
   </g>
  </g>
 </g>
</svg>
