<?xml version="1.0" encoding="UTF-8"?>
<!DOCTYPE svg PUBLIC "-//W3C//DTD SVG 1.0//EN" "http://www.w3.org/TR/2001/REC-SVG-20010904/DTD/svg10.dtd">
<!-- Creator: CorelDRAW 2019 (64-Bit) -->
<svg xmlns="http://www.w3.org/2000/svg" xml:space="preserve" width="0.597403in" height="1in" version="1.0" shape-rendering="geometricPrecision" text-rendering="geometricPrecision" image-rendering="optimizeQuality" fill-rule="evenodd" clip-rule="evenodd"
viewBox="0 0 58.74 98.32"
 xmlns:xlink="http://www.w3.org/1999/xlink"
 xmlns:xodm="http://www.corel.com/coreldraw/odm/2003">
 <g id="Capa_x0020_1">
  <metadata id="CorelCorpID_0Corel-Layer"/>
  <g id="_2726394854272">
   <path fill="blue" fill-rule="nonzero" stroke="black" stroke-width="0.45" stroke-miterlimit="4" d="M0.23 95.54c0,0 0,2.55 2.55,2.55l53.18 0c0,0 2.55,0 2.55,-2.55l0 -92.76c0,0 0,-2.55 -2.55,-2.55l-53.18 0c0,0 -2.55,0 -2.55,2.55l0 92.76z"/>
   <g>
    <ellipse fill="black" stroke="black" stroke-width="0.26" stroke-miterlimit="22.9256" transform="matrix(-0.074589 -0.129192 0.238157 -0.1375 11.8011 42.6559)" rx="19.73" ry="17.84"/>
    <line fill="none" stroke="black" stroke-width="1.28" stroke-miterlimit="22.9256" x1="7.89" y1="44.34" x2="7.89" y2= "65.29" />
    <ellipse fill="black" stroke="black" stroke-width="0.26" stroke-miterlimit="22.9256" transform="matrix(-0.074589 -0.129192 0.238157 -0.1375 46.9348 42.6559)" rx="19.73" ry="17.84"/>
    <line fill="none" stroke="black" stroke-width="1.28" stroke-miterlimit="22.9256" x1="43.02" y1="44.34" x2="43.02" y2= "65.29" />
    <ellipse fill="black" stroke="black" stroke-width="0.26" stroke-miterlimit="22.9256" transform="matrix(-0.074589 -0.129192 0.238157 -0.1375 29.3679 42.656)" rx="19.73" ry="17.84"/>
    <line fill="none" stroke="black" stroke-width="1.28" stroke-miterlimit="22.9256" x1="25.45" y1="44.34" x2="25.45" y2= "65.29" />
    <polyline fill="none" stroke="black" stroke-width="1.28" stroke-miterlimit="22.9256" points="9.17,37.21 14.43,34.57 9.3,32.01 "/>
    <polyline fill="none" stroke="black" stroke-width="1.28" stroke-miterlimit="22.9256" points="26.74,37.21 32,34.57 26.87,32.01 "/>
    <polyline fill="none" stroke="black" stroke-width="1.28" stroke-miterlimit="22.9256" points="44.3,37.21 49.57,34.57 44.44,32.01 "/>
   </g>
  </g>
 </g>
</svg>
