<?xml version="1.0" encoding="UTF-8"?>
<!DOCTYPE svg PUBLIC "-//W3C//DTD SVG 1.0//EN" "http://www.w3.org/TR/2001/REC-SVG-20010904/DTD/svg10.dtd">
<!-- Creator: CorelDRAW 2019 (64-Bit) -->
<svg xmlns="http://www.w3.org/2000/svg" xml:space="preserve" width="0.597402in" height="1in" version="1.0" shape-rendering="geometricPrecision" text-rendering="geometricPrecision" image-rendering="optimizeQuality" fill-rule="evenodd" clip-rule="evenodd"
viewBox="0 0 20.95 35.07"
 xmlns:xlink="http://www.w3.org/1999/xlink"
 xmlns:xodm="http://www.corel.com/coreldraw/odm/2003">
 <g id="Capa_x0020_1">
  <metadata id="CorelCorpID_0Corel-Layer"/>
  <g id="_2726394899872">
   <path fill="red" fill-rule="nonzero" stroke="black" stroke-width="0.16" stroke-miterlimit="4" d="M0.08 34.08c0,0 0,0.91 0.91,0.91l18.97 0c0,0 0.91,0 0.91,-0.91l0 -33.08c0,0 0,-0.91 -0.91,-0.91l-18.97 0c0,0 -0.91,0 -0.91,0.91l0 33.08z"/>
   <g>
    <g>
     <path fill="black" d="M7.25 21.46c0,0.37 0.26,-0.04 0.07,0.6l-0.26 0.94c-0.19,-0.02 -0.93,-0.48 -1.16,-0.6l-0.72 -0.39c-0.16,-0.13 -0.01,-0.28 -0.4,-0.28l0 -1.17 2.31 0c0.11,0 0.18,0.38 0.34,0.68 -0.12,0.03 -0.18,0.07 -0.18,0.22zm0.18 -1.82c0,-0.75 0.03,-1.15 0.37,-1.85 0.38,-0.77 1.03,-1.36 1.8,-1.72 0.9,-0.42 2.03,-0.41 2.93,-0.02 0.77,0.33 1.45,0.96 1.83,1.71 0.71,1.42 0.45,3.11 -0.71,4.27 -1.1,1.1 -2.64,1.33 -4.08,0.73 -0.37,-0.15 -0.76,-0.44 -1.04,-0.72 -0.63,-0.63 -1.1,-1.46 -1.1,-2.41zm-4.65 -7.15c0,0.33 0.78,0.45 1.11,0.49 0.48,0.05 0.99,0.1 1.51,0.1 -0.01,0 -0.01,0 -0.02,0.01l-0.07 0.05c-0.13,0.07 -0.49,0.24 -0.61,0.24 -0.32,-0.02 -0.19,0.11 -0.45,0.22 -0.1,0.04 -0.14,0.06 -0.23,0.1l-1.96 0.85c-0.1,0.04 -0.32,0.09 -0.35,0.18 -0.09,0.3 0.64,-0.11 0.72,-0.15 0.32,-0.13 1.73,-0.79 1.99,-0.85l0 1.6 -1.23 0c-0.5,0 -0.25,0.43 -0.25,0.46l0 4.28c0,0.01 -0.29,0.49 0.15,0.49l1.33 0 0 1.17c-0.32,0 -0.24,0.07 -0.36,0.23 -0.06,0.08 -0.26,0.16 -0.37,0.22l-2.09 1.15c-0.1,0.05 -0.13,0.03 -0.14,0.17 0.1,0.05 0.19,0.01 0.27,-0.04 0.07,-0.04 0.1,-0.06 0.18,-0.1l1.69 -0.92c0.08,-0.04 0.08,-0.05 0.15,-0.09 0.07,-0.04 0.11,-0.05 0.18,-0.09 0.36,-0.2 0.1,-0.05 0.38,-0.05l0.62 0c0.17,0 -0.03,-0.15 0.49,0.15l1.54 0.83c-0,0.21 -0.15,0.32 0.09,0.34 0.03,-0.07 0.05,-0.12 0.06,-0.22 0.22,0.02 0.37,0.26 0.59,0.22 -0,-0.2 -0.08,-0.18 -0.22,-0.25 -0.11,-0.05 -0.18,-0.12 -0.31,-0.15 0.1,-0.21 0.31,-0.97 0.37,-1.23 0.11,0.08 0.18,0.19 0.37,0.09 0.18,0.33 0.86,0.84 1.22,1.03 1.26,0.64 2.57,0.65 3.83,0.02 0.23,-0.11 1.16,-0.73 1.23,-1.02 0.37,0 0.19,-0.01 0.4,-0.15 0.01,0.11 0.08,0.3 0.11,0.41l0.25 0.86c0.04,0.14 0.06,0.32 0.16,0.39 0.13,-0.03 0.13,-0.05 0.1,-0.16 -0.02,-0.08 -0.05,-0.14 -0.08,-0.24l-0.28 -0.95c-0.04,-0.13 -0.1,-0.38 -0.14,-0.47 0.18,-0.12 0.29,-0.38 0,-0.46 0.53,-1 0.55,-2.22 0.17,-3.28 -0.04,-0.13 -0.11,-0.29 -0.17,-0.39l2.13 0 0 4.35c-0.38,0 -0.19,0.2 -0.32,0.39 -0.18,0.27 -1.01,0.87 -1.07,1.12l0.07 0.09c0.29,-0.07 1,-1.04 1.17,-1.04 1.03,0 0.65,-0.1 1.55,0.79 0.09,0.09 0.17,0.22 0.3,0.25 0.07,-0.07 0.11,-0.1 0.04,-0.19 -0.09,-0.12 -0.23,-0.24 -0.34,-0.34 -0.08,-0.08 -0.1,-0.09 -0.18,-0.16 -0.12,-0.1 -0.23,-0.23 -0.34,-0.34 -0.2,-0.2 -0.22,-0.12 -0.22,-0.49 -0.13,-0.08 -0.13,-0.09 -0.28,-0.09l0 -4.35c0.2,0 1.01,0.06 1.13,-0.07 0.19,-0.2 -0.05,-0.29 -0.05,-0.42l0 -1.23c0,-0.11 0.32,-0.52 -0.22,-0.52l-0.86 0 0 -1.11c0.34,0 2.14,0.02 2.25,-0.4l-4.84 0c0.04,0.17 0.22,0.2 0.38,0.24 0.17,0.04 0.35,0.07 0.52,0.09l1.32 0.07 0 1.11 -2.8 0c-0.53,0 -0.21,0.38 -0.21,0.61 0,0.15 -0,0.31 -0,0.46 -0.07,-0.05 -0.18,-0.14 -0.25,-0.21 -0.47,-0.38 -1.07,-0.64 -1.66,-0.77 -0.13,-0.03 -0.29,-0.06 -0.42,-0.07 -0.09,-0 -0.15,0 -0.24,-0.01 -0.79,-0.11 -1.83,0.27 -2.45,0.68 -0.12,0.08 -0.17,0.12 -0.28,0.21 -0.11,0.08 -0.17,0.16 -0.26,0.23 0,-0.19 -0.05,-0.54 0.03,-0.71 0.03,-0.07 0.07,-0.06 0.07,-0.18 0,-0.18 -0.12,-0.25 -0.31,-0.25l-3.27 0 0 -1.79c0.14,-0.03 0.22,-0.08 0.36,-0.14 0.74,-0.31 0.42,-0.29 1.22,-0.3 0.7,-0 1.4,-0 2.1,0 0.61,0 1.38,-0.02 1.98,-0.09 0.43,-0.05 1.6,-0.12 1.6,-0.5 0,-0.59 -2.6,-0.68 -3.36,-0.81 -0.3,-0.05 -0.59,-0.15 -0.9,-0.15 -0.17,-0 -0.2,-0.03 -0.34,-0.03l-0.62 0.05c-0.22,0.04 -0.38,0.07 -0.59,0.12 -0.64,0.12 -3.43,0.25 -3.43,0.79z"/>
     <path fill="black" d="M16.96 13.14c-0.83,0.19 -0.54,0.08 -1.24,0.18 -0.2,0.03 -1.05,0.06 -1.07,0.35l4.84 0c-0.09,-0.33 -1.4,-0.39 -1.73,-0.4 -0.23,-0.01 -0.41,-0.11 -0.62,-0.12l0 -1.29c-0.24,-0.06 -0.18,0.06 -0.18,0.52 0,0.26 0,0.51 0,0.77z"/>
    </g>
    <ellipse fill="white" stroke="black" stroke-width="0.09" stroke-miterlimit="22.9256" cx="11.08" cy="19.36" rx="3.74" ry="3.79"/>
   </g>
  </g>
 </g>
</svg>
