<?xml version="1.0" encoding="UTF-8"?>
<!DOCTYPE svg PUBLIC "-//W3C//DTD SVG 1.0//EN" "http://www.w3.org/TR/2001/REC-SVG-20010904/DTD/svg10.dtd">
<!-- Creator: CorelDRAW 2019 (64-Bit) -->
<svg xmlns="http://www.w3.org/2000/svg" xml:space="preserve" width="0.597403in" height="1in" version="1.0" shape-rendering="geometricPrecision" text-rendering="geometricPrecision" image-rendering="optimizeQuality" fill-rule="evenodd" clip-rule="evenodd"
viewBox="0 0 24.96 41.78"
 xmlns:xlink="http://www.w3.org/1999/xlink"
 xmlns:xodm="http://www.corel.com/coreldraw/odm/2003">
 <g id="Capa_x0020_1">
  <metadata id="CorelCorpID_0Corel-Layer"/>
  <g id="_2726411886064">
   <path fill="red" fill-rule="nonzero" stroke="black" stroke-width="0.19" stroke-miterlimit="4" d="M0.1 40.6c0,0 0,1.09 1.09,1.09l22.6 0c0,0 1.09,0 1.09,-1.09l0 -39.42c0,0 0,-1.09 -1.09,-1.09l-22.6 0c0,0 -1.09,0 -1.09,1.09l0 39.42z"/>
   <g>
    <path fill="white" d="M16.6 29.42c0.7,0.26 0.33,1.32 -0.32,1.06 -0.68,-0.28 -0.34,-1.3 0.32,-1.06zm-1.9 -2.19c-0.05,-0.32 0.19,-0.59 0.46,-0.6 0.34,-0.01 0.55,0.24 0.59,0.49 0.13,0.72 -0.94,0.9 -1.05,0.11zm-0.57 -1.34c-0.09,-0.75 0.99,-0.81 1.07,-0.08 0.08,0.74 -0.97,0.83 -1.07,0.08zm-1.16 -2.64c-0.06,-0.73 1.02,-0.77 1.07,-0.03 0.05,0.75 -1.01,0.78 -1.07,0.03zm-1.74 -3.99c-0.07,-0.72 0.97,-0.79 1.06,-0.07 0.09,0.74 -0.99,0.84 -1.06,0.07zm5.24 12.07c0.17,0.02 0.21,0.17 0.34,0.22l0.33 -0.14c-0.03,0.09 -0.19,0.11 -0.33,0.19 0.07,0.16 0.19,0.31 0.22,0.55l0.33 -0.12c-0.05,0.07 0.03,0.01 -0.08,0.07 -0.01,0.01 -0.05,0.02 -0.07,0.03 -0.07,0.03 -0.08,0.04 -0.15,0.05 0.03,0.69 -0.16,0.29 0.01,0.68 0.08,0.2 0.05,0.12 0.21,0.23 0.09,0.06 0.15,0.14 0.21,0.2l0.37 -0.14c-0.03,0.06 -0.07,0.06 -0.16,0.1 -0.05,0.02 -0.13,0.06 -0.18,0.08 0.03,0.09 0.09,0.16 0.14,0.26 0.04,0.08 0.06,0.19 0.11,0.29l0.31 -0.11c-0.09,0.09 -0.21,0.1 -0.31,0.17 0.05,0.44 -0.13,0.21 0.07,0.67 0.31,0.73 0.25,0.76 0.76,0.52 0.12,-0.05 0.46,-0.18 0.52,-0.25 0.12,-0.13 -0.06,-0.43 -0.12,-0.56l-2.58 -5.91c-0.05,0.35 -0.04,0.53 -0.36,0.63 -0.59,0.19 -1,-0.69 -0.47,-1.02 0.32,-0.21 0.58,0.05 0.72,0.14l-1.64 -3.75c-0.01,0.31 -0.08,0.54 -0.35,0.62 -0.59,0.19 -1,-0.64 -0.5,-1 0.29,-0.2 0.48,-0.06 0.71,0.09 -0.04,-0.18 -0.99,-2.31 -1.05,-2.42 0.17,0.78 -0.71,0.99 -0.98,0.41 -0.21,-0.45 0.19,-0.93 0.64,-0.76 0.15,0.06 0.22,0.15 0.3,0.23 -0.06,-0.26 -0.39,-0.86 -0.49,-1.15 -0.02,0.35 -0.06,0.57 -0.38,0.65 -0.31,0.08 -0.55,-0.13 -0.64,-0.33 -0.27,-0.61 0.48,-1.08 0.91,-0.54 -0.08,-0.26 -2.43,-5.57 -2.67,-6.15 -0.15,-0.35 -0.3,-0.68 -0.45,-1.03 -0.07,-0.17 -0.15,-0.35 -0.22,-0.51 -0.04,-0.1 -0.07,-0.16 -0.11,-0.26l-0.12 -0.24c-0.16,0.15 -0.82,0.48 -1.06,0.45l2.05 4.73c1.04,2.3 2.08,4.76 3.09,7.09 0.68,1.56 1.41,3.16 2.06,4.72 0.17,0.4 0.33,0.77 0.51,1.17l0.45 1.03c0.04,0.06 0.02,0.03 0.05,0.05l0.07 0.05z"/>
    <path fill="black" d="M17.18 33.08c0.6,0.3 0.76,1.62 0.17,1.34 -0.6,-0.29 -0.73,-1.62 -0.17,-1.34zm-0.71 -1.75l0.05 0.06c0.2,0.17 0.26,0.2 0.4,0.52 0.38,0.9 -0.35,1.18 -0.73,0.21 -0.05,-0.14 -0.1,-0.33 -0.09,-0.5 0.02,-0.27 0.13,-0.29 0.36,-0.29zm-0.4 -3.29c0.57,0.31 0.18,1.25 -0.42,0.91 -0.55,-0.31 -0.19,-1.24 0.42,-0.91zm-2.44 -3.54c-0.03,-0.3 0.2,-0.53 0.46,-0.53 0.29,0 0.49,0.24 0.52,0.48 0.07,0.72 -0.91,0.74 -0.98,0.05zm-1.14 -2.53c-0.17,-0.72 0.83,-0.8 0.95,-0.18 0.13,0.69 -0.8,0.83 -0.95,0.18zm-0.58 -1.42c-0.03,-0.29 0.19,-0.52 0.45,-0.52 0.31,-0 0.5,0.24 0.52,0.48 0.07,0.68 -0.89,0.76 -0.97,0.04zm4.56 10.77l-0.07 -0.05c-0.03,-0.03 -0.01,0.01 -0.05,-0.05l-0.45 -1.03c-0.18,-0.4 -0.34,-0.77 -0.51,-1.17 -0.66,-1.56 -1.38,-3.16 -2.06,-4.72 -1.02,-2.33 -2.06,-4.79 -3.09,-7.09l-2.05 -4.73c0.24,0.04 0.9,-0.29 1.06,-0.45l0.12 0.24c0.04,0.1 0.07,0.16 0.11,0.26 0.07,0.17 0.15,0.34 0.22,0.51 0.15,0.35 0.3,0.68 0.45,1.03 0.25,0.58 2.6,5.89 2.67,6.15 -0.43,-0.54 -1.17,-0.07 -0.91,0.54 0.08,0.19 0.33,0.4 0.64,0.33 0.32,-0.08 0.36,-0.29 0.38,-0.65 0.1,0.29 0.43,0.89 0.49,1.15 -0.08,-0.08 -0.14,-0.18 -0.3,-0.23 -0.44,-0.17 -0.85,0.31 -0.64,0.76 0.27,0.57 1.16,0.37 0.98,-0.41 0.06,0.11 1.01,2.24 1.05,2.42 -0.23,-0.15 -0.42,-0.3 -0.71,-0.09 -0.5,0.35 -0.09,1.19 0.5,1 0.26,-0.09 0.34,-0.31 0.35,-0.62l1.64 3.75c-0.13,-0.09 -0.39,-0.34 -0.72,-0.14 -0.53,0.34 -0.12,1.22 0.47,1.02 0.32,-0.1 0.3,-0.29 0.36,-0.63l2.58 5.91c0.06,0.13 0.24,0.43 0.12,0.56 -0.06,0.07 -0.4,0.19 -0.52,0.25 -0.51,0.23 -0.45,0.2 -0.76,-0.52 -0.2,-0.47 -0.02,-0.23 -0.07,-0.67 0.1,-0.06 0.22,-0.08 0.31,-0.17l-0.31 0.11c-0.05,-0.1 -0.07,-0.21 -0.11,-0.29 -0.05,-0.1 -0.1,-0.17 -0.14,-0.26 0.06,-0.02 0.13,-0.05 0.18,-0.08 0.09,-0.04 0.12,-0.04 0.16,-0.1l-0.37 0.14c-0.06,-0.05 -0.12,-0.14 -0.21,-0.2 -0.16,-0.11 -0.13,-0.03 -0.21,-0.23 -0.17,-0.39 0.02,0.01 -0.01,-0.68 0.07,-0.02 0.08,-0.03 0.15,-0.05 0.02,-0.01 0.06,-0.02 0.07,-0.03 0.11,-0.06 0.03,0 0.08,-0.07l-0.33 0.12c-0.03,-0.24 -0.15,-0.39 -0.22,-0.55 0.15,-0.07 0.3,-0.1 0.33,-0.19l-0.33 0.14c-0.13,-0.06 -0.17,-0.2 -0.34,-0.22zm-9.66 -21.95c-0.08,-0.24 0.22,-0.31 0.38,-0.38 0.1,-0.04 0.45,-0.22 0.54,-0.2 0.15,0.02 0.24,0.33 0.3,0.47 0.08,0.18 0.15,0.33 0.22,0.51l0.92 2.11c0.07,0.26 -0.23,0.3 -0.38,0.37 -0.66,0.29 -0.59,0.33 -0.85,-0.25l-0.69 -1.58c-0.08,-0.19 -0.15,-0.35 -0.23,-0.53 -0.08,-0.18 -0.17,-0.34 -0.22,-0.52zm-0.68 -1.55c-0.25,-0.59 -0.5,-0.86 -0.16,-1 0.56,-0.24 0.81,-0.46 0.96,-0.1 0.19,0.45 0.77,1.7 0.89,2.05 -0.22,-0.03 -0.41,0.1 -0.6,0.18 -0.36,0.15 -0.26,0.08 -0.49,0.28l-0.6 -1.4zm10.18 23.46c-0.58,0.07 -0.07,1.42 0.38,1.47 0.32,0.04 0.1,0 0.28,-0.02 0.01,0.12 0.07,0.15 0.08,0.26 -0.45,0.05 -0.28,0.76 -0.12,1.03 0.1,0.17 0.41,0.59 0.66,0.45 0.05,-0.03 0.04,-0.01 0.07,-0.07 0.17,0.15 0.27,0.84 0.51,0.9 0.1,0.03 0.41,-0.13 0.51,-0.18 0.16,-0.07 0.41,-0.15 0.47,-0.25 0.06,-0.1 0.05,-0.16 0.02,-0.25l-3.34 -7.64c-0.07,-0.17 -0.14,-0.32 -0.22,-0.49 -0.08,-0.18 -0.14,-0.32 -0.22,-0.49l-3.01 -6.89c-0.07,-0.16 -0.15,-0.33 -0.22,-0.49 -0.07,-0.16 -0.14,-0.33 -0.21,-0.5l-1.72 -3.94c-0.42,-0.94 -0.86,-2.03 -1.29,-2.95 -0.57,-1.25 -1.14,-2.67 -1.72,-3.94 -0.18,-0.4 -0.29,-0.89 -0.56,-0.84 -0.04,0.01 -0.19,0.08 -0.24,0.1 -0.8,0.36 -0.85,0.19 -0.39,1.18l0.99 2.27c0.31,0.74 0.69,1.55 0.99,2.27 0.06,0.14 0.11,0.24 0.17,0.38l2.32 5.31c0.03,0.07 0.05,0.12 0.08,0.18l0.75 1.72c0.29,0.72 0.7,1.56 0.99,2.27 0.1,0.25 0.23,0.5 0.33,0.75l3.65 8.38z"/>
    <path fill="white" d="M15.92 30.89c-0.02,-0.16 -2.5,-5.77 -2.56,-5.91l-2.25 -5.15c-0.08,-0.19 -0.27,-0.56 -0.31,-0.74l-0.25 0.1 5.14 11.8 0.23 -0.11z"/>
    <path fill="white" d="M7.54 10.21c-0.03,-0.67 0.57,-0.47 0.85,0.25 0.06,0.14 0.1,0.29 0.11,0.46 0.04,0.87 -0.91,0.23 -0.96,-0.7zm-0.72 -0.83c0.06,0.17 0.15,0.34 0.22,0.52 0.08,0.19 0.15,0.34 0.23,0.53l0.69 1.58c0.25,0.58 0.19,0.54 0.85,0.25 0.16,-0.07 0.45,-0.11 0.38,-0.37l-0.92 -2.11c-0.08,-0.18 -0.15,-0.34 -0.22,-0.51 -0.06,-0.14 -0.15,-0.44 -0.3,-0.47 -0.09,-0.01 -0.45,0.16 -0.54,0.2 -0.16,0.07 -0.46,0.14 -0.38,0.38z"/>
    <path fill="white" d="M6.74 9.23c0.23,-0.2 0.13,-0.13 0.49,-0.28 0.18,-0.08 0.38,-0.21 0.6,-0.18 -0.12,-0.35 -0.7,-1.6 -0.89,-2.05 -0.15,-0.36 -0.4,-0.14 -0.96,0.1 -0.34,0.15 -0.09,0.42 0.16,1l0.6 1.4z"/>
    <path fill="black" d="M15.92 30.89l-0.23 0.11 -5.14 -11.8 0.25 -0.1c0.05,0.18 0.23,0.55 0.31,0.74l2.25 5.15c0.06,0.14 2.54,5.75 2.56,5.91zm-0.27 0.16c0.08,-0.01 0.26,-0.09 0.34,-0.13l-2.58 -5.94c-0.1,-0.25 -0.22,-0.49 -0.32,-0.73 -0.46,-1.14 -1.13,-2.54 -1.62,-3.72 -0.06,-0.14 -0.63,-1.41 -0.65,-1.51 -0.11,0.04 -0.21,0.09 -0.32,0.13 -0,0.12 0.24,0.61 0.3,0.75 0.11,0.25 0.22,0.5 0.33,0.75l3.56 8.15c0.08,0.18 0.95,2.13 0.96,2.25z"/>
    <path fill="white" d="M16.47 31.34c-0.24,-0 -0.34,0.02 -0.36,0.29 -0.02,0.17 0.03,0.36 0.09,0.5 0.38,0.97 1.11,0.68 0.73,-0.21 -0.14,-0.32 -0.2,-0.36 -0.4,-0.52l-0.05 -0.06z"/>
    <path fill="white" d="M17.18 33.08c-0.57,-0.29 -0.44,1.05 0.17,1.34 0.6,0.28 0.43,-1.03 -0.17,-1.34z"/>
    <path fill="white" d="M8.33 11.27c0.14,-0.15 0.14,-0.23 0.11,-0.45 -0.05,-0.38 -0.38,-1.04 -0.69,-0.97 -0.4,0.08 -0.01,1.41 0.58,1.42z"/>
    <path fill="white" d="M12.97 22.2c-0.39,0.02 -0.37,-0.54 -0.05,-0.55 0.39,-0.01 0.38,0.53 0.05,0.55zm-0.48 -0.21c0.15,0.65 1.09,0.51 0.95,-0.18 -0.12,-0.62 -1.12,-0.54 -0.95,0.18z"/>
    <path fill="white" d="M15.85 28.79c-0.4,0.02 -0.4,-0.55 -0.05,-0.55 0.4,0 0.35,0.53 0.05,0.55zm0.22 -0.74c-0.61,-0.33 -0.97,0.6 -0.42,0.91 0.6,0.34 1,-0.6 0.42,-0.91z"/>
    <path fill="white" d="M13.82 24.55c-0.03,-0.15 0.09,-0.29 0.2,-0.32 0.17,-0.04 0.32,0.07 0.35,0.2 0.07,0.36 -0.47,0.49 -0.55,0.13zm-0.19 -0.04c0.06,0.68 1.05,0.66 0.98,-0.05 -0.02,-0.24 -0.23,-0.47 -0.52,-0.48 -0.26,-0 -0.49,0.23 -0.46,0.53z"/>
    <path fill="white" d="M16.18 30.06c-0.09,-0.16 0.02,-0.33 0.14,-0.37 0.17,-0.05 0.32,0.04 0.37,0.17 0.1,0.28 -0.31,0.57 -0.5,0.2zm0.47 -0.56c-0.29,-0.15 -0.58,0.01 -0.66,0.25 -0.1,0.29 0.07,0.58 0.27,0.67 0.64,0.29 0.93,-0.64 0.39,-0.92z"/>
    <path fill="white" d="M14.41 25.91c-0.05,-0.16 0.07,-0.31 0.18,-0.34 0.15,-0.04 0.3,0.05 0.35,0.17 0.11,0.33 -0.4,0.56 -0.53,0.17zm0.42 -0.53c-0.61,-0.29 -0.95,0.71 -0.32,0.95 0.6,0.23 0.92,-0.67 0.32,-0.95z"/>
    <path fill="white" d="M14.97 27.29c-0.11,-0.37 0.44,-0.45 0.53,-0.17 0.11,0.36 -0.42,0.54 -0.53,0.17zm0.38 -0.6c-0.27,-0.09 -0.55,0.1 -0.6,0.35 -0.06,0.29 0.13,0.56 0.36,0.63 0.61,0.19 0.87,-0.78 0.23,-0.99z"/>
    <path fill="white" d="M11.47 19.29c-0.09,-0.35 0.48,-0.47 0.54,-0.12 0.06,0.35 -0.44,0.49 -0.54,0.12zm-0.2 -0c0.09,0.67 1.05,0.6 0.97,-0.08 -0.03,-0.23 -0.23,-0.48 -0.52,-0.47 -0.28,0 -0.49,0.25 -0.45,0.55z"/>
    <path fill="white" d="M12.14 20.61c-0.11,-0.36 0.44,-0.47 0.53,-0.17 0.11,0.35 -0.42,0.55 -0.53,0.17zm-0.23 -0.04c0.08,0.72 1.04,0.64 0.97,-0.04 -0.02,-0.24 -0.22,-0.49 -0.52,-0.48 -0.25,0 -0.48,0.23 -0.45,0.52z"/>
    <path fill="white" d="M13.25 23.25c-0.06,-0.36 0.46,-0.42 0.54,-0.11 0.09,0.38 -0.47,0.51 -0.54,0.11zm0.42 -0.48c-0.58,-0.25 -0.95,0.66 -0.34,0.94 0.29,0.13 0.58,-0.05 0.64,-0.3 0.07,-0.29 -0.09,-0.55 -0.3,-0.65z"/>
    <path fill="black" d="M13.25 23.25c0.07,0.39 0.62,0.26 0.54,-0.11 -0.07,-0.31 -0.6,-0.25 -0.54,0.11z"/>
    <path fill="black" d="M14.97 27.29c0.11,0.38 0.64,0.2 0.53,-0.17 -0.09,-0.29 -0.63,-0.2 -0.53,0.17z"/>
    <path fill="black" d="M15.85 28.79c0.3,-0.02 0.35,-0.55 -0.05,-0.55 -0.35,-0 -0.36,0.58 0.05,0.55z"/>
    <path fill="black" d="M12.97 22.2c0.33,-0.02 0.34,-0.56 -0.05,-0.55 -0.33,0.01 -0.35,0.57 0.05,0.55z"/>
    <path fill="black" d="M16.18 30.06c0.19,0.37 0.6,0.08 0.5,-0.2 -0.04,-0.12 -0.2,-0.22 -0.37,-0.17 -0.12,0.04 -0.22,0.2 -0.14,0.37z"/>
    <path fill="#111111" d="M8.33 11.27c-0.59,-0.01 -0.97,-1.34 -0.58,-1.42 0.31,-0.06 0.65,0.6 0.69,0.97 0.03,0.22 0.02,0.3 -0.11,0.45zm-0.79 -1.06c0.05,0.93 1,1.57 0.96,0.7 -0.01,-0.16 -0.06,-0.32 -0.11,-0.46 -0.28,-0.71 -0.88,-0.91 -0.85,-0.25z"/>
    <path fill="white" d="M13.86 24.57c0.07,0.08 0.12,0.2 0.3,0.15 0.1,-0.02 0.19,-0.16 0.16,-0.28 -0.05,-0.21 -0.45,-0.3 -0.46,0.13z"/>
    <path fill="white" d="M14.61 25.61c-0.1,0.08 -0.29,0.24 -0.08,0.41 0.29,0.23 0.64,-0.4 0.08,-0.41z"/>
    <path fill="white" d="M11.51 19.31c0.07,0.08 0.13,0.19 0.29,0.15 0.09,-0.02 0.19,-0.14 0.16,-0.28 -0.05,-0.24 -0.45,-0.27 -0.46,0.13z"/>
    <path fill="white" d="M12.35 20.3c-0.08,0.06 -0.19,0.11 -0.16,0.27 0.02,0.09 0.13,0.21 0.27,0.18 0.22,-0.04 0.33,-0.44 -0.11,-0.46z"/>
    <path fill="#111111" d="M13.67 22.77c0.21,0.09 0.38,0.35 0.3,0.65 -0.06,0.25 -0.35,0.43 -0.64,0.3 -0.61,-0.28 -0.25,-1.2 0.34,-0.94zm-0.7 0.49c0.06,0.75 1.12,0.72 1.07,-0.03 -0.05,-0.74 -1.13,-0.7 -1.07,0.03z"/>
    <path fill="#111111" d="M16.65 29.49c0.54,0.28 0.25,1.21 -0.39,0.92 -0.2,-0.09 -0.37,-0.38 -0.27,-0.67 0.08,-0.24 0.37,-0.4 0.66,-0.25zm-0.05 -0.07c-0.65,-0.25 -1,0.77 -0.32,1.06 0.65,0.27 1.02,-0.79 0.32,-1.06z"/>
    <path fill="#111111" d="M11.27 19.28c-0.04,-0.31 0.17,-0.55 0.45,-0.55 0.3,-0 0.5,0.25 0.52,0.47 0.08,0.68 -0.87,0.75 -0.97,0.08zm-0.05 -0.02c0.08,0.78 1.15,0.68 1.06,-0.07 -0.09,-0.72 -1.13,-0.65 -1.06,0.07z"/>
    <path fill="#111111" d="M14.83 25.38c0.59,0.28 0.27,1.18 -0.32,0.95 -0.63,-0.24 -0.29,-1.24 0.32,-0.95zm-0.71 0.51c0.09,0.75 1.15,0.66 1.07,-0.08 -0.08,-0.73 -1.16,-0.67 -1.07,0.08z"/>
    <path fill="#111111" d="M15.34 26.69c0.64,0.21 0.38,1.18 -0.23,0.99 -0.24,-0.07 -0.42,-0.34 -0.36,-0.63 0.05,-0.26 0.33,-0.44 0.6,-0.35zm-0.65 0.53c0.12,0.79 1.18,0.61 1.05,-0.11 -0.04,-0.25 -0.25,-0.51 -0.59,-0.49 -0.27,0.01 -0.51,0.28 -0.46,0.6z"/>
    <path fill="#111111" d="M12.35 20.3c0.43,0.02 0.33,0.41 0.11,0.46 -0.14,0.03 -0.25,-0.09 -0.27,-0.18 -0.03,-0.16 0.08,-0.21 0.16,-0.27zm-0.2 0.3c0.11,0.38 0.65,0.18 0.53,-0.17 -0.1,-0.3 -0.64,-0.19 -0.53,0.17z"/>
    <path fill="#111111" d="M11.51 19.31c0,-0.4 0.4,-0.37 0.46,-0.13 0.03,0.14 -0.07,0.25 -0.16,0.28 -0.17,0.04 -0.22,-0.07 -0.29,-0.15zm-0.04 -0.02c0.09,0.37 0.6,0.24 0.54,-0.12 -0.06,-0.35 -0.63,-0.23 -0.54,0.12z"/>
    <path fill="#111111" d="M13.86 24.57c0.01,-0.43 0.4,-0.34 0.46,-0.13 0.03,0.12 -0.06,0.26 -0.16,0.28 -0.18,0.05 -0.23,-0.07 -0.3,-0.15zm-0.04 -0.02c0.08,0.37 0.62,0.24 0.55,-0.13 -0.02,-0.13 -0.18,-0.24 -0.35,-0.2 -0.11,0.03 -0.23,0.17 -0.2,0.32z"/>
    <path fill="#111111" d="M14.61 25.61c0.56,0.01 0.22,0.64 -0.08,0.41 -0.21,-0.17 -0.02,-0.33 0.08,-0.41zm-0.2 0.3c0.13,0.4 0.64,0.16 0.53,-0.17 -0.04,-0.12 -0.19,-0.21 -0.35,-0.17 -0.11,0.03 -0.24,0.17 -0.18,0.34z"/>
   </g>
  </g>
 </g>
</svg>
