<?xml version="1.0" encoding="UTF-8"?>
<!DOCTYPE svg PUBLIC "-//W3C//DTD SVG 1.0//EN" "http://www.w3.org/TR/2001/REC-SVG-20010904/DTD/svg10.dtd">
<!-- Creator: CorelDRAW 2019 (64-Bit) -->
<svg xmlns="http://www.w3.org/2000/svg" xml:space="preserve" width="0.597403in" height="1in" version="1.0" shape-rendering="geometricPrecision" text-rendering="geometricPrecision" image-rendering="optimizeQuality" fill-rule="evenodd" clip-rule="evenodd"
viewBox="0 0 22.11 37"
 xmlns:xlink="http://www.w3.org/1999/xlink"
 xmlns:xodm="http://www.corel.com/coreldraw/odm/2003">
 <g id="Capa_x0020_1">
  <metadata id="CorelCorpID_0Corel-Layer"/>
  <g id="_2665960268016">
   <path fill="red" fill-rule="nonzero" stroke="black" stroke-width="0.17" stroke-miterlimit="4" d="M0.08 35.96c0,0 0,0.96 0.96,0.96l20.01 0c0,0 0.96,0 0.96,-0.96l0 -34.91c0,0 0,-0.96 -0.96,-0.96l-20.01 0c0,0 -0.96,0 -0.96,0.96l0 34.91z"/>
   <path fill="black" fill-rule="nonzero" stroke="black" stroke-width="0.04" stroke-miterlimit="22.9256" d="M12.17 21.78l0.39 0 0 5.63 1.37 0 0 0.51 -1.37 0 0 1.27c0,0.11 0.04,0.2 0.13,0.27 0.13,0.09 0.27,0.14 0.44,0.14l0.5 0 0 0.45 -3.31 0 0 -0.45 0.62 0c0.21,0 0.36,-0.04 0.46,-0.13 0.1,-0.09 0.15,-0.22 0.15,-0.38l0 -1.16 -3.37 0 0 -0.57 4 -5.57zm-0.63 1.62l-2.87 4.01 2.87 0 0 -4.01zm0.28 -12.42c0.57,0.14 1.01,0.37 1.33,0.69 0.4,0.41 0.61,0.91 0.61,1.51 0,0.68 -0.24,1.23 -0.73,1.64 -0.55,0.48 -1.27,0.71 -2.16,0.71 -0.53,0 -0.99,-0.09 -1.38,-0.26 -0.38,-0.17 -0.67,-0.41 -0.86,-0.71 -0.19,-0.3 -0.29,-0.63 -0.29,-1.01 0,-0.3 0.07,-0.54 0.22,-0.71 0.15,-0.17 0.33,-0.26 0.55,-0.26 0.2,0 0.36,0.07 0.49,0.2 0.12,0.13 0.18,0.31 0.18,0.54 0,0.15 -0.03,0.27 -0.09,0.37 -0.06,0.1 -0.17,0.2 -0.33,0.28 -0.17,0.09 -0.25,0.18 -0.25,0.26 0,0.12 0.06,0.25 0.18,0.4 0.12,0.15 0.3,0.27 0.54,0.36 0.24,0.09 0.54,0.13 0.9,0.13 0.62,0 1.08,-0.15 1.38,-0.46 0.3,-0.31 0.45,-0.8 0.45,-1.47 0,-0.71 -0.13,-1.21 -0.39,-1.51 -0.26,-0.3 -0.64,-0.45 -1.15,-0.45 -0.14,0 -0.31,0.02 -0.51,0.05 -0.16,0.02 -0.28,0.04 -0.35,0.04 -0.12,0 -0.21,-0.02 -0.28,-0.08 -0.07,-0.05 -0.1,-0.11 -0.1,-0.19 0,-0.08 0.03,-0.15 0.09,-0.19 0.06,-0.05 0.16,-0.07 0.3,-0.07l0.33 0.01 0.29 0.01c0.51,0 0.89,-0.13 1.15,-0.39 0.26,-0.26 0.38,-0.65 0.38,-1.19 0,-0.66 -0.12,-1.13 -0.36,-1.41 -0.24,-0.28 -0.61,-0.42 -1.09,-0.42 -0.44,0 -0.8,0.08 -1.06,0.24 -0.26,0.16 -0.39,0.3 -0.39,0.44 0,0.09 0.07,0.2 0.22,0.35 0.21,0.2 0.32,0.4 0.32,0.61 0,0.16 -0.06,0.3 -0.18,0.41 -0.12,0.11 -0.27,0.16 -0.46,0.16 -0.2,0 -0.36,-0.08 -0.48,-0.23 -0.12,-0.15 -0.19,-0.36 -0.19,-0.63 0,-0.42 0.15,-0.79 0.45,-1.12 0.43,-0.46 1.05,-0.69 1.85,-0.69 0.75,0 1.35,0.2 1.79,0.6 0.45,0.4 0.67,0.9 0.67,1.49 0,0.43 -0.12,0.79 -0.36,1.1 -0.24,0.31 -0.66,0.58 -1.24,0.82z"/>
  </g>
 </g>
</svg>
