<?xml version="1.0" encoding="UTF-8"?>
<!DOCTYPE svg PUBLIC "-//W3C//DTD SVG 1.0//EN" "http://www.w3.org/TR/2001/REC-SVG-20010904/DTD/svg10.dtd">
<!-- Creator: CorelDRAW 2019 (64-Bit) -->
<svg xmlns="http://www.w3.org/2000/svg" xml:space="preserve" width="0.596602in" height="1in" version="1.0" shape-rendering="geometricPrecision" text-rendering="geometricPrecision" image-rendering="optimizeQuality" fill-rule="evenodd" clip-rule="evenodd"
viewBox="0 0 56.2 94.2"
 xmlns:xlink="http://www.w3.org/1999/xlink"
 xmlns:xodm="http://www.corel.com/coreldraw/odm/2003">
 <g id="Capa_x0020_1">
  <metadata id="CorelCorpID_0Corel-Layer"/>
  <g id="_2667155998240">
   <rect fill="black" stroke="black" stroke-width="0.25" stroke-miterlimit="22.9256" x="0.12" y="0.12" width="55.96" height="93.96" rx="2.13" ry="2.02"/>
   <g id="_2119292953920">
    <path fill="yellow" fill-rule="nonzero" fill-opacity="0.949020" d="M28.14 9.01c4.04,0 7.74,1.64 10.41,4.32 2.67,2.67 4.32,6.37 4.32,10.41 0,4.04 -1.64,7.74 -4.32,10.41 -2.67,2.67 -6.37,4.32 -10.41,4.32 -4.04,0 -7.74,-1.64 -10.41,-4.32 -2.67,-2.67 -4.32,-6.37 -4.32,-10.41 0,-4.04 1.64,-7.74 4.32,-10.41 2.67,-2.67 6.37,-4.32 10.41,-4.32zm9.52 5.21c-2.47,-2.47 -5.82,-3.97 -9.52,-3.97 -3.7,0 -7.05,1.51 -9.52,3.97 -2.47,2.47 -3.97,5.82 -3.97,9.52 0,3.7 1.51,7.05 3.97,9.52 2.47,2.47 5.82,3.97 9.52,3.97 3.7,0 7.05,-1.51 9.52,-3.97 2.47,-2.47 3.97,-5.82 3.97,-9.52 0,-3.7 -1.51,-7.05 -3.97,-9.52z"/>
    <path fill="yellow" fill-rule="nonzero" fill-opacity="0.949020" d="M43 22.77c0.14,-0.07 0.21,-0.21 0.27,-0.34 0.07,-0.14 0.07,-0.27 0.07,-0.48 0,-0.14 -0.07,-0.34 -0.07,-0.48 -0.07,-0.14 -0.14,-0.27 -0.27,-0.34l0.55 -0.62c0.21,0.21 0.34,0.41 0.48,0.62 0.14,0.27 0.21,0.48 0.21,0.75 0,0.27 -0.07,0.55 -0.21,0.75 -0.14,0.27 -0.27,0.48 -0.48,0.62l-0.55 -0.62 0 0.14z"/>
    <path fill="yellow" fill-rule="nonzero" fill-opacity="0.949020" d="M43.61 23.6c0.27,-0.21 0.41,-0.48 0.55,-0.75 0.14,-0.27 0.21,-0.62 0.21,-0.89 0,-0.34 -0.07,-0.62 -0.21,-0.89 -0.14,-0.27 -0.34,-0.55 -0.55,-0.75l0.55 -0.62c0.34,0.27 0.62,0.62 0.75,1.03 0.21,0.41 0.27,0.82 0.27,1.23 0,0.41 -0.07,0.89 -0.27,1.23 -0.21,0.41 -0.48,0.75 -0.75,1.03l-0.55 -0.62 0 0z"/>
    <path fill="yellow" fill-rule="nonzero" fill-opacity="0.949020" d="M44.37 24.42c0.34,-0.27 0.69,-0.69 0.89,-1.1 0.21,-0.41 0.27,-0.89 0.27,-1.37 0,-0.48 -0.14,-0.96 -0.27,-1.37 -0.21,-0.41 -0.48,-0.82 -0.89,-1.1l0.55 -0.62c0.48,0.41 0.82,0.89 1.1,1.37 0.27,0.55 0.41,1.1 0.41,1.71 0,0.62 -0.14,1.16 -0.41,1.71 -0.27,0.55 -0.62,1.03 -1.1,1.37l-0.55 -0.62z"/>
    <path fill="yellow" fill-rule="nonzero" fill-opacity="0.949020" d="M12.72 23.39c-0.21,-0.21 -0.34,-0.41 -0.48,-0.62 -0.14,-0.21 -0.21,-0.48 -0.21,-0.75 0,-0.27 0.07,-0.55 0.21,-0.75 0.14,-0.27 0.27,-0.48 0.48,-0.62l0.55 0.62c-0.14,0.07 -0.21,0.21 -0.27,0.34 -0.07,0.14 -0.07,0.27 -0.07,0.48 0,0.14 0.07,0.34 0.07,0.48 0.07,0.14 0.14,0.27 0.27,0.34l-0.55 0.62 0 -0.14z"/>
    <path fill="yellow" fill-rule="nonzero" fill-opacity="0.949020" d="M12.04 24.21c-0.34,-0.27 -0.62,-0.62 -0.75,-1.03 -0.21,-0.41 -0.27,-0.82 -0.27,-1.23 0,-0.41 0.07,-0.89 0.27,-1.23 0.21,-0.41 0.48,-0.75 0.75,-1.03l0.55 0.62c-0.27,0.21 -0.41,0.48 -0.55,0.75 -0.14,0.27 -0.21,0.62 -0.21,0.89 0,0.34 0.07,0.62 0.21,0.89 0.14,0.27 0.34,0.55 0.55,0.75l-0.55 0.62 0 -0z"/>
    <path fill="yellow" fill-rule="nonzero" fill-opacity="0.949020" d="M11.29 25.03c-0.48,-0.41 -0.82,-0.89 -1.1,-1.37 -0.27,-0.55 -0.41,-1.1 -0.41,-1.71 0,-0.62 0.14,-1.16 0.41,-1.71 0.27,-0.55 0.62,-1.03 1.1,-1.37l0.55 0.62c-0.34,0.27 -0.69,0.69 -0.89,1.1 -0.21,0.41 -0.27,0.89 -0.27,1.37 0,0.48 0.14,0.96 0.27,1.37 0.21,0.41 0.48,0.82 0.89,1.1l-0.55 0.62z"/>
    <path fill="yellow" fill-opacity="0.949020" d="M30.05 19.21c-0.14,-1.23 1.16,-2.67 3.15,-3.36 2.12,-0.75 4.25,-0.34 4.73,0.89 0.48,1.3 -0.89,2.94 -3.01,3.77 -1.78,0.62 -3.49,0.48 -4.32,-0.34l-2.19 12.94c0.48,-0.75 1.37,-1.37 2.53,-1.99 2.67,-1.3 5.14,-0.62 5.82,-4.04 0.14,-0.62 0.21,-1.44 0.34,-2.19 0.07,0.75 0.21,1.58 0.21,2.26 0.27,4.38 -3.77,3.56 -6.71,5.41 -1.03,0.62 -1.51,0.96 -1.85,1.44l0 0.07 -0.48 0.75 -0.14 0.27 -0.14 -0.27c-0.14,-0.27 -0.27,-0.55 -0.48,-0.75l0 -0.07c-0.34,-0.48 -0.82,-0.82 -1.85,-1.44 -2.94,-1.85 -6.99,-1.03 -6.71,-5.41 0.07,-0.69 0.21,-1.44 0.21,-2.26 0.14,0.75 0.21,1.58 0.34,2.19 0.69,3.42 3.15,2.74 5.82,4.04 1.23,0.62 2.12,1.16 2.53,1.92l-2.19 -13.01c-0.82,0.82 -2.6,0.96 -4.32,0.34 -2.12,-0.75 -3.49,-2.47 -3.01,-3.77 0.48,-1.3 2.6,-1.71 4.73,-0.89 1.92,0.69 3.22,2.12 3.15,3.36l1.99 11.16 1.99 -11.16 -0.14 0.14z"/>
   </g>
   <g>
    <path fill="yellow" fill-rule="nonzero" fill-opacity="0.949020" stroke="yellow" stroke-width="0.09" stroke-miterlimit="22.9256" stroke-opacity="0.949020" d="M21.16 55.63l0 2.84c0,0.35 0.09,0.62 0.26,0.8 0.17,0.19 0.4,0.28 0.68,0.28 0.34,0 0.63,-0.14 0.87,-0.41 0.24,-0.28 0.36,-0.62 0.36,-1.04l0 -1.61c0,-0.15 -0.05,-0.26 -0.16,-0.34 -0.1,-0.08 -0.31,-0.13 -0.61,-0.14l0 -0.32 1.51 -0.07 0 3.51c0,0.16 0.05,0.29 0.14,0.37 0.09,0.09 0.22,0.13 0.38,0.13l0.27 0 0 0.31 -1.43 0.03 -0.09 -0.83c-0.26,0.3 -0.51,0.53 -0.77,0.68 -0.26,0.15 -0.52,0.23 -0.79,0.23 -0.39,0 -0.71,-0.13 -0.97,-0.39 -0.27,-0.26 -0.4,-0.69 -0.4,-1.31l0 -1.86c0,-0.16 -0.07,-0.29 -0.2,-0.37 -0.09,-0.06 -0.28,-0.1 -0.56,-0.1l0 -0.32 1.52 -0.07zm4.26 0.07l1.42 -0.07c0.06,0.27 0.1,0.58 0.13,0.94 0.19,-0.31 0.42,-0.54 0.68,-0.7 0.26,-0.16 0.56,-0.23 0.88,-0.23 0.28,0 0.52,0.06 0.71,0.17 0.19,0.11 0.34,0.29 0.46,0.53 0.12,0.24 0.17,0.51 0.17,0.81l0 2.08c0,0.15 0.03,0.27 0.1,0.33 0.07,0.07 0.19,0.1 0.35,0.1l0.3 0 0 0.35 -2.26 0 0 -0.35 0.21 0c0.2,0 0.34,-0.03 0.42,-0.1 0.08,-0.06 0.12,-0.16 0.12,-0.29l0 -1.83c0,-0.4 -0.06,-0.69 -0.18,-0.89 -0.17,-0.27 -0.43,-0.41 -0.78,-0.41 -0.34,0 -0.63,0.14 -0.86,0.41 -0.23,0.28 -0.34,0.64 -0.34,1.08l0 1.58c0,0.15 0.04,0.27 0.11,0.33 0.07,0.07 0.19,0.1 0.35,0.1l0.3 0 0 0.35 -2.26 0 0 -0.35 0.29 0c0.15,0 0.26,-0.03 0.34,-0.09 0.08,-0.06 0.12,-0.14 0.12,-0.23l0 -2.77c0,-0.18 -0.05,-0.32 -0.15,-0.42 -0.1,-0.1 -0.24,-0.14 -0.43,-0.14l-0.22 0 0 -0.3zm11.6 2.69c0.19,0.52 0.4,0.88 0.65,1.08 0.24,0.2 0.55,0.3 0.9,0.3 0.33,0 0.58,-0.07 0.76,-0.22 0.18,-0.14 0.27,-0.33 0.27,-0.55 0,-0.13 -0.03,-0.24 -0.1,-0.33 -0.07,-0.1 -0.16,-0.17 -0.27,-0.22 -0.12,-0.05 -0.42,-0.12 -0.9,-0.21 -0.46,-0.09 -0.79,-0.19 -0.97,-0.29 -0.18,-0.1 -0.32,-0.24 -0.43,-0.41 -0.1,-0.18 -0.15,-0.37 -0.15,-0.57 0,-0.31 0.1,-0.6 0.31,-0.85 0.27,-0.32 0.65,-0.49 1.14,-0.49 0.37,0 0.72,0.12 1.03,0.35l0.3 -0.32 0.19 0 0.12 1.53 -0.31 0c-0.13,-0.43 -0.32,-0.74 -0.54,-0.93 -0.23,-0.19 -0.51,-0.29 -0.85,-0.29 -0.29,0 -0.52,0.07 -0.68,0.21 -0.16,0.14 -0.25,0.31 -0.25,0.52 0,0.18 0.08,0.33 0.23,0.44 0.15,0.12 0.44,0.22 0.88,0.29 0.51,0.08 0.83,0.16 0.99,0.21 0.25,0.09 0.44,0.23 0.58,0.42 0.14,0.19 0.21,0.42 0.21,0.7 0,0.38 -0.15,0.7 -0.45,0.96 -0.3,0.26 -0.67,0.39 -1.13,0.39 -0.42,0 -0.82,-0.14 -1.18,-0.41l-0.33 0.38 -0.24 0 -0.09 -1.7 0.31 0zm-20.53 6.01c0.14,0 0.26,0.05 0.36,0.16 0.1,0.1 0.16,0.22 0.16,0.36 0,0.14 -0.05,0.26 -0.15,0.36 -0.1,0.1 -0.22,0.15 -0.36,0.15 -0.14,0 -0.26,-0.05 -0.36,-0.15 -0.1,-0.1 -0.15,-0.22 -0.15,-0.36 0,-0.14 0.05,-0.26 0.16,-0.36 0.1,-0.1 0.22,-0.16 0.36,-0.16zm-1.2 2.55l1.71 -0.05 0 3.68c0,0.1 0.02,0.17 0.07,0.21 0.07,0.06 0.16,0.09 0.27,0.09l0.48 0 0 0.35 -2.44 0 0 -0.35 0.45 0c0.13,0 0.23,-0.03 0.29,-0.1 0.06,-0.07 0.09,-0.16 0.09,-0.29l0 -2.69c0,-0.17 -0.05,-0.3 -0.15,-0.39 -0.1,-0.09 -0.24,-0.13 -0.44,-0.13l-0.35 0 0 -0.35zm2.96 -2.47l1.63 -0.07 0 4.67 1.38 -1.22c0.13,-0.12 0.2,-0.22 0.2,-0.31 0,-0.08 -0.04,-0.14 -0.12,-0.18 -0.12,-0.06 -0.31,-0.09 -0.58,-0.1l0 -0.32 2.28 0 0 0.32c-0.45,0.03 -0.8,0.14 -1.03,0.36l-0.98 0.87 1.59 2.2c0.1,0.13 0.27,0.19 0.51,0.19l0.24 0 0 0.35 -2.34 0 0 -0.35 0.23 0c0.18,0 0.29,-0.02 0.35,-0.05 0.06,-0.03 0.09,-0.07 0.09,-0.11 0,-0.04 -0.02,-0.09 -0.05,-0.13l-1.17 -1.63 -0.62 0.55 0 1.08c0,0.09 0.03,0.15 0.09,0.19 0.08,0.06 0.2,0.09 0.34,0.09l0.3 0 0 0.35 -2.3 0 0 -0.35 0.37 0c0.15,0 0.26,-0.03 0.34,-0.1 0.07,-0.06 0.11,-0.15 0.11,-0.26l0 -5.27c0,-0.14 -0.04,-0.24 -0.13,-0.3 -0.13,-0.09 -0.3,-0.14 -0.51,-0.14l-0.23 0 0 -0.35zm9.62 4.64l-3.06 0c0.02,0.65 0.14,1.11 0.36,1.38 0.26,0.3 0.59,0.45 1,0.45 0.6,0 1.07,-0.34 1.44,-1.02l0.3 0.13c-0.44,0.86 -1.09,1.29 -1.93,1.29 -0.57,0 -1.05,-0.21 -1.45,-0.62 -0.39,-0.41 -0.59,-0.94 -0.59,-1.59 0,-0.69 0.19,-1.25 0.58,-1.68 0.39,-0.43 0.86,-0.64 1.42,-0.64 0.41,0 0.77,0.11 1.07,0.32 0.3,0.21 0.53,0.52 0.68,0.92 0.11,0.28 0.16,0.63 0.17,1.06zm-3.06 -0.33l1.85 0c0.11,0 0.2,-0.04 0.26,-0.11 0.06,-0.07 0.09,-0.2 0.09,-0.38 0,-0.33 -0.1,-0.62 -0.31,-0.85 -0.21,-0.23 -0.45,-0.35 -0.74,-0.35 -0.32,0 -0.58,0.14 -0.8,0.42 -0.22,0.28 -0.34,0.71 -0.34,1.27zm14.04 -1.92l0 2.84c0,0.35 0.09,0.62 0.26,0.8 0.17,0.19 0.4,0.28 0.68,0.28 0.34,0 0.63,-0.14 0.87,-0.41 0.24,-0.28 0.36,-0.62 0.36,-1.04l0 -1.61c0,-0.15 -0.05,-0.26 -0.16,-0.34 -0.1,-0.08 -0.31,-0.13 -0.61,-0.14l0 -0.32 1.51 -0.07 0 3.51c0,0.16 0.05,0.29 0.14,0.37 0.09,0.09 0.22,0.13 0.38,0.13l0.27 0 0 0.31 -1.43 0.03 -0.09 -0.83c-0.26,0.3 -0.51,0.53 -0.77,0.68 -0.26,0.15 -0.52,0.23 -0.79,0.23 -0.39,0 -0.71,-0.13 -0.97,-0.39 -0.27,-0.26 -0.4,-0.69 -0.4,-1.31l0 -1.86c0,-0.16 -0.07,-0.29 -0.2,-0.37 -0.09,-0.06 -0.28,-0.1 -0.56,-0.1l0 -0.32 1.52 -0.07zm4.26 0.07l1.42 -0.07c0.06,0.27 0.1,0.58 0.13,0.94 0.19,-0.31 0.42,-0.54 0.68,-0.7 0.26,-0.16 0.56,-0.23 0.88,-0.23 0.28,0 0.52,0.06 0.71,0.17 0.19,0.11 0.34,0.29 0.46,0.53 0.12,0.24 0.17,0.51 0.17,0.81l0 2.08c0,0.15 0.03,0.27 0.1,0.33 0.07,0.07 0.19,0.1 0.35,0.1l0.3 0 0 0.35 -2.26 0 0 -0.35 0.21 0c0.2,0 0.34,-0.03 0.42,-0.1 0.08,-0.06 0.12,-0.16 0.12,-0.29l0 -1.83c0,-0.4 -0.06,-0.69 -0.18,-0.89 -0.17,-0.27 -0.43,-0.41 -0.78,-0.41 -0.34,0 -0.63,0.14 -0.86,0.41 -0.23,0.28 -0.34,0.64 -0.34,1.08l0 1.58c0,0.15 0.04,0.27 0.11,0.33 0.07,0.07 0.19,0.1 0.35,0.1l0.3 0 0 0.35 -2.26 0 0 -0.35 0.29 0c0.15,0 0.26,-0.03 0.34,-0.09 0.08,-0.06 0.12,-0.14 0.12,-0.23l0 -2.77c0,-0.18 -0.05,-0.32 -0.15,-0.42 -0.1,-0.1 -0.24,-0.14 -0.43,-0.14l-0.22 0 0 -0.3z"/>
    <path fill="yellow" fill-rule="nonzero" fill-opacity="0.949020" stroke="yellow" stroke-width="0.09" stroke-miterlimit="22.9256" stroke-opacity="0.949020" d="M35.97 56.97c0.06,0.36 -0.03,0.76 -0.25,1.15 -0.28,0.5 -0.77,1 -1.41,1.36 -0.64,0.37 -1.31,0.55 -1.89,0.54 -0.63,-0.01 -1.15,-0.25 -1.42,-0.7l0 -0c-0.26,-0.46 -0.21,-1.03 0.1,-1.58 0.27,-0.49 0.75,-0.97 1.37,-1.34l0 -0 0.04 -0.02c0.64,-0.37 1.31,-0.55 1.89,-0.54 0.35,0.01 0.67,0.08 0.93,0.23l0 -9.58 0.64 0 0 10.48zm-0.8 0.85c0.2,-0.36 0.25,-0.7 0.11,-0.95l-0 0c-0.14,-0.25 -0.47,-0.38 -0.88,-0.39 -0.46,-0.01 -1.02,0.14 -1.56,0.45l-0 -0 -0 0c-0.54,0.31 -0.95,0.72 -1.17,1.12 -0.2,0.36 -0.25,0.7 -0.11,0.95l0 -0c0.14,0.25 0.47,0.38 0.88,0.39 0.47,0.01 1.02,-0.14 1.56,-0.45 0.54,-0.31 0.95,-0.72 1.17,-1.12z"/>
    <path fill="yellow" fill-opacity="0.949020" stroke="yellow" stroke-width="0.09" stroke-miterlimit="22.9256" stroke-opacity="0.949020" d="M39.06 75.29c0.53,0.72 0.52,2.08 -0.1,3.4 -0.77,1.64 -2.19,2.6 -3.17,2.14 -0.98,-0.46 -1.16,-2.16 -0.39,-3.81 0.64,-1.37 1.75,-2.27 2.67,-2.25l-5.43 -9.45c-0,-0 -0.01,-0.01 -0.01,-0.01l-0.41 -0.74 -1.72 -2.99c0,0 -0.14,-0.32 -0.56,-0.94 0.89,0.71 2.48,1.03 3.54,1.17 3.58,0.48 7.19,-2.05 8.74,2.34 0.22,0.63 0.42,1.49 0.69,2.24 -0.48,-0.63 -0.92,-1.38 -1.32,-1.92 -2.15,-2.87 -4.15,-1.2 -7.2,-1.3 -1.1,-0.04 -1.9,-0.2 -2.54,-0.52l1.16 2.02c0.21,0.04 0.46,0.07 0.79,0.11 2.28,0.31 4.61,-1.31 5.58,1.51 0.14,0.4 0.26,0.96 0.43,1.44 -0.31,-0.4 -0.6,-0.88 -0.85,-1.22 -1.38,-1.81 -2.65,-0.75 -4.58,-0.81 -0.31,-0.01 -0.58,-0.04 -0.82,-0.08l5.54 9.64 -0.03 0.02z"/>
    <path fill="yellow" fill-rule="nonzero" fill-opacity="0.949020" stroke="yellow" stroke-width="0.09" stroke-miterlimit="22.9256" stroke-opacity="0.949020" d="M14.74 59.67l-3.24 16.13c0.92,-0.65 1.99,-0.83 3.73,-0.68 0.19,0.02 0.37,0.04 0.55,0.06 2.06,0.27 3.4,0.92 5.04,-1.11 0.37,-0.46 0.81,-1.15 1.26,-1.7 -0.24,0.67 -0.44,1.48 -0.64,2.04 -1.44,4.01 -4.75,1.64 -8.01,2.01 -0.2,0.02 -0.39,0.04 -0.56,0.06 -1.58,0.18 -1.65,0.25 -3.25,1.44 0.38,-0.56 0.73,-1.02 1.08,-1.4l3.6 -17.9c0.02,-0.39 0.2,-0.81 0.5,-1.21 0.28,-0.37 0.68,-0.72 1.17,-1l-0 -0c0.64,-0.37 1.31,-0.55 1.89,-0.54 0.63,0.01 1.15,0.25 1.42,0.7 0.26,0.46 0.21,1.03 -0.1,1.58 -0.28,0.5 -0.77,1 -1.41,1.36 -0.64,0.37 -1.31,0.55 -1.89,0.54 -0.46,-0.01 -0.86,-0.13 -1.15,-0.38zm0.23 -0.76c0.01,0.04 0.03,0.08 0.05,0.12l0 -0c0.14,0.25 0.47,0.38 0.88,0.39 0.47,0.01 1.02,-0.14 1.56,-0.45 0.54,-0.31 0.95,-0.72 1.17,-1.12 0.2,-0.36 0.25,-0.7 0.1,-0.95 -0.14,-0.25 -0.47,-0.38 -0.88,-0.39 -0.46,-0.01 -1.02,0.14 -1.56,0.45l-0 0c-0.41,0.24 -0.75,0.53 -0.98,0.84 -0.23,0.3 -0.36,0.6 -0.37,0.87 -0,0.02 -0,0.04 -0,0.05 0,0.01 0,0.02 0,0.05 0,0.05 0.01,0.1 0.03,0.14z"/>
    <path fill="yellow" fill-rule="nonzero" fill-opacity="0.949020" stroke="yellow" stroke-width="0.09" stroke-miterlimit="22.9256" stroke-opacity="0.949020" d="M18.95 50.06c0,0.31 -0.03,0.61 -0.1,0.9 -0.07,0.3 -0.16,0.59 -0.29,0.86 -0.13,0.28 -0.29,0.54 -0.47,0.78 -0.18,0.24 -0.4,0.46 -0.63,0.66l-0.18 0.15 -0.45 -0.53 0.18 -0.15c0.19,-0.16 0.37,-0.35 0.52,-0.55 0.15,-0.2 0.28,-0.42 0.39,-0.65 0.1,-0.22 0.19,-0.46 0.24,-0.71 0.05,-0.24 0.08,-0.49 0.08,-0.75 0,-0.26 -0.03,-0.51 -0.08,-0.75 -0.05,-0.25 -0.14,-0.49 -0.24,-0.71 -0.11,-0.23 -0.24,-0.45 -0.39,-0.65 -0.15,-0.2 -0.33,-0.39 -0.52,-0.55l-0.18 -0.15 0.45 -0.53 0.18 0.15c0.23,0.2 0.44,0.42 0.63,0.66 0.18,0.24 0.34,0.5 0.47,0.78 0.13,0.27 0.22,0.56 0.29,0.86l0 0c0.06,0.29 0.1,0.59 0.1,0.9zm-1.21 0.03c0,0.22 -0.02,0.44 -0.07,0.65l-0 0c-0.05,0.22 -0.12,0.43 -0.21,0.62 -0.09,0.2 -0.21,0.39 -0.34,0.56 -0.13,0.18 -0.29,0.34 -0.46,0.48l-0.18 0.15 -0.45 -0.53 0.18 -0.15c0.13,-0.11 0.25,-0.23 0.35,-0.37 0.1,-0.13 0.19,-0.28 0.26,-0.43 0.07,-0.15 0.12,-0.31 0.16,-0.48 0.04,-0.16 0.05,-0.33 0.05,-0.5 0,-0.17 -0.02,-0.34 -0.05,-0.5 -0.04,-0.17 -0.09,-0.33 -0.16,-0.48 -0.07,-0.15 -0.16,-0.3 -0.26,-0.43 -0.1,-0.13 -0.22,-0.26 -0.35,-0.37l-0.18 -0.15 0.45 -0.53 0.18 0.15c0.17,0.14 0.32,0.3 0.46,0.48 0.13,0.17 0.25,0.36 0.34,0.56 0.09,0.2 0.16,0.4 0.21,0.62 0.05,0.21 0.07,0.43 0.07,0.65zm-1.08 0c0,0.14 -0.02,0.27 -0.04,0.41 -0.03,0.14 -0.07,0.26 -0.13,0.39 -0.06,0.12 -0.13,0.24 -0.21,0.35 -0.08,0.11 -0.18,0.21 -0.28,0.3l-0.18 0.15 -0.45 -0.53 0.18 -0.15c0.07,-0.06 0.13,-0.12 0.18,-0.19 0.05,-0.07 0.1,-0.14 0.13,-0.22 0.04,-0.08 0.06,-0.16 0.08,-0.24l0 -0c0.02,-0.08 0.03,-0.17 0.03,-0.25 0,-0.09 -0.01,-0.17 -0.03,-0.25l0 -0c-0.02,-0.08 -0.05,-0.17 -0.08,-0.24 -0.04,-0.08 -0.08,-0.15 -0.13,-0.22 -0.05,-0.07 -0.11,-0.13 -0.18,-0.19l-0.18 -0.15 0.45 -0.53 0.18 0.15c0.1,0.09 0.2,0.19 0.28,0.3 0.08,0.11 0.15,0.23 0.21,0.35 0.06,0.12 0.1,0.25 0.13,0.39 0.03,0.13 0.04,0.27 0.04,0.41z"/>
    <path fill="yellow" fill-opacity="0.949020" stroke="yellow" stroke-width="0.09" stroke-miterlimit="22.9256" stroke-opacity="0.949020" d="M15.23 46.3c-1.72,2.09 -1.83,2.15 -2.18,4.84 -0.54,4.21 2.42,8.28 -2.59,10.18 -0.75,0.29 -1.71,0.53 -2.59,0.87 0.76,-0.55 1.61,-1.03 2.26,-1.5 3.45,-2.49 1.45,-4.87 1.55,-8.47 0.09,-3.21 1.06,-4.14 3.55,-5.92z"/>
   </g>
  </g>
 </g>
</svg>
